<?xml version="1.0" encoding="UTF-8" standalone="no"?><!DOCTYPE svg PUBLIC "-//W3C//DTD SVG 1.1//EN" "http://www.w3.org/Graphics/SVG/1.1/DTD/svg11.dtd"><!-- Generated by graphviz version 2.40.1 (20161225.0304)
 --><!-- Title: G Pages: 1 --><svg xmlns="http://www.w3.org/2000/svg" xmlns:xlink="http://www.w3.org/1999/xlink" width="2529pt" height="310pt" viewBox="0.00 0.00 2528.99 310.40">
<g id="graph0" class="graph" transform="scale(1 1) rotate(0) translate(4 306.4)">
<title>G</title>
<polygon fill="#ffffff" stroke="transparent" points="-4,4 -4,-306.4 2524.9944,-306.4 2524.9944,4 -4,4"/>
<!-- log.Println -->
<g id="node1" class="node">
<title>log.Println</title>
<ellipse fill="none" stroke="#000000" cx="1419.1672" cy="-18" rx="100.356" ry="18"/>
<text text-anchor="middle" x="1419.1672" y="-13.8" font-family="Times,serif" font-size="14.00" fill="#000000">log.Println,inl_cost=77</text>
</g>
<!-- flag.String -->
<g id="node2" class="node">
<title>flag.String</title>
<ellipse fill="none" stroke="#000000" cx="100.1672" cy="-195.6" rx="100.3347" ry="18"/>
<text text-anchor="middle" x="100.1672" y="-191.4" font-family="Times,serif" font-size="14.00" fill="#000000">flag.String,inl_cost=63</text>
</g>
<!-- flag.Bool -->
<g id="node3" class="node">
<title>flag.Bool</title>
<ellipse fill="none" stroke="#000000" cx="314.1672" cy="-195.6" rx="95.1816" ry="18"/>
<text text-anchor="middle" x="314.1672" y="-191.4" font-family="Times,serif" font-size="14.00" fill="#000000">flag.Bool,inl_cost=63</text>
</g>
<!-- main.runtimeProf.func2 -->
<g id="node4" class="node">
<title>main.runtimeProf.func2</title>
<ellipse fill="none" stroke="#000000" cx="2191.1672" cy="-284.4" rx="103.6547" ry="18"/>
<text text-anchor="middle" x="2191.1672" y="-280.2" font-family="Times,serif" font-size="14.00" fill="#000000">main.runtimeProf.func2</text>
</g>
<!-- os.(*File).Close -->
<g id="node6" class="node">
<title>os.(*File).Close</title>
<ellipse fill="none" stroke="#000000" cx="2057.1672" cy="-195.6" rx="120.6394" ry="18"/>
<text text-anchor="middle" x="2057.1672" y="-191.4" font-family="Times,serif" font-size="14.00" fill="#000000">os.(*File).Close,inl_cost=67</text>
</g>
<!-- main.runtimeProf.func2&#45;&gt;os.(*File).Close -->
<g id="edge15" class="edge">
<title>main.runtimeProf.func2-&gt;os.(*File).Close</title>
<path fill="none" stroke="#000000" d="M2164.6931,-266.856C2143.9976,-253.1413 2115.0387,-233.9506 2092.3872,-218.9398"/>
<polygon fill="#000000" stroke="#000000" points="2094.3142,-216.018 2084.045,-213.4115 2090.4473,-221.8531 2094.3142,-216.018"/>
<text text-anchor="middle" x="2149.4172" y="-235.8" font-family="Times,serif" font-size="14.00" fill="#000000">0.00</text>
</g>
<!-- runtime/pprof.StopCPUProfile -->
<g id="node11" class="node">
<title>runtime/pprof.StopCPUProfile</title>
<ellipse fill="none" stroke="#000000" cx="2326.1672" cy="-195.6" rx="129.7132" ry="18"/>
<text text-anchor="middle" x="2326.1672" y="-191.4" font-family="Times,serif" font-size="14.00" fill="#000000">runtime/pprof.StopCPUProfile</text>
</g>
<!-- main.runtimeProf.func2&#45;&gt;runtime/pprof.StopCPUProfile -->
<g id="edge16" class="edge">
<title>main.runtimeProf.func2-&gt;runtime/pprof.StopCPUProfile</title>
<path fill="none" stroke="#000000" d="M2217.8389,-266.856C2238.6889,-253.1413 2267.8639,-233.9506 2290.6844,-218.9398"/>
<polygon fill="#000000" stroke="#000000" points="2292.6577,-221.8312 2299.0889,-213.4115 2288.8108,-215.9829 2292.6577,-221.8312"/>
<text text-anchor="middle" x="2283.4172" y="-235.8" font-family="Times,serif" font-size="14.00" fill="#000000">0.00</text>
</g>
<!-- main.runtimeProf.func1 -->
<g id="node5" class="node">
<title>main.runtimeProf.func1</title>
<ellipse fill="none" stroke="#000000" cx="2417.1672" cy="-284.4" rx="103.6547" ry="18"/>
<text text-anchor="middle" x="2417.1672" y="-280.2" font-family="Times,serif" font-size="14.00" fill="#000000">main.runtimeProf.func1</text>
</g>
<!-- os.Setenv -->
<g id="node7" class="node">
<title>os.Setenv</title>
<ellipse fill="none" stroke="#000000" cx="766.1672" cy="-18" rx="96.3253" ry="18"/>
<text text-anchor="middle" x="766.1672" y="-13.8" font-family="Times,serif" font-size="14.00" fill="#000000">os.Setenv,inl_cost=90</text>
</g>
<!-- fmt.Println -->
<g id="node8" class="node">
<title>fmt.Println</title>
<ellipse fill="none" stroke="#000000" cx="1368.1672" cy="-106.8" rx="101.4963" ry="18"/>
<text text-anchor="middle" x="1368.1672" y="-102.6" font-family="Times,serif" font-size="14.00" fill="#000000">fmt.Println,inl_cost=72</text>
</g>
<!-- fmt.Printf -->
<g id="node9" class="node">
<title>fmt.Printf</title>
<ellipse fill="none" stroke="#000000" cx="524.1672" cy="-195.6" rx="96.901" ry="18"/>
<text text-anchor="middle" x="524.1672" y="-191.4" font-family="Times,serif" font-size="14.00" fill="#000000">fmt.Printf,inl_cost=73</text>
</g>
<!-- flag.Int -->
<g id="node10" class="node">
<title>flag.Int</title>
<ellipse fill="none" stroke="#000000" cx="726.1672" cy="-195.6" rx="87.0741" ry="18"/>
<text text-anchor="middle" x="726.1672" y="-191.4" font-family="Times,serif" font-size="14.00" fill="#000000">flag.Int,inl_cost=63</text>
</g>
<!-- main.findFactors -->
<g id="node12" class="node">
<title>main.findFactors</title>
<ellipse fill="none" stroke="#000000" cx="908.1672" cy="-195.6" rx="76.9835" ry="18"/>
<text text-anchor="middle" x="908.1672" y="-191.4" font-family="Times,serif" font-size="14.00" fill="#000000">main.findFactors</text>
</g>
<!-- math.Sqrt -->
<g id="node14" class="node">
<title>math.Sqrt</title>
<ellipse fill="none" stroke="#000000" cx="559.1672" cy="-18" rx="92.248" ry="18"/>
<text text-anchor="middle" x="559.1672" y="-13.8" font-family="Times,serif" font-size="14.00" fill="#000000">math.Sqrt,inl_cost=4</text>
</g>
<!-- main.findFactors&#45;&gt;math.Sqrt -->
<g id="edge5" class="edge">
<title>main.findFactors-&gt;math.Sqrt</title>
<path fill="none" stroke="#000000" d="M852.8257,-183.0119C842.6661,-180.9878 832.1261,-179.0763 822.1672,-177.6 777.1497,-170.9267 659.0709,-179.55 618.1672,-159.6 576.6259,-139.339 564.293,-81.4732 560.6579,-46.2998"/>
<polygon fill="#000000" stroke="#000000" points="564.1316,-45.842 559.7864,-36.1793 557.1574,-46.4427 564.1316,-45.842"/>
<text text-anchor="middle" x="595.4172" y="-102.6" font-family="Times,serif" font-size="14.00" fill="#000000">0.00</text>
</g>
<!-- main.findFactors&#45;&gt;math.Sqrt -->
<g id="edge8" class="edge">
<title>main.findFactors-&gt;math.Sqrt</title>
<path fill="none" stroke="#000000" d="M853.6914,-182.8839C781.796,-165.8086 662.2352,-136.2875 644.6672,-124.8 628.1833,-114.0214 597.1742,-72.3863 577.3775,-44.3976"/>
<polygon fill="#000000" stroke="#000000" points="580.2323,-42.3727 571.6222,-36.1989 574.503,-46.3945 580.2323,-42.3727"/>
<text text-anchor="middle" x="657.4172" y="-102.6" font-family="Times,serif" font-size="14.00" fill="#000000">0.00</text>
</g>
<!-- math.Ceil -->
<g id="node24" class="node">
<title>math.Ceil</title>
<ellipse fill="none" stroke="#000000" cx="775.1672" cy="-106.8" rx="96.9029" ry="18"/>
<text text-anchor="middle" x="775.1672" y="-102.6" font-family="Times,serif" font-size="14.00" fill="#000000">math.Ceil,inl_cost=61</text>
</g>
<!-- main.findFactors&#45;&gt;math.Ceil -->
<g id="edge9" class="edge">
<title>main.findFactors-&gt;math.Ceil</title>
<path fill="none" stroke="#000000" d="M882.5235,-178.4785C861.774,-164.6247 832.36,-144.9859 809.566,-129.767"/>
<polygon fill="#000000" stroke="#000000" points="811.4462,-126.8139 801.186,-124.172 807.5592,-132.6356 811.4462,-126.8139"/>
<text text-anchor="middle" x="866.4172" y="-147" font-family="Times,serif" font-size="14.00" fill="#000000">0.00</text>
</g>
<!-- main.isSquare -->
<g id="node25" class="node">
<title>main.isSquare</title>
<ellipse fill="none" stroke="#000000" cx="956.1672" cy="-106.8" rx="66.0289" ry="18"/>
<text text-anchor="middle" x="956.1672" y="-102.6" font-family="Times,serif" font-size="14.00" fill="#000000">main.isSquare</text>
</g>
<!-- main.findFactors&#45;&gt;main.isSquare -->
<g id="edge6" class="edge">
<title>main.findFactors-&gt;main.isSquare</title>
<path fill="none" stroke="#000000" d="M904.9744,-177.5424C903.9636,-166.8774 904.2661,-153.4278 909.6672,-142.8 912.0913,-138.0302 915.4716,-133.7046 919.315,-129.8413"/>
<polygon fill="#000000" stroke="#000000" points="921.9273,-132.2061 927.1471,-122.9863 917.3171,-126.9386 921.9273,-132.2061"/>
<text text-anchor="middle" x="922.4172" y="-147" font-family="Times,serif" font-size="14.00" fill="#000000">0.23</text>
</g>
<!-- main.findFactors&#45;&gt;main.isSquare -->
<g id="edge7" class="edge">
<title>main.findFactors-&gt;main.isSquare</title>
<path fill="none" stroke="#000000" d="M922.2428,-177.8273C926.3718,-172.18 930.7038,-165.7897 934.1672,-159.6 938.6284,-151.6271 942.7244,-142.5656 946.1415,-134.2276"/>
<polygon fill="#000000" stroke="#000000" points="949.4148,-135.4675 949.8223,-124.8805 942.9016,-132.9026 949.4148,-135.4675"/>
<text text-anchor="middle" x="954.4172" y="-147" font-family="Times,serif" font-size="14.00" fill="#000000">0.27</text>
</g>
<!-- fmt.Sprintf -->
<g id="node13" class="node">
<title>fmt.Sprintf</title>
<ellipse fill="none" stroke="#000000" cx="1056.1672" cy="-195.6" rx="53.8676" ry="18"/>
<text text-anchor="middle" x="1056.1672" y="-191.4" font-family="Times,serif" font-size="14.00" fill="#000000">fmt.Sprintf</text>
</g>
<!-- log.Fatal -->
<g id="node15" class="node">
<title>log.Fatal</title>
<ellipse fill="none" stroke="#000000" cx="1532.1672" cy="-106.8" rx="45.2011" ry="18"/>
<text text-anchor="middle" x="1532.1672" y="-102.6" font-family="Times,serif" font-size="14.00" fill="#000000">log.Fatal</text>
</g>
<!-- main.main -->
<g id="node16" class="node">
<title>main.main</title>
<ellipse fill="none" stroke="#000000" cx="956.1672" cy="-284.4" rx="52.1456" ry="18"/>
<text text-anchor="middle" x="956.1672" y="-280.2" font-family="Times,serif" font-size="14.00" fill="#000000">main.main</text>
</g>
<!-- main.main&#45;&gt;flag.String -->
<g id="edge20" class="edge">
<title>main.main-&gt;flag.String</title>
<path fill="none" stroke="#000000" d="M904.8941,-281.0227C783.6985,-272.7154 470.1924,-249.329 210.1672,-213.6 201.2976,-212.3813 192.0411,-211.0151 182.8273,-209.5947"/>
<polygon fill="#000000" stroke="#000000" points="183.2873,-206.1241 172.8665,-208.0364 182.2053,-213.04 183.2873,-206.1241"/>
<text text-anchor="middle" x="509.4172" y="-235.8" font-family="Times,serif" font-size="14.00" fill="#000000">0.00</text>
</g>
<!-- main.main&#45;&gt;flag.Bool -->
<g id="edge30" class="edge">
<title>main.main-&gt;flag.Bool</title>
<path fill="none" stroke="#000000" d="M906.7347,-278.6503C811.8368,-267.445 597.6217,-241.3417 418.1672,-213.6 410.2495,-212.376 402.0027,-211.0451 393.7702,-209.6794"/>
<polygon fill="#000000" stroke="#000000" points="394.1995,-206.2026 383.7585,-208.0012 393.0423,-213.1063 394.1995,-206.2026"/>
<text text-anchor="middle" x="666.4172" y="-235.8" font-family="Times,serif" font-size="14.00" fill="#000000">0.00</text>
</g>
<!-- main.main&#45;&gt;fmt.Printf -->
<g id="edge25" class="edge">
<title>main.main-&gt;fmt.Printf</title>
<path fill="none" stroke="#000000" d="M911.1582,-275.1481C837.2128,-259.9483 689.2607,-229.5359 599.2466,-211.033"/>
<polygon fill="#000000" stroke="#000000" points="599.8746,-207.589 589.3747,-209.0038 598.4651,-214.4456 599.8746,-207.589"/>
<text text-anchor="middle" x="791.4172" y="-235.8" font-family="Times,serif" font-size="14.00" fill="#000000">0.00</text>
</g>
<!-- main.main&#45;&gt;flag.Int -->
<g id="edge27" class="edge">
<title>main.main-&gt;flag.Int</title>
<path fill="none" stroke="#000000" d="M921.2352,-270.9132C882.9144,-256.1181 821.046,-232.2315 777.272,-215.3309"/>
<polygon fill="#000000" stroke="#000000" points="778.2581,-211.9599 767.6686,-211.6232 775.7369,-218.4901 778.2581,-211.9599"/>
<text text-anchor="middle" x="874.4172" y="-235.8" font-family="Times,serif" font-size="14.00" fill="#000000">0.00</text>
</g>
<!-- main.main&#45;&gt;main.findFactors -->
<g id="edge23" class="edge">
<title>main.main-&gt;main.findFactors</title>
<path fill="none" stroke="#000000" d="M928.1191,-268.9526C920.8133,-263.4727 913.8302,-256.5914 909.6672,-248.4 905.8695,-240.9274 904.5926,-232.0596 904.5204,-223.7457"/>
<polygon fill="#000000" stroke="#000000" points="908.0212,-223.8049 904.9744,-213.6576 901.0283,-223.4902 908.0212,-223.8049"/>
<text text-anchor="middle" x="922.4172" y="-235.8" font-family="Times,serif" font-size="14.00" fill="#000000">0.00</text>
</g>
<!-- main.main&#45;&gt;main.findFactors -->
<g id="edge24" class="edge">
<title>main.main-&gt;main.findFactors</title>
<path fill="none" stroke="#000000" d="M949.8223,-266.3195C945.874,-255.8927 940.374,-242.6927 934.1672,-231.6 932.3273,-228.3117 930.2422,-224.9668 928.0727,-221.7068"/>
<polygon fill="#000000" stroke="#000000" points="930.8428,-219.5607 922.2428,-213.3727 925.1069,-223.5731 930.8428,-219.5607"/>
<text text-anchor="middle" x="954.4172" y="-235.8" font-family="Times,serif" font-size="14.00" fill="#000000">0.12</text>
</g>
<!-- main.main&#45;&gt;fmt.Sprintf -->
<g id="edge29" class="edge">
<title>main.main-&gt;fmt.Sprintf</title>
<path fill="none" stroke="#000000" d="M975.4482,-267.2785C990.6658,-253.7653 1012.0816,-234.748 1029.0306,-219.6973"/>
<polygon fill="#000000" stroke="#000000" points="1031.792,-221.926 1036.9454,-212.669 1027.144,-216.6918 1031.792,-221.926"/>
<text text-anchor="middle" x="1027.4172" y="-235.8" font-family="Times,serif" font-size="14.00" fill="#000000">0.00</text>
</g>
<!-- main.httpProf -->
<g id="node17" class="node">
<title>main.httpProf</title>
<ellipse fill="none" stroke="#000000" cx="1192.1672" cy="-195.6" rx="64.3249" ry="18"/>
<text text-anchor="middle" x="1192.1672" y="-191.4" font-family="Times,serif" font-size="14.00" fill="#000000">main.httpProf</text>
</g>
<!-- main.main&#45;&gt;main.httpProf -->
<g id="edge28" class="edge">
<title>main.main-&gt;main.httpProf</title>
<path fill="none" stroke="#000000" d="M991.4988,-271.1057C1031.9899,-255.8701 1098.5794,-230.8144 1143.8487,-213.7809"/>
<polygon fill="#000000" stroke="#000000" points="1145.3238,-216.9655 1153.4506,-210.168 1142.8586,-210.4139 1145.3238,-216.9655"/>
<text text-anchor="middle" x="1108.4172" y="-235.8" font-family="Times,serif" font-size="14.00" fill="#000000">0.00</text>
</g>
<!-- main.runtimeProf -->
<g id="node21" class="node">
<title>main.runtimeProf</title>
<ellipse fill="none" stroke="#000000" cx="1401.1672" cy="-195.6" rx="79.3521" ry="18"/>
<text text-anchor="middle" x="1401.1672" y="-191.4" font-family="Times,serif" font-size="14.00" fill="#000000">main.runtimeProf</text>
</g>
<!-- main.main&#45;&gt;main.runtimeProf -->
<g id="edge22" class="edge">
<title>main.main-&gt;main.runtimeProf</title>
<path fill="none" stroke="#000000" d="M1001.2851,-275.3967C1079.1281,-259.8631 1239.1698,-227.9267 1331.4384,-209.5144"/>
<polygon fill="#000000" stroke="#000000" points="1332.3998,-212.8917 1341.5215,-207.5023 1331.0299,-206.027 1332.3998,-212.8917"/>
<text text-anchor="middle" x="1231.4172" y="-235.8" font-family="Times,serif" font-size="14.00" fill="#000000">0.00</text>
</g>
<!-- flag.Uint64 -->
<g id="node23" class="node">
<title>flag.Uint64</title>
<ellipse fill="none" stroke="#000000" cx="1602.1672" cy="-195.6" rx="103.268" ry="18"/>
<text text-anchor="middle" x="1602.1672" y="-191.4" font-family="Times,serif" font-size="14.00" fill="#000000">flag.Uint64,inl_cost=63</text>
</g>
<!-- main.main&#45;&gt;flag.Uint64 -->
<g id="edge26" class="edge">
<title>main.main-&gt;flag.Uint64</title>
<path fill="none" stroke="#000000" d="M1005.6349,-278.5817C1063.5665,-271.6981 1162.4,-259.737 1247.1672,-248.4 1354.8702,-233.9955 1381.7318,-229.8805 1489.1672,-213.6 1497.9658,-212.2667 1507.1453,-210.8488 1516.3029,-209.4168"/>
<polygon fill="#000000" stroke="#000000" points="1516.8763,-212.8698 1526.2122,-207.8607 1515.7903,-205.9545 1516.8763,-212.8698"/>
<text text-anchor="middle" x="1381.4172" y="-235.8" font-family="Times,serif" font-size="14.00" fill="#000000">0.00</text>
</g>
<!-- flag.Parse -->
<g id="node28" class="node">
<title>flag.Parse</title>
<ellipse fill="none" stroke="#000000" cx="1821.1672" cy="-195.6" rx="97.4439" ry="18"/>
<text text-anchor="middle" x="1821.1672" y="-191.4" font-family="Times,serif" font-size="14.00" fill="#000000">flag.Parse,inl_cost=62</text>
</g>
<!-- main.main&#45;&gt;flag.Parse -->
<g id="edge21" class="edge">
<title>main.main-&gt;flag.Parse</title>
<path fill="none" stroke="#000000" d="M1007.8203,-281.1809C1130.6587,-273.1759 1449.7221,-250.3276 1714.1672,-213.6 1722.7078,-212.4138 1731.615,-211.0764 1740.4847,-209.6797"/>
<polygon fill="#000000" stroke="#000000" points="1741.1405,-213.1193 1750.4615,-208.0825 1740.0339,-206.2074 1741.1405,-213.1193"/>
<text text-anchor="middle" x="1582.4172" y="-235.8" font-family="Times,serif" font-size="14.00" fill="#000000">0.00</text>
</g>
<!-- main.httpProf.func1 -->
<g id="node20" class="node">
<title>main.httpProf.func1</title>
<ellipse fill="none" stroke="#000000" cx="1160.1672" cy="-106.8" rx="88.6275" ry="18"/>
<text text-anchor="middle" x="1160.1672" y="-102.6" font-family="Times,serif" font-size="14.00" fill="#000000">main.httpProf.func1</text>
</g>
<!-- main.httpProf&#45;&gt;main.httpProf.func1 -->
<g id="edge17" class="edge">
<title>main.httpProf-&gt;main.httpProf.func1</title>
<path fill="none" stroke="#000000" d="M1185.6915,-177.63C1181.2534,-165.3142 1175.2781,-148.7328 1170.2247,-134.7095"/>
<polygon fill="#000000" stroke="#000000" points="1173.4261,-133.2693 1166.7431,-125.0481 1166.8406,-135.6425 1173.4261,-133.2693"/>
<text text-anchor="middle" x="1191.4172" y="-147" font-family="Times,serif" font-size="14.00" fill="#000000">0.00</text>
</g>
<!-- main.NewExpensive -->
<g id="node18" class="node">
<title>main.NewExpensive</title>
<ellipse fill="none" stroke="#000000" cx="972.1672" cy="-18" rx="91.4348" ry="18"/>
<text text-anchor="middle" x="972.1672" y="-13.8" font-family="Times,serif" font-size="14.00" fill="#000000">main.NewExpensive</text>
</g>
<!-- os.Create -->
<g id="node19" class="node">
<title>os.Create</title>
<ellipse fill="none" stroke="#000000" cx="1690.1672" cy="-106.8" rx="95.1585" ry="18"/>
<text text-anchor="middle" x="1690.1672" y="-102.6" font-family="Times,serif" font-size="14.00" fill="#000000">os.Create,inl_cost=72</text>
</g>
<!-- main.httpProf.func1&#45;&gt;log.Println -->
<g id="edge18" class="edge">
<title>main.httpProf.func1-&gt;log.Println</title>
<path fill="none" stroke="#000000" d="M1205.5779,-91.2306C1249.3264,-76.2311 1315.6323,-53.4977 1362.7489,-37.3434"/>
<polygon fill="#000000" stroke="#000000" points="1364.1725,-40.5554 1372.4968,-34.0013 1361.9022,-33.9338 1364.1725,-40.5554"/>
<text text-anchor="middle" x="1325.4172" y="-58.2" font-family="Times,serif" font-size="14.00" fill="#000000">0.00</text>
</g>
<!-- net/http.ListenAndServe -->
<g id="node22" class="node">
<title>net/http.ListenAndServe</title>
<ellipse fill="none" stroke="#000000" cx="1691.1672" cy="-18" rx="153.6079" ry="18"/>
<text text-anchor="middle" x="1691.1672" y="-13.8" font-family="Times,serif" font-size="14.00" fill="#000000">net/http.ListenAndServe,inl_cost=70</text>
</g>
<!-- main.httpProf.func1&#45;&gt;net/http.ListenAndServe -->
<g id="edge19" class="edge">
<title>main.httpProf.func1-&gt;net/http.ListenAndServe</title>
<path fill="none" stroke="#000000" d="M1225.7654,-94.568C1236.5839,-92.6034 1247.6854,-90.6194 1258.1672,-88.8 1371.4421,-69.1383 1501.6612,-48.0504 1589.4694,-34.0526"/>
<polygon fill="#000000" stroke="#000000" points="1590.1043,-37.4956 1599.4293,-32.4662 1589.0032,-30.5828 1590.1043,-37.4956"/>
<text text-anchor="middle" x="1472.4172" y="-58.2" font-family="Times,serif" font-size="14.00" fill="#000000">0.00</text>
</g>
<!-- main.runtimeProf&#45;&gt;fmt.Println -->
<g id="edge10" class="edge">
<title>main.runtimeProf-&gt;fmt.Println</title>
<path fill="none" stroke="#000000" d="M1393.6275,-177.3494C1391.3374,-171.6827 1388.8507,-165.4016 1386.6672,-159.6 1383.6362,-151.5463 1380.4874,-142.7434 1377.6654,-134.6743"/>
<polygon fill="#000000" stroke="#000000" points="1380.8799,-133.2608 1374.2991,-124.9576 1374.2656,-135.5523 1380.8799,-133.2608"/>
<text text-anchor="middle" x="1399.4172" y="-147" font-family="Times,serif" font-size="14.00" fill="#000000">0.00</text>
</g>
<!-- main.runtimeProf&#45;&gt;log.Fatal -->
<g id="edge12" class="edge">
<title>main.runtimeProf-&gt;log.Fatal</title>
<path fill="none" stroke="#000000" d="M1415.1782,-177.7279C1424.5904,-166.6015 1437.7755,-152.594 1451.6672,-142.8 1462.9343,-134.8564 1476.2349,-128.0469 1488.7445,-122.5566"/>
<polygon fill="#000000" stroke="#000000" points="1490.2484,-125.7211 1498.1097,-118.6183 1487.5348,-119.2685 1490.2484,-125.7211"/>
<text text-anchor="middle" x="1464.4172" y="-147" font-family="Times,serif" font-size="14.00" fill="#000000">0.00</text>
</g>
<!-- main.runtimeProf&#45;&gt;log.Fatal -->
<g id="edge14" class="edge">
<title>main.runtimeProf-&gt;log.Fatal</title>
<path fill="none" stroke="#000000" d="M1439.812,-179.8299C1451.8907,-174.1808 1464.9755,-167.2856 1476.1672,-159.6 1487.9877,-151.4826 1499.7385,-140.8927 1509.4009,-131.3295"/>
<polygon fill="#000000" stroke="#000000" points="1512.1456,-133.5302 1516.6636,-123.947 1507.1555,-128.6211 1512.1456,-133.5302"/>
<text text-anchor="middle" x="1508.4172" y="-147" font-family="Times,serif" font-size="14.00" fill="#000000">0.00</text>
</g>
<!-- main.runtimeProf&#45;&gt;os.Create -->
<g id="edge11" class="edge">
<title>main.runtimeProf-&gt;os.Create</title>
<path fill="none" stroke="#000000" d="M1450.6214,-181.4096C1473.1003,-174.8865 1500.0142,-166.9747 1524.1672,-159.6 1560.2091,-148.5952 1600.4944,-135.7938 1632.3526,-125.5521"/>
<polygon fill="#000000" stroke="#000000" points="1633.5088,-128.8568 1641.955,-122.4606 1631.3636,-122.1936 1633.5088,-128.8568"/>
<text text-anchor="middle" x="1587.4172" y="-147" font-family="Times,serif" font-size="14.00" fill="#000000">0.00</text>
</g>
<!-- runtime/pprof.StartCPUProfile -->
<g id="node27" class="node">
<title>runtime/pprof.StartCPUProfile</title>
<ellipse fill="none" stroke="#000000" cx="1934.1672" cy="-106.8" rx="130.2696" ry="18"/>
<text text-anchor="middle" x="1934.1672" y="-102.6" font-family="Times,serif" font-size="14.00" fill="#000000">runtime/pprof.StartCPUProfile</text>
</g>
<!-- main.runtimeProf&#45;&gt;runtime/pprof.StartCPUProfile -->
<g id="edge13" class="edge">
<title>main.runtimeProf-&gt;runtime/pprof.StartCPUProfile</title>
<path fill="none" stroke="#000000" d="M1459.9855,-183.3449C1470.041,-181.3528 1480.394,-179.3659 1490.1672,-177.6 1540.2122,-168.5574 1552.9459,-167.6055 1603.1672,-159.6 1682.5613,-146.9442 1772.6656,-132.5704 1838.7961,-122.0189"/>
<polygon fill="#000000" stroke="#000000" points="1839.4627,-125.4569 1848.7863,-120.4249 1838.3597,-118.5444 1839.4627,-125.4569"/>
<text text-anchor="middle" x="1716.4172" y="-147" font-family="Times,serif" font-size="14.00" fill="#000000">0.00</text>
</g>
<!-- main.isSquare&#45;&gt;os.Setenv -->
<g id="edge3" class="edge">
<title>main.isSquare-&gt;os.Setenv</title>
<path fill="none" stroke="#000000" d="M922.6364,-91.1288C891.67,-76.6561 845.4333,-55.0465 811.2454,-39.0681"/>
<polygon fill="#000000" stroke="#000000" points="812.4862,-35.7847 801.9449,-34.7213 809.5223,-42.1263 812.4862,-35.7847"/>
<text text-anchor="middle" x="891.4172" y="-58.2" font-family="Times,serif" font-size="14.00" fill="#000000">0.15</text>
</g>
<!-- main.isSquare&#45;&gt;math.Sqrt -->
<g id="edge1" class="edge">
<title>main.isSquare-&gt;math.Sqrt</title>
<path fill="none" stroke="#000000" d="M906.5769,-94.757C898.1059,-92.7403 889.3888,-90.6903 881.1672,-88.8 795.4769,-69.0985 696.683,-47.5482 631.3655,-33.4618"/>
<polygon fill="#000000" stroke="#000000" points="632.0902,-30.0377 621.5773,-31.3527 630.6157,-36.8807 632.0902,-30.0377"/>
<text text-anchor="middle" x="805.4172" y="-58.2" font-family="Times,serif" font-size="14.00" fill="#000000">0.21</text>
</g>
<!-- main.isSquare&#45;&gt;main.NewExpensive -->
<g id="edge2" class="edge">
<title>main.isSquare-&gt;main.NewExpensive</title>
<path fill="none" stroke="#000000" d="M959.4824,-88.4006C961.6852,-76.175 964.6197,-59.8887 967.1114,-46.0599"/>
<polygon fill="#000000" stroke="#000000" points="970.5822,-46.5342 968.911,-36.072 963.6931,-45.2929 970.5822,-46.5342"/>
<text text-anchor="middle" x="978.4172" y="-58.2" font-family="Times,serif" font-size="14.00" fill="#000000">0.07</text>
</g>
<!-- strconv.Itoa -->
<g id="node26" class="node">
<title>strconv.Itoa</title>
<ellipse fill="none" stroke="#000000" cx="1191.1672" cy="-18" rx="109.6293" ry="18"/>
<text text-anchor="middle" x="1191.1672" y="-13.8" font-family="Times,serif" font-size="14.00" fill="#000000">strconv.Itoa,inl_cost=117</text>
</g>
<!-- main.isSquare&#45;&gt;strconv.Itoa -->
<g id="edge4" class="edge">
<title>main.isSquare-&gt;strconv.Itoa</title>
<path fill="none" stroke="#000000" d="M994.9727,-92.1365C1033.8773,-77.4355 1094.0839,-54.6851 1137.5426,-38.2633"/>
<polygon fill="#000000" stroke="#000000" points="1138.9819,-41.461 1147.0991,-34.6521 1136.5075,-34.9129 1138.9819,-41.461"/>
<text text-anchor="middle" x="1107.4172" y="-58.2" font-family="Times,serif" font-size="14.00" fill="#000000">0.24</text>
</g>
</g>
</svg>