<?xml version="1.0" encoding="UTF-8" standalone="no"?><!DOCTYPE svg PUBLIC "-//W3C//DTD SVG 1.1//EN" "http://www.w3.org/Graphics/SVG/1.1/DTD/svg11.dtd"><!-- Generated by graphviz version 2.40.1 (20161225.0304)
 --><!-- Title: G Pages: 1 --><svg xmlns="http://www.w3.org/2000/svg" xmlns:xlink="http://www.w3.org/1999/xlink" width="3319pt" height="310pt" viewBox="0.00 0.00 3319.04 310.40">
<g id="graph0" class="graph" transform="scale(1 1) rotate(0) translate(4 306.4)">
<title>G</title>
<polygon fill="#ffffff" stroke="transparent" points="-4,4 -4,-306.4 3315.0443,-306.4 3315.0443,4 -4,4"/>
<!-- main.isSquare -->
<g id="node1" class="node">
<title>main.isSquare</title>
<ellipse fill="none" stroke="#000000" cx="534.2172" cy="-106.8" rx="66.0289" ry="18"/>
<text text-anchor="middle" x="534.2172" y="-102.6" font-family="Times,serif" font-size="14.00" fill="#000000">main.isSquare</text>
</g>
<!-- math.Sqrt -->
<g id="node2" class="node">
<title>math.Sqrt</title>
<ellipse fill="none" stroke="#000000" cx="741.2172" cy="-18" rx="92.248" ry="18"/>
<text text-anchor="middle" x="741.2172" y="-13.8" font-family="Times,serif" font-size="14.00" fill="#000000">math.Sqrt,inl_cost=4</text>
</g>
<!-- main.isSquare&#45;&gt;math.Sqrt -->
<g id="edge3" class="edge">
<title>main.isSquare-&gt;math.Sqrt</title>
<path fill="none" stroke="#000000" d="M564.8488,-90.6409C586.1338,-79.6893 615.3089,-65.223 641.7172,-54 655.5913,-48.1038 670.7948,-42.2884 685.0498,-37.108"/>
<polygon fill="#000000" stroke="#000000" points="686.5096,-40.3027 694.739,-33.6299 684.1445,-33.7144 686.5096,-40.3027"/>
<text text-anchor="middle" x="654.4672" y="-58.2" font-family="Times,serif" font-size="14.00" fill="#000000">0.00</text>
</g>
<!-- main.NewExpensive -->
<g id="node6" class="node">
<title>main.NewExpensive</title>
<ellipse fill="none" stroke="#000000" cx="91.2172" cy="-18" rx="91.4348" ry="18"/>
<text text-anchor="middle" x="91.2172" y="-13.8" font-family="Times,serif" font-size="14.00" fill="#000000">main.NewExpensive</text>
</g>
<!-- main.isSquare&#45;&gt;main.NewExpensive -->
<g id="edge4" class="edge">
<title>main.isSquare-&gt;main.NewExpensive</title>
<path fill="none" stroke="#000000" d="M480.781,-96.0886C402.0071,-80.2983 254.4356,-50.7174 165.2692,-32.8438"/>
<polygon fill="#000000" stroke="#000000" points="165.7203,-29.3647 155.2274,-30.831 164.3445,-36.2282 165.7203,-29.3647"/>
<text text-anchor="middle" x="365.4672" y="-58.2" font-family="Times,serif" font-size="14.00" fill="#000000">0.00</text>
</g>
<!-- strconv.Itoa -->
<g id="node20" class="node">
<title>strconv.Itoa</title>
<ellipse fill="none" stroke="#000000" cx="310.2172" cy="-18" rx="109.6293" ry="18"/>
<text text-anchor="middle" x="310.2172" y="-13.8" font-family="Times,serif" font-size="14.00" fill="#000000">strconv.Itoa,inl_cost=117</text>
</g>
<!-- main.isSquare&#45;&gt;strconv.Itoa -->
<g id="edge2" class="edge">
<title>main.isSquare-&gt;strconv.Itoa</title>
<path fill="none" stroke="#000000" d="M496.7246,-91.9369C459.7501,-77.2791 402.9486,-54.7614 361.7439,-38.4267"/>
<polygon fill="#000000" stroke="#000000" points="363.0017,-35.1603 352.4156,-34.7287 360.4219,-41.6677 363.0017,-35.1603"/>
<text text-anchor="middle" x="455.4672" y="-58.2" font-family="Times,serif" font-size="14.00" fill="#000000">0.00</text>
</g>
<!-- os.Setenv -->
<g id="node24" class="node">
<title>os.Setenv</title>
<ellipse fill="none" stroke="#000000" cx="534.2172" cy="-18" rx="96.3253" ry="18"/>
<text text-anchor="middle" x="534.2172" y="-13.8" font-family="Times,serif" font-size="14.00" fill="#000000">os.Setenv,inl_cost=90</text>
</g>
<!-- main.isSquare&#45;&gt;os.Setenv -->
<g id="edge1" class="edge">
<title>main.isSquare-&gt;os.Setenv</title>
<path fill="none" stroke="#000000" d="M534.2172,-88.4006C534.2172,-76.2949 534.2172,-60.2076 534.2172,-46.4674"/>
<polygon fill="#000000" stroke="#000000" points="537.7172,-46.072 534.2172,-36.072 530.7172,-46.0721 537.7172,-46.072"/>
<text text-anchor="middle" x="546.4672" y="-58.2" font-family="Times,serif" font-size="14.00" fill="#000000">0.00</text>
</g>
<!-- main.findFactors -->
<g id="node3" class="node">
<title>main.findFactors</title>
<ellipse fill="none" stroke="#000000" cx="811.2172" cy="-195.6" rx="76.9835" ry="18"/>
<text text-anchor="middle" x="811.2172" y="-191.4" font-family="Times,serif" font-size="14.00" fill="#000000">main.findFactors</text>
</g>
<!-- main.findFactors&#45;&gt;main.isSquare -->
<g id="edge7" class="edge">
<title>main.findFactors-&gt;main.isSquare</title>
<path fill="none" stroke="#000000" d="M746.6125,-185.7564C714.5553,-179.9007 675.5509,-171.2992 641.7172,-159.6 617.5186,-151.2325 591.7267,-138.698 571.4734,-127.9414"/>
<polygon fill="#000000" stroke="#000000" points="573.046,-124.813 562.5832,-123.1457 569.7226,-130.9738 573.046,-124.813"/>
<text text-anchor="middle" x="654.4672" y="-147" font-family="Times,serif" font-size="14.00" fill="#000000">0.00</text>
</g>
<!-- main.findFactors&#45;&gt;math.Sqrt -->
<g id="edge6" class="edge">
<title>main.findFactors-&gt;math.Sqrt</title>
<path fill="none" stroke="#000000" d="M762.2274,-181.7086C735.6408,-171.096 705.9609,-153.3129 694.7172,-124.8 683.7143,-96.898 701.0677,-65.4793 717.6142,-43.9837"/>
<polygon fill="#000000" stroke="#000000" points="720.5218,-45.9545 724.0926,-35.9796 715.0807,-41.5506 720.5218,-45.9545"/>
<text text-anchor="middle" x="707.4672" y="-102.6" font-family="Times,serif" font-size="14.00" fill="#000000">0.00</text>
</g>
<!-- main.findFactors&#45;&gt;math.Sqrt -->
<g id="edge8" class="edge">
<title>main.findFactors-&gt;math.Sqrt</title>
<path fill="none" stroke="#000000" d="M790.2116,-178.1102C776.1033,-165.0222 758.5373,-145.8184 749.7172,-124.8 739.2023,-99.7429 737.9204,-68.5029 738.7578,-46.2974"/>
<polygon fill="#000000" stroke="#000000" points="742.2592,-46.3643 739.308,-36.1889 735.2696,-45.9839 742.2592,-46.3643"/>
<text text-anchor="middle" x="762.4672" y="-102.6" font-family="Times,serif" font-size="14.00" fill="#000000">0.00</text>
</g>
<!-- math.Ceil -->
<g id="node7" class="node">
<title>math.Ceil</title>
<ellipse fill="none" stroke="#000000" cx="880.2172" cy="-106.8" rx="96.9029" ry="18"/>
<text text-anchor="middle" x="880.2172" y="-102.6" font-family="Times,serif" font-size="14.00" fill="#000000">math.Ceil,inl_cost=61</text>
</g>
<!-- main.findFactors&#45;&gt;math.Ceil -->
<g id="edge5" class="edge">
<title>main.findFactors-&gt;math.Ceil</title>
<path fill="none" stroke="#000000" d="M825.1803,-177.63C835.1875,-164.7512 848.8192,-147.2078 860.0121,-132.803"/>
<polygon fill="#000000" stroke="#000000" points="862.9027,-134.7872 866.2747,-124.7433 857.3752,-130.4922 862.9027,-134.7872"/>
<text text-anchor="middle" x="864.4672" y="-147" font-family="Times,serif" font-size="14.00" fill="#000000">0.00</text>
</g>
<!-- runtime/pprof.StopCPUProfile -->
<g id="node4" class="node">
<title>runtime/pprof.StopCPUProfile</title>
<ellipse fill="none" stroke="#000000" cx="2847.2172" cy="-195.6" rx="129.7132" ry="18"/>
<text text-anchor="middle" x="2847.2172" y="-191.4" font-family="Times,serif" font-size="14.00" fill="#000000">runtime/pprof.StopCPUProfile</text>
</g>
<!-- flag.Int -->
<g id="node5" class="node">
<title>flag.Int</title>
<ellipse fill="none" stroke="#000000" cx="1085.2172" cy="-195.6" rx="87.0741" ry="18"/>
<text text-anchor="middle" x="1085.2172" y="-191.4" font-family="Times,serif" font-size="14.00" fill="#000000">flag.Int,inl_cost=63</text>
</g>
<!-- main.runtimeProf.func2 -->
<g id="node8" class="node">
<title>main.runtimeProf.func2</title>
<ellipse fill="none" stroke="#000000" cx="2981.2172" cy="-284.4" rx="103.6547" ry="18"/>
<text text-anchor="middle" x="2981.2172" y="-280.2" font-family="Times,serif" font-size="14.00" fill="#000000">main.runtimeProf.func2</text>
</g>
<!-- main.runtimeProf.func2&#45;&gt;runtime/pprof.StopCPUProfile -->
<g id="edge14" class="edge">
<title>main.runtimeProf.func2-&gt;runtime/pprof.StopCPUProfile</title>
<path fill="none" stroke="#000000" d="M2954.7431,-266.856C2934.0475,-253.1413 2905.0886,-233.9506 2882.4371,-218.9398"/>
<polygon fill="#000000" stroke="#000000" points="2884.3641,-216.018 2874.0949,-213.4115 2880.4973,-221.8531 2884.3641,-216.018"/>
<text text-anchor="middle" x="2938.4672" y="-235.8" font-family="Times,serif" font-size="14.00" fill="#000000">0.00</text>
</g>
<!-- os.(*File).Close -->
<g id="node25" class="node">
<title>os.(*File).Close</title>
<ellipse fill="none" stroke="#000000" cx="3116.2172" cy="-195.6" rx="120.6394" ry="18"/>
<text text-anchor="middle" x="3116.2172" y="-191.4" font-family="Times,serif" font-size="14.00" fill="#000000">os.(*File).Close,inl_cost=67</text>
</g>
<!-- main.runtimeProf.func2&#45;&gt;os.(*File).Close -->
<g id="edge15" class="edge">
<title>main.runtimeProf.func2-&gt;os.(*File).Close</title>
<path fill="none" stroke="#000000" d="M3007.8888,-266.856C3028.7388,-253.1413 3057.9138,-233.9506 3080.7344,-218.9398"/>
<polygon fill="#000000" stroke="#000000" points="3082.7076,-221.8312 3089.1388,-213.4115 3078.8608,-215.9829 3082.7076,-221.8312"/>
<text text-anchor="middle" x="3072.4672" y="-235.8" font-family="Times,serif" font-size="14.00" fill="#000000">0.00</text>
</g>
<!-- main.runtimeProf -->
<g id="node9" class="node">
<title>main.runtimeProf</title>
<ellipse fill="none" stroke="#000000" cx="1270.2172" cy="-195.6" rx="79.3521" ry="18"/>
<text text-anchor="middle" x="1270.2172" y="-191.4" font-family="Times,serif" font-size="14.00" fill="#000000">main.runtimeProf</text>
</g>
<!-- runtime/pprof.StartCPUProfile -->
<g id="node18" class="node">
<title>runtime/pprof.StartCPUProfile</title>
<ellipse fill="none" stroke="#000000" cx="1125.2172" cy="-106.8" rx="130.2696" ry="18"/>
<text text-anchor="middle" x="1125.2172" y="-102.6" font-family="Times,serif" font-size="14.00" fill="#000000">runtime/pprof.StartCPUProfile</text>
</g>
<!-- main.runtimeProf&#45;&gt;runtime/pprof.StartCPUProfile -->
<g id="edge12" class="edge">
<title>main.runtimeProf-&gt;runtime/pprof.StartCPUProfile</title>
<path fill="none" stroke="#000000" d="M1242.6025,-178.6884C1220.0625,-164.8846 1187.9799,-145.2368 1163.0499,-129.9693"/>
<polygon fill="#000000" stroke="#000000" points="1164.5755,-126.7994 1154.2197,-124.5616 1160.9197,-132.769 1164.5755,-126.7994"/>
<text text-anchor="middle" x="1223.4672" y="-147" font-family="Times,serif" font-size="14.00" fill="#000000">0.00</text>
</g>
<!-- log.Fatal -->
<g id="node21" class="node">
<title>log.Fatal</title>
<ellipse fill="none" stroke="#000000" cx="1318.2172" cy="-106.8" rx="45.2011" ry="18"/>
<text text-anchor="middle" x="1318.2172" y="-102.6" font-family="Times,serif" font-size="14.00" fill="#000000">log.Fatal</text>
</g>
<!-- main.runtimeProf&#45;&gt;log.Fatal -->
<g id="edge11" class="edge">
<title>main.runtimeProf-&gt;log.Fatal</title>
<path fill="none" stroke="#000000" d="M1267.0243,-177.5424C1266.0136,-166.8774 1266.316,-153.4278 1271.7172,-142.8 1274.5026,-137.3191 1278.5506,-132.4248 1283.113,-128.1444"/>
<polygon fill="#000000" stroke="#000000" points="1285.6538,-130.5859 1291.1449,-121.525 1281.2019,-125.184 1285.6538,-130.5859"/>
<text text-anchor="middle" x="1284.4672" y="-147" font-family="Times,serif" font-size="14.00" fill="#000000">0.00</text>
</g>
<!-- main.runtimeProf&#45;&gt;log.Fatal -->
<g id="edge13" class="edge">
<title>main.runtimeProf-&gt;log.Fatal</title>
<path fill="none" stroke="#000000" d="M1284.2928,-177.8273C1288.4218,-172.18 1292.7537,-165.7897 1296.2172,-159.6 1300.6783,-151.6271 1304.7743,-142.5656 1308.1915,-134.2276"/>
<polygon fill="#000000" stroke="#000000" points="1311.4648,-135.4675 1311.8723,-124.8805 1304.9516,-132.9026 1311.4648,-135.4675"/>
<text text-anchor="middle" x="1316.4672" y="-147" font-family="Times,serif" font-size="14.00" fill="#000000">0.00</text>
</g>
<!-- fmt.Println -->
<g id="node26" class="node">
<title>fmt.Println</title>
<ellipse fill="none" stroke="#000000" cx="1482.2172" cy="-106.8" rx="101.4963" ry="18"/>
<text text-anchor="middle" x="1482.2172" y="-102.6" font-family="Times,serif" font-size="14.00" fill="#000000">fmt.Println,inl_cost=72</text>
</g>
<!-- main.runtimeProf&#45;&gt;fmt.Println -->
<g id="edge9" class="edge">
<title>main.runtimeProf-&gt;fmt.Println</title>
<path fill="none" stroke="#000000" d="M1308.1185,-179.7243C1343.0331,-165.0997 1395.0416,-143.315 1433.1227,-127.3641"/>
<polygon fill="#000000" stroke="#000000" points="1434.6141,-130.5341 1442.4854,-123.4423 1431.9096,-124.0776 1434.6141,-130.5341"/>
<text text-anchor="middle" x="1407.4672" y="-147" font-family="Times,serif" font-size="14.00" fill="#000000">0.00</text>
</g>
<!-- os.Create -->
<g id="node27" class="node">
<title>os.Create</title>
<ellipse fill="none" stroke="#000000" cx="1697.2172" cy="-106.8" rx="95.1585" ry="18"/>
<text text-anchor="middle" x="1697.2172" y="-102.6" font-family="Times,serif" font-size="14.00" fill="#000000">os.Create,inl_cost=72</text>
</g>
<!-- main.runtimeProf&#45;&gt;os.Create -->
<g id="edge10" class="edge">
<title>main.runtimeProf-&gt;os.Create</title>
<path fill="none" stroke="#000000" d="M1329.1414,-183.346C1405.758,-167.4126 1539.6168,-139.575 1623.0586,-122.2222"/>
<polygon fill="#000000" stroke="#000000" points="1623.8994,-125.6223 1632.9773,-120.1595 1622.4741,-118.7689 1623.8994,-125.6223"/>
<text text-anchor="middle" x="1534.4672" y="-147" font-family="Times,serif" font-size="14.00" fill="#000000">0.00</text>
</g>
<!-- main.main -->
<g id="node10" class="node">
<title>main.main</title>
<ellipse fill="none" stroke="#000000" cx="1683.2172" cy="-284.4" rx="52.1456" ry="18"/>
<text text-anchor="middle" x="1683.2172" y="-280.2" font-family="Times,serif" font-size="14.00" fill="#000000">main.main</text>
</g>
<!-- main.main&#45;&gt;main.findFactors -->
<g id="edge20" class="edge">
<title>main.main-&gt;main.findFactors</title>
<path fill="none" stroke="#000000" d="M1631.0601,-283.7029C1488.0094,-281.4866 1091.6381,-273.221 963.7172,-248.4 926.8614,-241.2487 886.8067,-227.1178 856.9996,-215.2731"/>
<polygon fill="#000000" stroke="#000000" points="858.2822,-212.0166 847.699,-211.5196 855.6624,-218.5078 858.2822,-212.0166"/>
<text text-anchor="middle" x="976.4672" y="-235.8" font-family="Times,serif" font-size="14.00" fill="#000000">0.00</text>
</g>
<!-- main.main&#45;&gt;main.findFactors -->
<g id="edge24" class="edge">
<title>main.main-&gt;main.findFactors</title>
<path fill="none" stroke="#000000" d="M1632.2886,-280.2759C1555.4145,-273.9609 1405.1698,-261.2684 1277.7172,-248.4 1141.1252,-234.6088 982.3268,-216.1083 889.6743,-205.0657"/>
<polygon fill="#000000" stroke="#000000" points="889.8823,-201.5658 879.538,-203.856 889.0527,-208.5165 889.8823,-201.5658"/>
<text text-anchor="middle" x="1290.4672" y="-235.8" font-family="Times,serif" font-size="14.00" fill="#000000">0.00</text>
</g>
<!-- main.main&#45;&gt;flag.Int -->
<g id="edge23" class="edge">
<title>main.main-&gt;flag.Int</title>
<path fill="none" stroke="#000000" d="M1634.0153,-278.3296C1544.0843,-267.0379 1347.2312,-241.4137 1182.2172,-213.6 1174.8775,-212.3629 1167.2345,-211.0271 1159.6026,-209.6617"/>
<polygon fill="#000000" stroke="#000000" points="1160.0656,-206.1888 1149.6027,-207.8557 1158.8214,-213.0773 1160.0656,-206.1888"/>
<text text-anchor="middle" x="1414.4672" y="-235.8" font-family="Times,serif" font-size="14.00" fill="#000000">0.00</text>
</g>
<!-- main.main&#45;&gt;main.runtimeProf -->
<g id="edge28" class="edge">
<title>main.main-&gt;main.runtimeProf</title>
<path fill="none" stroke="#000000" d="M1638.6265,-274.8125C1566.2974,-259.2608 1422.9482,-228.439 1337.959,-210.1653"/>
<polygon fill="#000000" stroke="#000000" points="1338.6587,-206.7358 1328.1464,-208.0555 1337.1872,-213.5794 1338.6587,-206.7358"/>
<text text-anchor="middle" x="1526.4672" y="-235.8" font-family="Times,serif" font-size="14.00" fill="#000000">0.00</text>
</g>
<!-- flag.String -->
<g id="node11" class="node">
<title>flag.String</title>
<ellipse fill="none" stroke="#000000" cx="1468.2172" cy="-195.6" rx="100.3347" ry="18"/>
<text text-anchor="middle" x="1468.2172" y="-191.4" font-family="Times,serif" font-size="14.00" fill="#000000">flag.String,inl_cost=63</text>
</g>
<!-- main.main&#45;&gt;flag.String -->
<g id="edge22" class="edge">
<title>main.main-&gt;flag.String</title>
<path fill="none" stroke="#000000" d="M1649.6234,-270.525C1614.3074,-255.9387 1558.3654,-232.8333 1517.9365,-216.1353"/>
<polygon fill="#000000" stroke="#000000" points="1519.1096,-212.833 1508.5308,-212.2505 1516.4374,-219.3029 1519.1096,-212.833"/>
<text text-anchor="middle" x="1607.4672" y="-235.8" font-family="Times,serif" font-size="14.00" fill="#000000">0.00</text>
</g>
<!-- fmt.Printf -->
<g id="node12" class="node">
<title>fmt.Printf</title>
<ellipse fill="none" stroke="#000000" cx="1683.2172" cy="-195.6" rx="96.901" ry="18"/>
<text text-anchor="middle" x="1683.2172" y="-191.4" font-family="Times,serif" font-size="14.00" fill="#000000">fmt.Printf,inl_cost=73</text>
</g>
<!-- main.main&#45;&gt;fmt.Printf -->
<g id="edge26" class="edge">
<title>main.main-&gt;fmt.Printf</title>
<path fill="none" stroke="#000000" d="M1683.2172,-266.0006C1683.2172,-253.8949 1683.2172,-237.8076 1683.2172,-224.0674"/>
<polygon fill="#000000" stroke="#000000" points="1686.7172,-223.672 1683.2172,-213.672 1679.7172,-223.6721 1686.7172,-223.672"/>
<text text-anchor="middle" x="1695.4672" y="-235.8" font-family="Times,serif" font-size="14.00" fill="#000000">0.00</text>
</g>
<!-- flag.Bool -->
<g id="node15" class="node">
<title>flag.Bool</title>
<ellipse fill="none" stroke="#000000" cx="1893.2172" cy="-195.6" rx="95.1816" ry="18"/>
<text text-anchor="middle" x="1893.2172" y="-191.4" font-family="Times,serif" font-size="14.00" fill="#000000">flag.Bool,inl_cost=63</text>
</g>
<!-- main.main&#45;&gt;flag.Bool -->
<g id="edge27" class="edge">
<title>main.main-&gt;flag.Bool</title>
<path fill="none" stroke="#000000" d="M1716.4923,-270.3294C1750.9297,-255.7672 1805.0846,-232.8675 1844.375,-216.2533"/>
<polygon fill="#000000" stroke="#000000" points="1846.1755,-219.292 1854.0227,-212.1736 1843.4492,-212.8447 1846.1755,-219.292"/>
<text text-anchor="middle" x="1819.4672" y="-235.8" font-family="Times,serif" font-size="14.00" fill="#000000">0.00</text>
</g>
<!-- flag.Parse -->
<g id="node16" class="node">
<title>flag.Parse</title>
<ellipse fill="none" stroke="#000000" cx="2104.2172" cy="-195.6" rx="97.4439" ry="18"/>
<text text-anchor="middle" x="2104.2172" y="-191.4" font-family="Times,serif" font-size="14.00" fill="#000000">flag.Parse,inl_cost=62</text>
</g>
<!-- main.main&#45;&gt;flag.Parse -->
<g id="edge19" class="edge">
<title>main.main-&gt;flag.Parse</title>
<path fill="none" stroke="#000000" d="M1727.873,-274.9809C1799.9046,-259.7875 1942.4946,-229.7115 2029.9916,-211.2561"/>
<polygon fill="#000000" stroke="#000000" points="2030.7929,-214.6642 2039.8552,-209.1756 2029.3481,-207.8149 2030.7929,-214.6642"/>
<text text-anchor="middle" x="1944.4672" y="-235.8" font-family="Times,serif" font-size="14.00" fill="#000000">0.00</text>
</g>
<!-- flag.Uint64 -->
<g id="node17" class="node">
<title>flag.Uint64</title>
<ellipse fill="none" stroke="#000000" cx="2323.2172" cy="-195.6" rx="103.268" ry="18"/>
<text text-anchor="middle" x="2323.2172" y="-191.4" font-family="Times,serif" font-size="14.00" fill="#000000">flag.Uint64,inl_cost=63</text>
</g>
<!-- main.main&#45;&gt;flag.Uint64 -->
<g id="edge21" class="edge">
<title>main.main-&gt;flag.Uint64</title>
<path fill="none" stroke="#000000" d="M1732.3271,-278.2884C1825.5841,-266.575 2034.6853,-239.7948 2210.2172,-213.6 2219.0188,-212.2865 2228.2002,-210.8816 2237.3589,-209.4573"/>
<polygon fill="#000000" stroke="#000000" points="2237.93,-212.9107 2247.2692,-207.9078 2236.8486,-205.9947 2237.93,-212.9107"/>
<text text-anchor="middle" x="2093.4672" y="-235.8" font-family="Times,serif" font-size="14.00" fill="#000000">0.00</text>
</g>
<!-- main.httpProf -->
<g id="node22" class="node">
<title>main.httpProf</title>
<ellipse fill="none" stroke="#000000" cx="2509.2172" cy="-195.6" rx="64.3249" ry="18"/>
<text text-anchor="middle" x="2509.2172" y="-191.4" font-family="Times,serif" font-size="14.00" fill="#000000">main.httpProf</text>
</g>
<!-- main.main&#45;&gt;main.httpProf -->
<g id="edge29" class="edge">
<title>main.main-&gt;main.httpProf</title>
<path fill="none" stroke="#000000" d="M1735.1023,-282.3262C1857.7009,-276.8163 2174.5819,-259.0049 2435.2172,-213.6 2440.6716,-212.6498 2446.3217,-211.5288 2451.9574,-210.3184"/>
<polygon fill="#000000" stroke="#000000" points="2453.0472,-213.6611 2462.0407,-208.0605 2451.5176,-206.8302 2453.0472,-213.6611"/>
<text text-anchor="middle" x="2325.4672" y="-235.8" font-family="Times,serif" font-size="14.00" fill="#000000">0.00</text>
</g>
<!-- fmt.Sprintf -->
<g id="node28" class="node">
<title>fmt.Sprintf</title>
<ellipse fill="none" stroke="#000000" cx="2645.2172" cy="-195.6" rx="53.8676" ry="18"/>
<text text-anchor="middle" x="2645.2172" y="-191.4" font-family="Times,serif" font-size="14.00" fill="#000000">fmt.Sprintf</text>
</g>
<!-- main.main&#45;&gt;fmt.Sprintf -->
<g id="edge25" class="edge">
<title>main.main-&gt;fmt.Sprintf</title>
<path fill="none" stroke="#000000" d="M1735.3704,-283.1192C1846.8214,-280.0369 2116.3705,-270.7401 2341.2172,-248.4 2448.9089,-237.7001 2476.392,-236.2503 2582.2172,-213.6 2586.59,-212.6641 2591.1055,-211.5911 2595.6166,-210.4453"/>
<polygon fill="#000000" stroke="#000000" points="2596.6586,-213.79 2605.4285,-207.8454 2594.8656,-207.0236 2596.6586,-213.79"/>
<text text-anchor="middle" x="2499.4672" y="-235.8" font-family="Times,serif" font-size="14.00" fill="#000000">0.00</text>
</g>
<!-- log.Println -->
<g id="node13" class="node">
<title>log.Println</title>
<ellipse fill="none" stroke="#000000" cx="2373.2172" cy="-18" rx="100.356" ry="18"/>
<text text-anchor="middle" x="2373.2172" y="-13.8" font-family="Times,serif" font-size="14.00" fill="#000000">log.Println,inl_cost=77</text>
</g>
<!-- net/http.ListenAndServe -->
<g id="node14" class="node">
<title>net/http.ListenAndServe</title>
<ellipse fill="none" stroke="#000000" cx="2645.2172" cy="-18" rx="153.6079" ry="18"/>
<text text-anchor="middle" x="2645.2172" y="-13.8" font-family="Times,serif" font-size="14.00" fill="#000000">net/http.ListenAndServe,inl_cost=70</text>
</g>
<!-- main.httpProf.func1 -->
<g id="node19" class="node">
<title>main.httpProf.func1</title>
<ellipse fill="none" stroke="#000000" cx="2509.2172" cy="-106.8" rx="88.6275" ry="18"/>
<text text-anchor="middle" x="2509.2172" y="-102.6" font-family="Times,serif" font-size="14.00" fill="#000000">main.httpProf.func1</text>
</g>
<!-- main.httpProf.func1&#45;&gt;log.Println -->
<g id="edge17" class="edge">
<title>main.httpProf.func1-&gt;log.Println</title>
<path fill="none" stroke="#000000" d="M2482.6721,-89.4677C2461.5603,-75.6829 2431.8277,-56.2692 2408.6782,-41.154"/>
<polygon fill="#000000" stroke="#000000" points="2410.4467,-38.1287 2400.16,-35.5921 2406.6197,-43.9899 2410.4467,-38.1287"/>
<text text-anchor="middle" x="2466.4672" y="-58.2" font-family="Times,serif" font-size="14.00" fill="#000000">0.00</text>
</g>
<!-- main.httpProf.func1&#45;&gt;net/http.ListenAndServe -->
<g id="edge18" class="edge">
<title>main.httpProf.func1-&gt;net/http.ListenAndServe</title>
<path fill="none" stroke="#000000" d="M2535.7622,-89.4677C2556.7369,-75.7724 2586.2208,-56.5211 2609.3043,-41.449"/>
<polygon fill="#000000" stroke="#000000" points="2611.3471,-44.2952 2617.8068,-35.8974 2607.52,-38.434 2611.3471,-44.2952"/>
<text text-anchor="middle" x="2602.4672" y="-58.2" font-family="Times,serif" font-size="14.00" fill="#000000">0.00</text>
</g>
<!-- main.httpProf&#45;&gt;main.httpProf.func1 -->
<g id="edge16" class="edge">
<title>main.httpProf-&gt;main.httpProf.func1</title>
<path fill="none" stroke="#000000" d="M2509.2172,-177.2006C2509.2172,-165.0949 2509.2172,-149.0076 2509.2172,-135.2674"/>
<polygon fill="#000000" stroke="#000000" points="2512.7172,-134.872 2509.2172,-124.872 2505.7172,-134.8721 2512.7172,-134.872"/>
<text text-anchor="middle" x="2521.4672" y="-147" font-family="Times,serif" font-size="14.00" fill="#000000">0.00</text>
</g>
<!-- main.runtimeProf.func1 -->
<g id="node23" class="node">
<title>main.runtimeProf.func1</title>
<ellipse fill="none" stroke="#000000" cx="3207.2172" cy="-284.4" rx="103.6547" ry="18"/>
<text text-anchor="middle" x="3207.2172" y="-280.2" font-family="Times,serif" font-size="14.00" fill="#000000">main.runtimeProf.func1</text>
</g>
</g>
</svg>