<?xml version="1.0" encoding="UTF-8" standalone="no"?><!DOCTYPE svg PUBLIC "-//W3C//DTD SVG 1.1//EN" "http://www.w3.org/Graphics/SVG/1.1/DTD/svg11.dtd"><!-- Generated by graphviz version 2.40.1 (20161225.0304)
 --><!-- Title: G Pages: 1 --><svg xmlns="http://www.w3.org/2000/svg" xmlns:xlink="http://www.w3.org/1999/xlink" width="2942pt" height="310pt" viewBox="0.00 0.00 2942.01 310.40">
<g id="graph0" class="graph" transform="scale(1 1) rotate(0) translate(4 306.4)">
<title>G</title>
<polygon fill="#ffffff" stroke="transparent" points="-4,4 -4,-306.4 2938.005,-306.4 2938.005,4 -4,4"/>
<!-- fmt.Println -->
<g id="node1" class="node">
<title>fmt.Println</title>
<ellipse fill="none" stroke="#000000" cx="1386.1778" cy="-106.8" rx="101.4963" ry="18"/>
<text text-anchor="middle" x="1386.1778" y="-102.6" font-family="Times,serif" font-size="14.00" fill="#000000">fmt.Println,inl_cost=72</text>
</g>
<!-- main.httpProf.func1 -->
<g id="node2" class="node">
<title>main.httpProf.func1</title>
<ellipse fill="none" stroke="#000000" cx="372.1778" cy="-106.8" rx="88.6275" ry="18"/>
<text text-anchor="middle" x="372.1778" y="-102.6" font-family="Times,serif" font-size="14.00" fill="#000000">main.httpProf.func1</text>
</g>
<!-- log.Println -->
<g id="node3" class="node">
<title>log.Println</title>
<ellipse fill="none" stroke="#000000" cx="100.1778" cy="-18" rx="100.356" ry="18"/>
<text text-anchor="middle" x="100.1778" y="-13.8" font-family="Times,serif" font-size="14.00" fill="#000000">log.Println,inl_cost=77</text>
</g>
<!-- main.httpProf.func1&#45;&gt;log.Println -->
<g id="edge18" class="edge">
<title>main.httpProf.func1-&gt;log.Println</title>
<path fill="none" stroke="#000000" d="M325.1096,-91.4336C278.7816,-76.3089 207.9362,-53.18 158.1601,-36.9295"/>
<polygon fill="#000000" stroke="#000000" points="159.0918,-33.5519 148.4993,-33.7755 156.9193,-40.2063 159.0918,-33.5519"/>
<text text-anchor="middle" x="273.4278" y="-58.2" font-family="Times,serif" font-size="14.00" fill="#000000">0.00</text>
</g>
<!-- net/http.ListenAndServe -->
<g id="node23" class="node">
<title>net/http.ListenAndServe</title>
<ellipse fill="none" stroke="#000000" cx="372.1778" cy="-18" rx="153.6079" ry="18"/>
<text text-anchor="middle" x="372.1778" y="-13.8" font-family="Times,serif" font-size="14.00" fill="#000000">net/http.ListenAndServe,inl_cost=70</text>
</g>
<!-- main.httpProf.func1&#45;&gt;net/http.ListenAndServe -->
<g id="edge19" class="edge">
<title>main.httpProf.func1-&gt;net/http.ListenAndServe</title>
<path fill="none" stroke="#000000" d="M372.1778,-88.4006C372.1778,-76.2949 372.1778,-60.2076 372.1778,-46.4674"/>
<polygon fill="#000000" stroke="#000000" points="375.6779,-46.072 372.1778,-36.072 368.6779,-46.0721 375.6779,-46.072"/>
<text text-anchor="middle" x="384.4278" y="-58.2" font-family="Times,serif" font-size="14.00" fill="#000000">0.00</text>
</g>
<!-- fmt.Sprintf -->
<g id="node4" class="node">
<title>fmt.Sprintf</title>
<ellipse fill="none" stroke="#000000" cx="513.1778" cy="-195.6" rx="53.8676" ry="18"/>
<text text-anchor="middle" x="513.1778" y="-191.4" font-family="Times,serif" font-size="14.00" fill="#000000">fmt.Sprintf</text>
</g>
<!-- main.httpProf -->
<g id="node5" class="node">
<title>main.httpProf</title>
<ellipse fill="none" stroke="#000000" cx="649.1778" cy="-195.6" rx="64.3249" ry="18"/>
<text text-anchor="middle" x="649.1778" y="-191.4" font-family="Times,serif" font-size="14.00" fill="#000000">main.httpProf</text>
</g>
<!-- main.httpProf&#45;&gt;main.httpProf.func1 -->
<g id="edge17" class="edge">
<title>main.httpProf-&gt;main.httpProf.func1</title>
<path fill="none" stroke="#000000" d="M606.806,-182.0165C559.2954,-166.7857 482.005,-142.0081 429.2133,-125.0843"/>
<polygon fill="#000000" stroke="#000000" points="430.2449,-121.7396 419.6537,-122.0197 428.1079,-128.4055 430.2449,-121.7396"/>
<text text-anchor="middle" x="548.4278" y="-147" font-family="Times,serif" font-size="14.00" fill="#000000">0.00</text>
</g>
<!-- math.Ceil -->
<g id="node6" class="node">
<title>math.Ceil</title>
<ellipse fill="none" stroke="#000000" cx="898.1778" cy="-106.8" rx="96.9029" ry="18"/>
<text text-anchor="middle" x="898.1778" y="-102.6" font-family="Times,serif" font-size="14.00" fill="#000000">math.Ceil,inl_cost=61</text>
</g>
<!-- main.isSquare -->
<g id="node7" class="node">
<title>main.isSquare</title>
<ellipse fill="none" stroke="#000000" cx="1079.1778" cy="-106.8" rx="66.0289" ry="18"/>
<text text-anchor="middle" x="1079.1778" y="-102.6" font-family="Times,serif" font-size="14.00" fill="#000000">main.isSquare</text>
</g>
<!-- strconv.Itoa -->
<g id="node8" class="node">
<title>strconv.Itoa</title>
<ellipse fill="none" stroke="#000000" cx="654.1778" cy="-18" rx="109.6293" ry="18"/>
<text text-anchor="middle" x="654.1778" y="-13.8" font-family="Times,serif" font-size="14.00" fill="#000000">strconv.Itoa,inl_cost=117</text>
</g>
<!-- main.isSquare&#45;&gt;strconv.Itoa -->
<g id="edge4" class="edge">
<title>main.isSquare-&gt;strconv.Itoa</title>
<path fill="none" stroke="#ff0000" d="M1030.0175,-94.7342C1021.4172,-92.6998 1012.5458,-90.6499 1004.1778,-88.8 912.586,-68.552 806.996,-47.5059 735.9517,-33.6786"/>
<polygon fill="#ff0000" stroke="#ff0000" points="736.2102,-30.1634 725.7262,-31.6918 734.8751,-37.0349 736.2102,-30.1634"/>
<text text-anchor="middle" x="930.4278" y="-58.2" font-family="Times,serif" font-size="14.00" fill="#000000">0.24</text>
</g>
<!-- main.NewExpensive -->
<g id="node14" class="node">
<title>main.NewExpensive</title>
<ellipse fill="none" stroke="#000000" cx="873.1778" cy="-18" rx="91.4348" ry="18"/>
<text text-anchor="middle" x="873.1778" y="-13.8" font-family="Times,serif" font-size="14.00" fill="#000000">main.NewExpensive</text>
</g>
<!-- main.isSquare&#45;&gt;main.NewExpensive -->
<g id="edge2" class="edge">
<title>main.isSquare-&gt;main.NewExpensive</title>
<path fill="none" stroke="#ff0000" d="M1043.7652,-91.5347C1009.7235,-76.8605 958.0471,-54.5844 920.4924,-38.3958"/>
<polygon fill="#ff0000" stroke="#ff0000" points="921.8368,-35.164 911.2681,-34.4195 919.0658,-41.5922 921.8368,-35.164"/>
<text text-anchor="middle" x="1007.4278" y="-58.2" font-family="Times,serif" font-size="14.00" fill="#000000">0.06</text>
</g>
<!-- os.Setenv -->
<g id="node22" class="node">
<title>os.Setenv</title>
<ellipse fill="none" stroke="#000000" cx="1079.1778" cy="-18" rx="96.3253" ry="18"/>
<text text-anchor="middle" x="1079.1778" y="-13.8" font-family="Times,serif" font-size="14.00" fill="#000000">os.Setenv,inl_cost=90</text>
</g>
<!-- main.isSquare&#45;&gt;os.Setenv -->
<g id="edge3" class="edge">
<title>main.isSquare-&gt;os.Setenv</title>
<path fill="none" stroke="#ff0000" d="M1079.1778,-88.4006C1079.1778,-76.2949 1079.1778,-60.2076 1079.1778,-46.4674"/>
<polygon fill="#ff0000" stroke="#ff0000" points="1082.6779,-46.072 1079.1778,-36.072 1075.6779,-46.0721 1082.6779,-46.072"/>
<text text-anchor="middle" x="1091.4278" y="-58.2" font-family="Times,serif" font-size="14.00" fill="#000000">0.17</text>
</g>
<!-- math.Sqrt -->
<g id="node26" class="node">
<title>math.Sqrt</title>
<ellipse fill="none" stroke="#000000" cx="1286.1778" cy="-18" rx="92.248" ry="18"/>
<text text-anchor="middle" x="1286.1778" y="-13.8" font-family="Times,serif" font-size="14.00" fill="#000000">math.Sqrt,inl_cost=4</text>
</g>
<!-- main.isSquare&#45;&gt;math.Sqrt -->
<g id="edge1" class="edge">
<title>main.isSquare-&gt;math.Sqrt</title>
<path fill="none" stroke="#ff0000" d="M1095.9694,-89.1958C1107.961,-77.5992 1125.0351,-62.9558 1142.6778,-54 1161.8567,-44.2644 1183.8426,-37.0461 1204.747,-31.7398"/>
<polygon fill="#ff0000" stroke="#ff0000" points="1205.6858,-35.1137 1214.5822,-29.3602 1204.0396,-28.31 1205.6858,-35.1137"/>
<text text-anchor="middle" x="1155.4278" y="-58.2" font-family="Times,serif" font-size="14.00" fill="#000000">0.18</text>
</g>
<!-- fmt.Printf -->
<g id="node9" class="node">
<title>fmt.Printf</title>
<ellipse fill="none" stroke="#000000" cx="828.1778" cy="-195.6" rx="96.901" ry="18"/>
<text text-anchor="middle" x="828.1778" y="-191.4" font-family="Times,serif" font-size="14.00" fill="#000000">fmt.Printf,inl_cost=73</text>
</g>
<!-- runtime/pprof.StartCPUProfile -->
<g id="node10" class="node">
<title>runtime/pprof.StartCPUProfile</title>
<ellipse fill="none" stroke="#000000" cx="1636.1778" cy="-106.8" rx="130.2696" ry="18"/>
<text text-anchor="middle" x="1636.1778" y="-102.6" font-family="Times,serif" font-size="14.00" fill="#000000">runtime/pprof.StartCPUProfile</text>
</g>
<!-- flag.Int -->
<g id="node11" class="node">
<title>flag.Int</title>
<ellipse fill="none" stroke="#000000" cx="1030.1778" cy="-195.6" rx="87.0741" ry="18"/>
<text text-anchor="middle" x="1030.1778" y="-191.4" font-family="Times,serif" font-size="14.00" fill="#000000">flag.Int,inl_cost=63</text>
</g>
<!-- main.findFactors -->
<g id="node12" class="node">
<title>main.findFactors</title>
<ellipse fill="none" stroke="#000000" cx="1212.1778" cy="-195.6" rx="76.9835" ry="18"/>
<text text-anchor="middle" x="1212.1778" y="-191.4" font-family="Times,serif" font-size="14.00" fill="#000000">main.findFactors</text>
</g>
<!-- main.findFactors&#45;&gt;math.Ceil -->
<g id="edge5" class="edge">
<title>main.findFactors-&gt;math.Ceil</title>
<path fill="none" stroke="#000000" d="M1153.8535,-183.7349C1124.0083,-177.2937 1087.2064,-168.7796 1054.6778,-159.6 1019.9396,-149.7968 981.5256,-136.8684 951.4494,-126.2584"/>
<polygon fill="#000000" stroke="#000000" points="952.5873,-122.9485 941.9926,-122.902 950.2459,-129.5453 952.5873,-122.9485"/>
<text text-anchor="middle" x="1067.4278" y="-147" font-family="Times,serif" font-size="14.00" fill="#000000">0.00</text>
</g>
<!-- main.findFactors&#45;&gt;main.isSquare -->
<g id="edge7" class="edge">
<title>main.findFactors-&gt;main.isSquare</title>
<path fill="none" stroke="#ff0000" d="M1153.5722,-183.9018C1127.4833,-177.562 1100.6319,-169.0876 1091.6778,-159.6 1085.4042,-152.9525 1082.0906,-143.7589 1080.3944,-134.9041"/>
<polygon fill="#ff0000" stroke="#ff0000" points="1083.8443,-134.294 1079.0657,-124.838 1076.9045,-135.21 1083.8443,-134.294"/>
<text text-anchor="middle" x="1104.4278" y="-147" font-family="Times,serif" font-size="14.00" fill="#000000">0.29</text>
</g>
<!-- main.findFactors&#45;&gt;main.isSquare -->
<g id="edge8" class="edge">
<title>main.findFactors-&gt;main.isSquare</title>
<path fill="none" stroke="#ff0000" d="M1177.4065,-179.4423C1166.0389,-173.6776 1153.5479,-166.8121 1142.6778,-159.6 1129.7956,-151.0529 1116.4997,-140.3385 1105.4242,-130.799"/>
<polygon fill="#ff0000" stroke="#ff0000" points="1107.617,-128.0669 1097.7895,-124.1082 1103.0033,-133.3314 1107.617,-128.0669"/>
<text text-anchor="middle" x="1155.4278" y="-147" font-family="Times,serif" font-size="14.00" fill="#000000">0.28</text>
</g>
<!-- main.findFactors&#45;&gt;math.Sqrt -->
<g id="edge6" class="edge">
<title>main.findFactors-&gt;math.Sqrt</title>
<path fill="none" stroke="#000000" d="M1203.8813,-177.5851C1195.0927,-155.8318 1183.9773,-118.4711 1195.6778,-88.8 1203.9164,-67.908 1222.4106,-51.699 1240.5471,-40.0945"/>
<polygon fill="#000000" stroke="#000000" points="1242.6217,-42.9306 1249.3753,-34.7673 1239.005,-36.9372 1242.6217,-42.9306"/>
<text text-anchor="middle" x="1208.4278" y="-102.6" font-family="Times,serif" font-size="14.00" fill="#000000">0.00</text>
</g>
<!-- main.findFactors&#45;&gt;math.Sqrt -->
<g id="edge9" class="edge">
<title>main.findFactors-&gt;math.Sqrt</title>
<path fill="none" stroke="#000000" d="M1218.2144,-177.6243C1225.5403,-156.2258 1238.5494,-119.5224 1251.6778,-88.8 1257.947,-74.1293 1265.6683,-58.1242 1272.2157,-45.0486"/>
<polygon fill="#000000" stroke="#000000" points="1275.3483,-46.6096 1276.7382,-36.1064 1269.1018,-43.4504 1275.3483,-46.6096"/>
<text text-anchor="middle" x="1264.4278" y="-102.6" font-family="Times,serif" font-size="14.00" fill="#000000">0.00</text>
</g>
<!-- main.runtimeProf -->
<g id="node13" class="node">
<title>main.runtimeProf</title>
<ellipse fill="none" stroke="#000000" cx="1386.1778" cy="-195.6" rx="79.3521" ry="18"/>
<text text-anchor="middle" x="1386.1778" y="-191.4" font-family="Times,serif" font-size="14.00" fill="#000000">main.runtimeProf</text>
</g>
<!-- main.runtimeProf&#45;&gt;fmt.Println -->
<g id="edge11" class="edge">
<title>main.runtimeProf-&gt;fmt.Println</title>
<path fill="none" stroke="#000000" d="M1386.1778,-177.2006C1386.1778,-165.0949 1386.1778,-149.0076 1386.1778,-135.2674"/>
<polygon fill="#000000" stroke="#000000" points="1389.6779,-134.872 1386.1778,-124.872 1382.6779,-134.8721 1389.6779,-134.872"/>
<text text-anchor="middle" x="1398.4278" y="-147" font-family="Times,serif" font-size="14.00" fill="#000000">0.00</text>
</g>
<!-- main.runtimeProf&#45;&gt;runtime/pprof.StartCPUProfile -->
<g id="edge14" class="edge">
<title>main.runtimeProf-&gt;runtime/pprof.StartCPUProfile</title>
<path fill="none" stroke="#000000" d="M1429.1544,-180.3347C1470.6012,-165.6128 1533.5887,-143.2397 1579.2007,-127.0383"/>
<polygon fill="#000000" stroke="#000000" points="1580.4044,-130.325 1588.6561,-123.6797 1578.0614,-123.7288 1580.4044,-130.325"/>
<text text-anchor="middle" x="1546.4278" y="-147" font-family="Times,serif" font-size="14.00" fill="#000000">0.00</text>
</g>
<!-- log.Fatal -->
<g id="node16" class="node">
<title>log.Fatal</title>
<ellipse fill="none" stroke="#000000" cx="1829.1778" cy="-106.8" rx="45.2011" ry="18"/>
<text text-anchor="middle" x="1829.1778" y="-102.6" font-family="Times,serif" font-size="14.00" fill="#000000">log.Fatal</text>
</g>
<!-- main.runtimeProf&#45;&gt;log.Fatal -->
<g id="edge10" class="edge">
<title>main.runtimeProf-&gt;log.Fatal</title>
<path fill="none" stroke="#000000" d="M1445.0211,-183.4802C1455.0738,-181.4724 1465.4193,-179.4453 1475.1778,-177.6 1608.2032,-152.446 1643.9366,-158.0296 1775.1778,-124.8 1778.5862,-123.937 1782.0901,-122.9663 1785.5973,-121.9343"/>
<polygon fill="#000000" stroke="#000000" points="1786.8911,-125.1979 1795.4131,-118.9029 1784.8255,-118.5096 1786.8911,-125.1979"/>
<text text-anchor="middle" x="1707.4278" y="-147" font-family="Times,serif" font-size="14.00" fill="#000000">0.00</text>
</g>
<!-- main.runtimeProf&#45;&gt;log.Fatal -->
<g id="edge13" class="edge">
<title>main.runtimeProf-&gt;log.Fatal</title>
<path fill="none" stroke="#000000" d="M1442.9689,-182.9951C1453.6301,-180.9475 1464.7133,-179.0321 1475.1778,-177.6 1584.6695,-162.6161 1616.5901,-188.7889 1723.1778,-159.6 1748.9715,-152.5365 1775.9202,-139.019 1796.1906,-127.4301"/>
<polygon fill="#000000" stroke="#000000" points="1798.143,-130.3429 1805.006,-122.2713 1794.6074,-124.3013 1798.143,-130.3429"/>
<text text-anchor="middle" x="1778.4278" y="-147" font-family="Times,serif" font-size="14.00" fill="#000000">0.00</text>
</g>
<!-- os.Create -->
<g id="node20" class="node">
<title>os.Create</title>
<ellipse fill="none" stroke="#000000" cx="1987.1778" cy="-106.8" rx="95.1585" ry="18"/>
<text text-anchor="middle" x="1987.1778" y="-102.6" font-family="Times,serif" font-size="14.00" fill="#000000">os.Create,inl_cost=72</text>
</g>
<!-- main.runtimeProf&#45;&gt;os.Create -->
<g id="edge12" class="edge">
<title>main.runtimeProf-&gt;os.Create</title>
<path fill="none" stroke="#000000" d="M1442.9506,-182.8574C1453.6136,-180.8231 1464.7021,-178.9478 1475.1778,-177.6 1616.0201,-159.4787 1654.027,-182.4625 1794.1778,-159.6 1840.9146,-151.9759 1892.6024,-137.5 1930.7162,-125.6311"/>
<polygon fill="#000000" stroke="#000000" points="1932.1095,-128.8618 1940.5955,-122.5185 1930.0059,-122.1853 1932.1095,-128.8618"/>
<text text-anchor="middle" x="1882.4278" y="-147" font-family="Times,serif" font-size="14.00" fill="#000000">0.00</text>
</g>
<!-- flag.String -->
<g id="node15" class="node">
<title>flag.String</title>
<ellipse fill="none" stroke="#000000" cx="1584.1778" cy="-195.6" rx="100.3347" ry="18"/>
<text text-anchor="middle" x="1584.1778" y="-191.4" font-family="Times,serif" font-size="14.00" fill="#000000">flag.String,inl_cost=63</text>
</g>
<!-- main.runtimeProf.func2 -->
<g id="node17" class="node">
<title>main.runtimeProf.func2</title>
<ellipse fill="none" stroke="#000000" cx="2604.1778" cy="-284.4" rx="103.6547" ry="18"/>
<text text-anchor="middle" x="2604.1778" y="-280.2" font-family="Times,serif" font-size="14.00" fill="#000000">main.runtimeProf.func2</text>
</g>
<!-- os.(*File).Close -->
<g id="node18" class="node">
<title>os.(*File).Close</title>
<ellipse fill="none" stroke="#000000" cx="2470.1778" cy="-195.6" rx="120.6394" ry="18"/>
<text text-anchor="middle" x="2470.1778" y="-191.4" font-family="Times,serif" font-size="14.00" fill="#000000">os.(*File).Close,inl_cost=67</text>
</g>
<!-- main.runtimeProf.func2&#45;&gt;os.(*File).Close -->
<g id="edge15" class="edge">
<title>main.runtimeProf.func2-&gt;os.(*File).Close</title>
<path fill="none" stroke="#000000" d="M2577.7037,-266.856C2557.0082,-253.1413 2528.0493,-233.9506 2505.3978,-218.9398"/>
<polygon fill="#000000" stroke="#000000" points="2507.3248,-216.018 2497.0556,-213.4115 2503.458,-221.8531 2507.3248,-216.018"/>
<text text-anchor="middle" x="2562.4278" y="-235.8" font-family="Times,serif" font-size="14.00" fill="#000000">0.00</text>
</g>
<!-- runtime/pprof.StopCPUProfile -->
<g id="node21" class="node">
<title>runtime/pprof.StopCPUProfile</title>
<ellipse fill="none" stroke="#000000" cx="2739.1778" cy="-195.6" rx="129.7132" ry="18"/>
<text text-anchor="middle" x="2739.1778" y="-191.4" font-family="Times,serif" font-size="14.00" fill="#000000">runtime/pprof.StopCPUProfile</text>
</g>
<!-- main.runtimeProf.func2&#45;&gt;runtime/pprof.StopCPUProfile -->
<g id="edge16" class="edge">
<title>main.runtimeProf.func2-&gt;runtime/pprof.StopCPUProfile</title>
<path fill="none" stroke="#000000" d="M2630.8495,-266.856C2651.6995,-253.1413 2680.8745,-233.9506 2703.695,-218.9398"/>
<polygon fill="#000000" stroke="#000000" points="2705.6683,-221.8312 2712.0995,-213.4115 2701.8214,-215.9829 2705.6683,-221.8312"/>
<text text-anchor="middle" x="2696.4278" y="-235.8" font-family="Times,serif" font-size="14.00" fill="#000000">0.00</text>
</g>
<!-- flag.Parse -->
<g id="node19" class="node">
<title>flag.Parse</title>
<ellipse fill="none" stroke="#000000" cx="1800.1778" cy="-195.6" rx="97.4439" ry="18"/>
<text text-anchor="middle" x="1800.1778" y="-191.4" font-family="Times,serif" font-size="14.00" fill="#000000">flag.Parse,inl_cost=62</text>
</g>
<!-- flag.Uint64 -->
<g id="node24" class="node">
<title>flag.Uint64</title>
<ellipse fill="none" stroke="#000000" cx="2019.1778" cy="-195.6" rx="103.268" ry="18"/>
<text text-anchor="middle" x="2019.1778" y="-191.4" font-family="Times,serif" font-size="14.00" fill="#000000">flag.Uint64,inl_cost=63</text>
</g>
<!-- flag.Bool -->
<g id="node25" class="node">
<title>flag.Bool</title>
<ellipse fill="none" stroke="#000000" cx="2236.1778" cy="-195.6" rx="95.1816" ry="18"/>
<text text-anchor="middle" x="2236.1778" y="-191.4" font-family="Times,serif" font-size="14.00" fill="#000000">flag.Bool,inl_cost=63</text>
</g>
<!-- main.runtimeProf.func1 -->
<g id="node27" class="node">
<title>main.runtimeProf.func1</title>
<ellipse fill="none" stroke="#000000" cx="2830.1778" cy="-284.4" rx="103.6547" ry="18"/>
<text text-anchor="middle" x="2830.1778" y="-280.2" font-family="Times,serif" font-size="14.00" fill="#000000">main.runtimeProf.func1</text>
</g>
<!-- main.main -->
<g id="node28" class="node">
<title>main.main</title>
<ellipse fill="none" stroke="#000000" cx="1260.1778" cy="-284.4" rx="52.1456" ry="18"/>
<text text-anchor="middle" x="1260.1778" y="-280.2" font-family="Times,serif" font-size="14.00" fill="#000000">main.main</text>
</g>
<!-- main.main&#45;&gt;fmt.Sprintf -->
<g id="edge25" class="edge">
<title>main.main-&gt;fmt.Sprintf</title>
<path fill="none" stroke="#000000" d="M1208.0879,-282.8854C1092.9093,-278.6949 808.4088,-263.7066 576.1778,-213.6 571.8066,-212.6568 567.2922,-211.5789 562.7817,-210.4298"/>
<polygon fill="#000000" stroke="#000000" points="563.5341,-207.0083 552.9708,-207.8252 561.7379,-213.774 563.5341,-207.0083"/>
<text text-anchor="middle" x="793.4278" y="-235.8" font-family="Times,serif" font-size="14.00" fill="#000000">0.00</text>
</g>
<!-- main.main&#45;&gt;main.httpProf -->
<g id="edge23" class="edge">
<title>main.main-&gt;main.httpProf</title>
<path fill="none" stroke="#000000" d="M1209.8027,-279.7311C1114.1963,-270.4371 900.0826,-247.5493 722.1778,-213.6 716.8888,-212.5907 711.4089,-211.4393 705.937,-210.2179"/>
<polygon fill="#000000" stroke="#000000" points="706.6697,-206.795 696.139,-207.959 705.0971,-213.6161 706.6697,-206.795"/>
<text text-anchor="middle" x="941.4278" y="-235.8" font-family="Times,serif" font-size="14.00" fill="#000000">0.00</text>
</g>
<!-- main.main&#45;&gt;fmt.Printf -->
<g id="edge30" class="edge">
<title>main.main-&gt;fmt.Printf</title>
<path fill="none" stroke="#000000" d="M1215.1688,-275.1481C1141.2234,-259.9483 993.2713,-229.5359 903.2572,-211.033"/>
<polygon fill="#000000" stroke="#000000" points="903.8852,-207.589 893.3853,-209.0038 902.4758,-214.4456 903.8852,-207.589"/>
<text text-anchor="middle" x="1095.4278" y="-235.8" font-family="Times,serif" font-size="14.00" fill="#000000">0.00</text>
</g>
<!-- main.main&#45;&gt;flag.Int -->
<g id="edge27" class="edge">
<title>main.main-&gt;flag.Int</title>
<path fill="none" stroke="#000000" d="M1225.2458,-270.9132C1186.925,-256.1181 1125.0566,-232.2315 1081.2827,-215.3309"/>
<polygon fill="#000000" stroke="#000000" points="1082.2688,-211.9599 1071.6793,-211.6232 1079.7475,-218.4901 1082.2688,-211.9599"/>
<text text-anchor="middle" x="1178.4278" y="-235.8" font-family="Times,serif" font-size="14.00" fill="#000000">0.00</text>
</g>
<!-- main.main&#45;&gt;main.findFactors -->
<g id="edge24" class="edge">
<title>main.main-&gt;main.findFactors</title>
<path fill="none" stroke="#000000" d="M1232.1297,-268.9526C1224.8239,-263.4727 1217.8408,-256.5914 1213.6778,-248.4 1209.8801,-240.9274 1208.6032,-232.0596 1208.5311,-223.7457"/>
<polygon fill="#000000" stroke="#000000" points="1212.0318,-223.8049 1208.985,-213.6576 1205.0389,-223.4902 1212.0318,-223.8049"/>
<text text-anchor="middle" x="1226.4278" y="-235.8" font-family="Times,serif" font-size="14.00" fill="#000000">0.00</text>
</g>
<!-- main.main&#45;&gt;main.findFactors -->
<g id="edge29" class="edge">
<title>main.main-&gt;main.findFactors</title>
<path fill="none" stroke="#ff0000" d="M1253.8329,-266.3195C1249.8846,-255.8927 1244.3846,-242.6927 1238.1778,-231.6 1236.3379,-228.3117 1234.2528,-224.9668 1232.0833,-221.7068"/>
<polygon fill="#ff0000" stroke="#ff0000" points="1234.8534,-219.5607 1226.2534,-213.3727 1229.1175,-223.5731 1234.8534,-219.5607"/>
<text text-anchor="middle" x="1258.4278" y="-235.8" font-family="Times,serif" font-size="14.00" fill="#000000">0.22</text>
</g>
<!-- main.main&#45;&gt;main.runtimeProf -->
<g id="edge22" class="edge">
<title>main.main-&gt;main.runtimeProf</title>
<path fill="none" stroke="#000000" d="M1283.2882,-268.1127C1302.8567,-254.3216 1331.1477,-234.3832 1353.1132,-218.9027"/>
<polygon fill="#000000" stroke="#000000" points="1355.3332,-221.6201 1361.4909,-212.9984 1351.3006,-215.8983 1355.3332,-221.6201"/>
<text text-anchor="middle" x="1347.4278" y="-235.8" font-family="Times,serif" font-size="14.00" fill="#000000">0.00</text>
</g>
<!-- main.main&#45;&gt;flag.String -->
<g id="edge20" class="edge">
<title>main.main-&gt;flag.String</title>
<path fill="none" stroke="#000000" d="M1301.2127,-273.1534C1356.2003,-258.0827 1454.3873,-231.1722 1519.4074,-213.3519"/>
<polygon fill="#000000" stroke="#000000" points="1520.4291,-216.701 1529.1483,-210.6822 1518.5788,-209.95 1520.4291,-216.701"/>
<text text-anchor="middle" x="1464.4278" y="-235.8" font-family="Times,serif" font-size="14.00" fill="#000000">0.00</text>
</g>
<!-- main.main&#45;&gt;flag.Parse -->
<g id="edge28" class="edge">
<title>main.main-&gt;flag.Parse</title>
<path fill="none" stroke="#000000" d="M1307.603,-276.7185C1387.2748,-263.7976 1553.032,-236.8455 1693.1778,-213.6 1701.3255,-212.2486 1709.8209,-210.8321 1718.3058,-209.4124"/>
<polygon fill="#000000" stroke="#000000" points="1718.9559,-212.8524 1728.2402,-207.7482 1717.7993,-205.9486 1718.9559,-212.8524"/>
<text text-anchor="middle" x="1587.4278" y="-235.8" font-family="Times,serif" font-size="14.00" fill="#000000">0.00</text>
</g>
<!-- main.main&#45;&gt;flag.Uint64 -->
<g id="edge26" class="edge">
<title>main.main-&gt;flag.Uint64</title>
<path fill="none" stroke="#000000" d="M1310.5489,-279.8136C1419.4493,-269.6929 1684.8532,-243.9227 1906.1778,-213.6 1915.2113,-212.3624 1924.638,-210.9899 1934.0265,-209.5708"/>
<polygon fill="#000000" stroke="#000000" points="1934.8233,-212.9896 1944.1785,-208.0167 1933.7641,-206.0702 1934.8233,-212.9896"/>
<text text-anchor="middle" x="1777.4278" y="-235.8" font-family="Times,serif" font-size="14.00" fill="#000000">0.00</text>
</g>
<!-- main.main&#45;&gt;flag.Bool -->
<g id="edge21" class="edge">
<title>main.main-&gt;flag.Bool</title>
<path fill="none" stroke="#000000" d="M1311.9336,-282.1859C1447.145,-275.9708 1821.9165,-255.9799 2131.1778,-213.6 2139.6984,-212.4324 2148.5879,-211.095 2157.4312,-209.6882"/>
<polygon fill="#000000" stroke="#000000" points="2158.0632,-213.1315 2167.3738,-208.0756 2156.9424,-206.2218 2158.0632,-213.1315"/>
<text text-anchor="middle" x="1978.4278" y="-235.8" font-family="Times,serif" font-size="14.00" fill="#000000">0.00</text>
</g>
</g>
</svg>