<svg id="Layer_1" data-name="Layer 1" xmlns="http://www.w3.org/2000/svg" viewBox="0 0 122.88 122.88"><defs><style>.cls-1{fill:#f26522;}.cls-1,.cls-2{fill-rule:evenodd;}.cls-2{fill:#fff;}</style></defs><title>rss-square-color</title><path class="cls-1" d="M25.2,0H97.68a25.27,25.27,0,0,1,25.2,25.2V97.68a25.27,25.27,0,0,1-25.2,25.2H25.2A25.27,25.27,0,0,1,0,97.68V25.2A25.27,25.27,0,0,1,25.2,0Z"/><path class="cls-2" d="M30.38,30.35V42.27A50.29,50.29,0,0,1,80.57,92.52h12A62.23,62.23,0,0,0,30.38,30.36Z"/><path class="cls-2" d="M30.36,51.48V63.39A29.12,29.12,0,0,1,59.43,92.53h12a41.09,41.09,0,0,0-41-41.05Z"/><path class="cls-2" d="M38.63,75.94a8.26,8.26,0,1,0,8.29,8.26,8.29,8.29,0,0,0-8.29-8.26Z"/></svg>