<?xml version="1.0" encoding="UTF-8" standalone="no"?><!DOCTYPE svg PUBLIC "-//W3C//DTD SVG 1.1//EN" "http://www.w3.org/Graphics/SVG/1.1/DTD/svg11.dtd"><!-- Generated by graphviz version 2.40.1 (20161225.0304)
 --><!-- Title: G Pages: 1 --><svg xmlns="http://www.w3.org/2000/svg" xmlns:xlink="http://www.w3.org/1999/xlink" width="2291pt" height="310pt" viewBox="0.00 0.00 2291.04 310.40">
<g id="graph0" class="graph" transform="scale(1 1) rotate(0) translate(4 306.4)">
<title>G</title>
<polygon fill="#ffffff" stroke="transparent" points="-4,4 -4,-306.4 2287.0367,-306.4 2287.0367,4 -4,4"/>
<!-- main.findFactors -->
<g id="node1" class="node">
<title>main.findFactors</title>
<ellipse fill="none" stroke="#000000" cx="602.2172" cy="-195.6" rx="76.9835" ry="18"/>
<text text-anchor="middle" x="602.2172" y="-191.4" font-family="Times,serif" font-size="14.00" fill="#000000">main.findFactors</text>
</g>
<!-- main.isSquare -->
<g id="node6" class="node">
<title>main.isSquare</title>
<ellipse fill="none" stroke="#000000" cx="420.2172" cy="-106.8" rx="66.0289" ry="18"/>
<text text-anchor="middle" x="420.2172" y="-102.6" font-family="Times,serif" font-size="14.00" fill="#000000">main.isSquare</text>
</g>
<!-- main.findFactors&#45;&gt;main.isSquare -->
<g id="edge5" class="edge">
<title>main.findFactors-&gt;main.isSquare</title>
<path fill="none" stroke="#ff0000" d="M568.8355,-179.3127C538.667,-164.5931 494.1459,-142.8707 461.7001,-127.04"/>
<polygon fill="#ff0000" stroke="#ff0000" points="462.9922,-123.7761 452.4701,-122.5366 459.9227,-130.0673 462.9922,-123.7761"/>
<text text-anchor="middle" x="540.4672" y="-147" font-family="Times,serif" font-size="14.00" fill="#000000">3.92</text>
</g>
<!-- math.Pow -->
<g id="node17" class="node">
<title>math.Pow</title>
<ellipse fill="none" stroke="#000000" cx="602.2172" cy="-106.8" rx="98.0506" ry="18"/>
<text text-anchor="middle" x="602.2172" y="-102.6" font-family="Times,serif" font-size="14.00" fill="#000000">math.Pow,inl_cost=62</text>
</g>
<!-- main.findFactors&#45;&gt;math.Pow -->
<g id="edge6" class="edge">
<title>main.findFactors-&gt;math.Pow</title>
<path fill="none" stroke="#000000" d="M602.2172,-177.2006C602.2172,-165.0949 602.2172,-149.0076 602.2172,-135.2674"/>
<polygon fill="#000000" stroke="#000000" points="605.7172,-134.872 602.2172,-124.872 598.7172,-134.8721 605.7172,-134.872"/>
<text text-anchor="middle" x="614.4672" y="-147" font-family="Times,serif" font-size="14.00" fill="#000000">0.21</text>
</g>
<!-- fmt.Println -->
<g id="node2" class="node">
<title>fmt.Println</title>
<ellipse fill="none" stroke="#000000" cx="819.2172" cy="-106.8" rx="101.4963" ry="18"/>
<text text-anchor="middle" x="819.2172" y="-102.6" font-family="Times,serif" font-size="14.00" fill="#000000">fmt.Println,inl_cost=72</text>
</g>
<!-- main.main -->
<g id="node3" class="node">
<title>main.main</title>
<ellipse fill="none" stroke="#000000" cx="1132.2172" cy="-284.4" rx="52.1456" ry="18"/>
<text text-anchor="middle" x="1132.2172" y="-280.2" font-family="Times,serif" font-size="14.00" fill="#000000">main.main</text>
</g>
<!-- main.main&#45;&gt;main.findFactors -->
<g id="edge18" class="edge">
<title>main.main-&gt;main.findFactors</title>
<path fill="none" stroke="#ff0000" d="M1085.1832,-276.5196C992.442,-260.9811 785.4245,-226.2959 674.9516,-207.7865"/>
<polygon fill="#ff0000" stroke="#ff0000" points="675.3348,-204.302 664.8939,-206.1013 674.1781,-211.2057 675.3348,-204.302"/>
<text text-anchor="middle" x="927.4672" y="-235.8" font-family="Times,serif" font-size="14.00" fill="#000000">0.62</text>
</g>
<!-- flag.String -->
<g id="node4" class="node">
<title>flag.String</title>
<ellipse fill="none" stroke="#000000" cx="861.2172" cy="-195.6" rx="100.3347" ry="18"/>
<text text-anchor="middle" x="861.2172" y="-191.4" font-family="Times,serif" font-size="14.00" fill="#000000">flag.String,inl_cost=63</text>
</g>
<!-- main.main&#45;&gt;flag.String -->
<g id="edge15" class="edge">
<title>main.main-&gt;flag.String</title>
<path fill="none" stroke="#000000" d="M1094.2504,-271.9592C1048.7217,-257.0406 971.9407,-231.8814 919.0287,-214.5434"/>
<polygon fill="#000000" stroke="#000000" points="920.0323,-211.1892 909.4396,-211.4013 917.8525,-217.8412 920.0323,-211.1892"/>
<text text-anchor="middle" x="1033.4672" y="-235.8" font-family="Times,serif" font-size="14.00" fill="#000000">0.00</text>
</g>
<!-- fmt.Printf -->
<g id="node10" class="node">
<title>fmt.Printf</title>
<ellipse fill="none" stroke="#000000" cx="1076.2172" cy="-195.6" rx="96.901" ry="18"/>
<text text-anchor="middle" x="1076.2172" y="-191.4" font-family="Times,serif" font-size="14.00" fill="#000000">fmt.Printf,inl_cost=73</text>
</g>
<!-- main.main&#45;&gt;fmt.Printf -->
<g id="edge19" class="edge">
<title>main.main-&gt;fmt.Printf</title>
<path fill="none" stroke="#000000" d="M1120.8847,-266.43C1112.8389,-253.6716 1101.9061,-236.3353 1092.8706,-222.0077"/>
<polygon fill="#000000" stroke="#000000" points="1095.8275,-220.1348 1087.5327,-213.5433 1089.9065,-223.8688 1095.8275,-220.1348"/>
<text text-anchor="middle" x="1122.4672" y="-235.8" font-family="Times,serif" font-size="14.00" fill="#000000">0.00</text>
</g>
<!-- main.profile -->
<g id="node12" class="node">
<title>main.profile</title>
<ellipse fill="none" stroke="#000000" cx="1249.2172" cy="-195.6" rx="58.5046" ry="18"/>
<text text-anchor="middle" x="1249.2172" y="-191.4" font-family="Times,serif" font-size="14.00" fill="#000000">main.profile</text>
</g>
<!-- main.main&#45;&gt;main.profile -->
<g id="edge17" class="edge">
<title>main.main-&gt;main.profile</title>
<path fill="none" stroke="#000000" d="M1153.9498,-267.9055C1172.3038,-253.9752 1198.7782,-233.8819 1219.1624,-218.4108"/>
<polygon fill="#000000" stroke="#000000" points="1221.3543,-221.1411 1227.2039,-212.3075 1217.1223,-215.5652 1221.3543,-221.1411"/>
<text text-anchor="middle" x="1213.4672" y="-235.8" font-family="Times,serif" font-size="14.00" fill="#000000">0.00</text>
</g>
<!-- flag.Uint64 -->
<g id="node14" class="node">
<title>flag.Uint64</title>
<ellipse fill="none" stroke="#000000" cx="1429.2172" cy="-195.6" rx="103.268" ry="18"/>
<text text-anchor="middle" x="1429.2172" y="-191.4" font-family="Times,serif" font-size="14.00" fill="#000000">flag.Uint64,inl_cost=63</text>
</g>
<!-- main.main&#45;&gt;flag.Uint64 -->
<g id="edge14" class="edge">
<title>main.main-&gt;flag.Uint64</title>
<path fill="none" stroke="#000000" d="M1171.6565,-272.608C1221.6262,-257.6676 1308.3145,-231.7487 1367.1829,-214.1476"/>
<polygon fill="#000000" stroke="#000000" points="1368.5297,-217.3981 1377.1079,-211.1801 1366.5244,-210.6915 1368.5297,-217.3981"/>
<text text-anchor="middle" x="1320.4672" y="-235.8" font-family="Times,serif" font-size="14.00" fill="#000000">0.00</text>
</g>
<!-- flag.Parse -->
<g id="node15" class="node">
<title>flag.Parse</title>
<ellipse fill="none" stroke="#000000" cx="1648.2172" cy="-195.6" rx="97.4439" ry="18"/>
<text text-anchor="middle" x="1648.2172" y="-191.4" font-family="Times,serif" font-size="14.00" fill="#000000">flag.Parse,inl_cost=62</text>
</g>
<!-- main.main&#45;&gt;flag.Parse -->
<g id="edge16" class="edge">
<title>main.main-&gt;flag.Parse</title>
<path fill="none" stroke="#000000" d="M1178.9188,-276.363C1266.7275,-261.2517 1457.4118,-228.4363 1566.7696,-209.6166"/>
<polygon fill="#000000" stroke="#000000" points="1567.5066,-213.0413 1576.7681,-207.8959 1566.3194,-206.1427 1567.5066,-213.0413"/>
<text text-anchor="middle" x="1449.4672" y="-235.8" font-family="Times,serif" font-size="14.00" fill="#000000">0.00</text>
</g>
<!-- main.NewExpensive -->
<g id="node5" class="node">
<title>main.NewExpensive</title>
<ellipse fill="none" stroke="#000000" cx="91.2172" cy="-18" rx="91.4348" ry="18"/>
<text text-anchor="middle" x="91.2172" y="-13.8" font-family="Times,serif" font-size="14.00" fill="#000000">main.NewExpensive</text>
</g>
<!-- main.isSquare&#45;&gt;main.NewExpensive -->
<g id="edge2" class="edge">
<title>main.isSquare-&gt;main.NewExpensive</title>
<path fill="none" stroke="#ff0000" d="M373.0795,-94.0771C315.8208,-78.6225 218.9779,-52.4838 155.0642,-35.2329"/>
<polygon fill="#ff0000" stroke="#ff0000" points="155.6668,-31.7704 145.1002,-32.5435 153.8427,-38.5285 155.6668,-31.7704"/>
<text text-anchor="middle" x="297.4672" y="-58.2" font-family="Times,serif" font-size="14.00" fill="#000000">0.41</text>
</g>
<!-- strconv.Itoa -->
<g id="node7" class="node">
<title>strconv.Itoa</title>
<ellipse fill="none" stroke="#000000" cx="310.2172" cy="-18" rx="109.6293" ry="18"/>
<text text-anchor="middle" x="310.2172" y="-13.8" font-family="Times,serif" font-size="14.00" fill="#000000">strconv.Itoa,inl_cost=117</text>
</g>
<!-- main.isSquare&#45;&gt;strconv.Itoa -->
<g id="edge4" class="edge">
<title>main.isSquare-&gt;strconv.Itoa</title>
<path fill="none" stroke="#ff0000" d="M399.008,-89.6785C382.258,-76.1566 358.6811,-57.1236 340.0316,-42.0684"/>
<polygon fill="#ff0000" stroke="#ff0000" points="342.0936,-39.2348 332.1141,-35.6768 337.6966,-44.6816 342.0936,-39.2348"/>
<text text-anchor="middle" x="387.4672" y="-58.2" font-family="Times,serif" font-size="14.00" fill="#000000">0.41</text>
</g>
<!-- math.Sqrt -->
<g id="node11" class="node">
<title>math.Sqrt</title>
<ellipse fill="none" stroke="#000000" cx="530.2172" cy="-18" rx="92.248" ry="18"/>
<text text-anchor="middle" x="530.2172" y="-13.8" font-family="Times,serif" font-size="14.00" fill="#000000">math.Sqrt,inl_cost=4</text>
</g>
<!-- main.isSquare&#45;&gt;math.Sqrt -->
<g id="edge1" class="edge">
<title>main.isSquare-&gt;math.Sqrt</title>
<path fill="none" stroke="#ff0000" d="M441.4263,-89.6785C458.1763,-76.1566 481.7532,-57.1236 500.4027,-42.0684"/>
<polygon fill="#ff0000" stroke="#ff0000" points="502.7377,-44.6816 508.3203,-35.6768 498.3407,-39.2348 502.7377,-44.6816"/>
<text text-anchor="middle" x="497.4672" y="-58.2" font-family="Times,serif" font-size="14.00" fill="#000000">1.86</text>
</g>
<!-- os.Setenv -->
<g id="node16" class="node">
<title>os.Setenv</title>
<ellipse fill="none" stroke="#000000" cx="737.2172" cy="-18" rx="96.3253" ry="18"/>
<text text-anchor="middle" x="737.2172" y="-13.8" font-family="Times,serif" font-size="14.00" fill="#000000">os.Setenv,inl_cost=90</text>
</g>
<!-- main.isSquare&#45;&gt;os.Setenv -->
<g id="edge3" class="edge">
<title>main.isSquare-&gt;os.Setenv</title>
<path fill="none" stroke="#ff0000" d="M466.3117,-93.8877C520.966,-78.5776 612.3581,-52.9763 673.6918,-35.7951"/>
<polygon fill="#ff0000" stroke="#ff0000" points="674.959,-39.075 683.6442,-33.0072 673.0707,-32.3344 674.959,-39.075"/>
<text text-anchor="middle" x="619.4672" y="-58.2" font-family="Times,serif" font-size="14.00" fill="#000000">1.03</text>
</g>
<!-- runtime/pprof.StopCPUProfile -->
<g id="node8" class="node">
<title>runtime/pprof.StopCPUProfile</title>
<ellipse fill="none" stroke="#000000" cx="1893.2172" cy="-195.6" rx="129.7132" ry="18"/>
<text text-anchor="middle" x="1893.2172" y="-191.4" font-family="Times,serif" font-size="14.00" fill="#000000">runtime/pprof.StopCPUProfile</text>
</g>
<!-- os.(*File).Close -->
<g id="node9" class="node">
<title>os.(*File).Close</title>
<ellipse fill="none" stroke="#000000" cx="2162.2172" cy="-195.6" rx="120.6394" ry="18"/>
<text text-anchor="middle" x="2162.2172" y="-191.4" font-family="Times,serif" font-size="14.00" fill="#000000">os.(*File).Close,inl_cost=67</text>
</g>
<!-- main.profile&#45;&gt;fmt.Println -->
<g id="edge7" class="edge">
<title>main.profile-&gt;fmt.Println</title>
<path fill="none" stroke="#000000" d="M1205.7188,-183.4413C1197.9176,-181.3957 1189.8442,-179.3661 1182.2172,-177.6 1086.6279,-155.4662 975.8142,-134.5295 902.0119,-121.2473"/>
<polygon fill="#000000" stroke="#000000" points="902.31,-117.745 891.8491,-119.4247 901.0742,-124.6351 902.31,-117.745"/>
<text text-anchor="middle" x="1105.4672" y="-147" font-family="Times,serif" font-size="14.00" fill="#000000">0.00</text>
</g>
<!-- runtime/pprof.StartCPUProfile -->
<g id="node13" class="node">
<title>runtime/pprof.StartCPUProfile</title>
<ellipse fill="none" stroke="#000000" cx="1069.2172" cy="-106.8" rx="130.2696" ry="18"/>
<text text-anchor="middle" x="1069.2172" y="-102.6" font-family="Times,serif" font-size="14.00" fill="#000000">runtime/pprof.StartCPUProfile</text>
</g>
<!-- main.profile&#45;&gt;runtime/pprof.StartCPUProfile -->
<g id="edge10" class="edge">
<title>main.profile-&gt;runtime/pprof.StartCPUProfile</title>
<path fill="none" stroke="#000000" d="M1217.8635,-180.1322C1189.0774,-165.9311 1146.1138,-144.7357 1113.7687,-128.7788"/>
<polygon fill="#000000" stroke="#000000" points="1115.0409,-125.5037 1104.5244,-124.2182 1111.9439,-131.7813 1115.0409,-125.5037"/>
<text text-anchor="middle" x="1188.4672" y="-147" font-family="Times,serif" font-size="14.00" fill="#000000">0.00</text>
</g>
<!-- os.Create -->
<g id="node18" class="node">
<title>os.Create</title>
<ellipse fill="none" stroke="#000000" cx="1313.2172" cy="-106.8" rx="95.1585" ry="18"/>
<text text-anchor="middle" x="1313.2172" y="-102.6" font-family="Times,serif" font-size="14.00" fill="#000000">os.Create,inl_cost=72</text>
</g>
<!-- main.profile&#45;&gt;os.Create -->
<g id="edge8" class="edge">
<title>main.profile-&gt;os.Create</title>
<path fill="none" stroke="#000000" d="M1262.1685,-177.63C1271.3638,-164.8716 1283.8584,-147.5353 1294.1846,-133.2077"/>
<polygon fill="#000000" stroke="#000000" points="1297.2775,-134.9023 1300.2851,-124.7433 1291.5987,-130.8094 1297.2775,-134.9023"/>
<text text-anchor="middle" x="1299.4672" y="-147" font-family="Times,serif" font-size="14.00" fill="#000000">0.00</text>
</g>
<!-- log.Fatal -->
<g id="node19" class="node">
<title>log.Fatal</title>
<ellipse fill="none" stroke="#000000" cx="1471.2172" cy="-106.8" rx="45.2011" ry="18"/>
<text text-anchor="middle" x="1471.2172" y="-102.6" font-family="Times,serif" font-size="14.00" fill="#000000">log.Fatal</text>
</g>
<!-- main.profile&#45;&gt;log.Fatal -->
<g id="edge9" class="edge">
<title>main.profile-&gt;log.Fatal</title>
<path fill="none" stroke="#000000" d="M1285.3794,-181.1351C1324.9322,-165.314 1388.2151,-140.0008 1429.7505,-123.3867"/>
<polygon fill="#000000" stroke="#000000" points="1431.0544,-126.6348 1439.0393,-119.6711 1428.4547,-120.1354 1431.0544,-126.6348"/>
<text text-anchor="middle" x="1392.4672" y="-147" font-family="Times,serif" font-size="14.00" fill="#000000">0.00</text>
</g>
<!-- main.profile&#45;&gt;log.Fatal -->
<g id="edge11" class="edge">
<title>main.profile-&gt;log.Fatal</title>
<path fill="none" stroke="#000000" d="M1293.0107,-183.5703C1301.0403,-181.4893 1309.3639,-179.4142 1317.2172,-177.6 1357.3873,-168.3203 1371.0294,-177.3995 1408.2172,-159.6 1422.964,-152.5416 1437.1288,-141.2266 1448.2793,-130.8783"/>
<polygon fill="#000000" stroke="#000000" points="1450.7149,-133.3919 1455.4873,-123.9328 1445.8578,-128.3512 1450.7149,-133.3919"/>
<text text-anchor="middle" x="1445.4672" y="-147" font-family="Times,serif" font-size="14.00" fill="#000000">0.00</text>
</g>
<!-- main.profile.func1 -->
<g id="node20" class="node">
<title>main.profile.func1</title>
<ellipse fill="none" stroke="#000000" cx="2027.2172" cy="-284.4" rx="82.8071" ry="18"/>
<text text-anchor="middle" x="2027.2172" y="-280.2" font-family="Times,serif" font-size="14.00" fill="#000000">main.profile.func1</text>
</g>
<!-- main.profile.func1&#45;&gt;runtime/pprof.StopCPUProfile -->
<g id="edge12" class="edge">
<title>main.profile.func1-&gt;runtime/pprof.StopCPUProfile</title>
<path fill="none" stroke="#000000" d="M2001.3806,-267.2785C1980.61,-253.514 1951.222,-234.0391 1928.32,-218.8622"/>
<polygon fill="#000000" stroke="#000000" points="1930.1608,-215.8833 1919.8916,-213.2768 1926.2939,-221.7184 1930.1608,-215.8833"/>
<text text-anchor="middle" x="1985.4672" y="-235.8" font-family="Times,serif" font-size="14.00" fill="#000000">0.00</text>
</g>
<!-- main.profile.func1&#45;&gt;os.(*File).Close -->
<g id="edge13" class="edge">
<title>main.profile.func1-&gt;os.(*File).Close</title>
<path fill="none" stroke="#000000" d="M2053.2465,-267.2785C2074.1721,-253.514 2103.7794,-234.0391 2126.8524,-218.8622"/>
<polygon fill="#000000" stroke="#000000" points="2128.9125,-221.6964 2135.3437,-213.2768 2125.0656,-215.8482 2128.9125,-221.6964"/>
<text text-anchor="middle" x="2118.4672" y="-235.8" font-family="Times,serif" font-size="14.00" fill="#000000">0.00</text>
</g>
</g>
</svg>