<?xml version="1.0" encoding="UTF-8" standalone="no"?><!DOCTYPE svg PUBLIC "-//W3C//DTD SVG 1.1//EN" "http://www.w3.org/Graphics/SVG/1.1/DTD/svg11.dtd"><!-- Generated by graphviz version 2.40.1 (20161225.0304)
 --><!-- Title: G Pages: 1 --><svg xmlns="http://www.w3.org/2000/svg" xmlns:xlink="http://www.w3.org/1999/xlink" width="2753pt" height="310pt" viewBox="0.00 0.00 2753.01 310.40">
<g id="graph0" class="graph" transform="scale(1 1) rotate(0) translate(4 306.4)">
<title>G</title>
<polygon fill="#ffffff" stroke="transparent" points="-4,4 -4,-306.4 2749.005,-306.4 2749.005,4 -4,4"/>
<!-- fmt.Println -->
<g id="node1" class="node">
<title>fmt.Println</title>
<ellipse fill="none" stroke="#000000" cx="1395.1778" cy="-106.8" rx="101.4963" ry="18"/>
<text text-anchor="middle" x="1395.1778" y="-102.6" font-family="Times,serif" font-size="14.00" fill="#000000">fmt.Println,inl_cost=72</text>
</g>
<!-- os.(*File).Close -->
<g id="node2" class="node">
<title>os.(*File).Close</title>
<ellipse fill="none" stroke="#000000" cx="2281.1778" cy="-195.6" rx="120.6394" ry="18"/>
<text text-anchor="middle" x="2281.1778" y="-191.4" font-family="Times,serif" font-size="14.00" fill="#000000">os.(*File).Close,inl_cost=67</text>
</g>
<!-- log.Println -->
<g id="node3" class="node">
<title>log.Println</title>
<ellipse fill="none" stroke="#000000" cx="100.1778" cy="-18" rx="100.356" ry="18"/>
<text text-anchor="middle" x="100.1778" y="-13.8" font-family="Times,serif" font-size="14.00" fill="#000000">log.Println,inl_cost=77</text>
</g>
<!-- flag.Uint64 -->
<g id="node4" class="node">
<title>flag.Uint64</title>
<ellipse fill="none" stroke="#000000" cx="374.1778" cy="-195.6" rx="103.268" ry="18"/>
<text text-anchor="middle" x="374.1778" y="-191.4" font-family="Times,serif" font-size="14.00" fill="#000000">flag.Uint64,inl_cost=63</text>
</g>
<!-- flag.String -->
<g id="node5" class="node">
<title>flag.String</title>
<ellipse fill="none" stroke="#000000" cx="596.1778" cy="-195.6" rx="100.3347" ry="18"/>
<text text-anchor="middle" x="596.1778" y="-191.4" font-family="Times,serif" font-size="14.00" fill="#000000">flag.String,inl_cost=63</text>
</g>
<!-- main.httpProf -->
<g id="node6" class="node">
<title>main.httpProf</title>
<ellipse fill="none" stroke="#000000" cx="779.1778" cy="-195.6" rx="64.3249" ry="18"/>
<text text-anchor="middle" x="779.1778" y="-191.4" font-family="Times,serif" font-size="14.00" fill="#000000">main.httpProf</text>
</g>
<!-- main.httpProf.func1 -->
<g id="node8" class="node">
<title>main.httpProf.func1</title>
<ellipse fill="none" stroke="#000000" cx="372.1778" cy="-106.8" rx="88.6275" ry="18"/>
<text text-anchor="middle" x="372.1778" y="-102.6" font-family="Times,serif" font-size="14.00" fill="#000000">main.httpProf.func1</text>
</g>
<!-- main.httpProf&#45;&gt;main.httpProf.func1 -->
<g id="edge17" class="edge">
<title>main.httpProf-&gt;main.httpProf.func1</title>
<path fill="none" stroke="#000000" d="M730.663,-183.5852C722.1785,-181.5451 713.4283,-179.4801 705.1778,-177.6 615.8317,-157.2401 512.5669,-135.5728 445.0135,-121.6494"/>
<polygon fill="#000000" stroke="#000000" points="445.3993,-118.1555 434.899,-119.5676 443.988,-125.0118 445.3993,-118.1555"/>
<text text-anchor="middle" x="635.4278" y="-147" font-family="Times,serif" font-size="14.00" fill="#000000">0.00</text>
</g>
<!-- net/http.ListenAndServe -->
<g id="node7" class="node">
<title>net/http.ListenAndServe</title>
<ellipse fill="none" stroke="#000000" cx="372.1778" cy="-18" rx="153.6079" ry="18"/>
<text text-anchor="middle" x="372.1778" y="-13.8" font-family="Times,serif" font-size="14.00" fill="#000000">net/http.ListenAndServe,inl_cost=70</text>
</g>
<!-- main.httpProf.func1&#45;&gt;log.Println -->
<g id="edge18" class="edge">
<title>main.httpProf.func1-&gt;log.Println</title>
<path fill="none" stroke="#000000" d="M325.1096,-91.4336C278.7816,-76.3089 207.9362,-53.18 158.1601,-36.9295"/>
<polygon fill="#000000" stroke="#000000" points="159.0918,-33.5519 148.4993,-33.7755 156.9193,-40.2063 159.0918,-33.5519"/>
<text text-anchor="middle" x="273.4278" y="-58.2" font-family="Times,serif" font-size="14.00" fill="#000000">0.00</text>
</g>
<!-- main.httpProf.func1&#45;&gt;net/http.ListenAndServe -->
<g id="edge19" class="edge">
<title>main.httpProf.func1-&gt;net/http.ListenAndServe</title>
<path fill="none" stroke="#000000" d="M372.1778,-88.4006C372.1778,-76.2949 372.1778,-60.2076 372.1778,-46.4674"/>
<polygon fill="#000000" stroke="#000000" points="375.6779,-46.072 372.1778,-36.072 368.6779,-46.0721 375.6779,-46.072"/>
<text text-anchor="middle" x="384.4278" y="-58.2" font-family="Times,serif" font-size="14.00" fill="#000000">0.00</text>
</g>
<!-- strconv.Itoa -->
<g id="node9" class="node">
<title>strconv.Itoa</title>
<ellipse fill="none" stroke="#000000" cx="654.1778" cy="-18" rx="109.6293" ry="18"/>
<text text-anchor="middle" x="654.1778" y="-13.8" font-family="Times,serif" font-size="14.00" fill="#000000">strconv.Itoa,inl_cost=117</text>
</g>
<!-- flag.Int -->
<g id="node10" class="node">
<title>flag.Int</title>
<ellipse fill="none" stroke="#000000" cx="949.1778" cy="-195.6" rx="87.0741" ry="18"/>
<text text-anchor="middle" x="949.1778" y="-191.4" font-family="Times,serif" font-size="14.00" fill="#000000">flag.Int,inl_cost=63</text>
</g>
<!-- os.Setenv -->
<g id="node11" class="node">
<title>os.Setenv</title>
<ellipse fill="none" stroke="#000000" cx="878.1778" cy="-18" rx="96.3253" ry="18"/>
<text text-anchor="middle" x="878.1778" y="-13.8" font-family="Times,serif" font-size="14.00" fill="#000000">os.Setenv,inl_cost=90</text>
</g>
<!-- math.Ceil -->
<g id="node12" class="node">
<title>math.Ceil</title>
<ellipse fill="none" stroke="#000000" cx="903.1778" cy="-106.8" rx="96.9029" ry="18"/>
<text text-anchor="middle" x="903.1778" y="-102.6" font-family="Times,serif" font-size="14.00" fill="#000000">math.Ceil,inl_cost=61</text>
</g>
<!-- main.NewExpensive -->
<g id="node13" class="node">
<title>main.NewExpensive</title>
<ellipse fill="none" stroke="#000000" cx="1084.1778" cy="-18" rx="91.4348" ry="18"/>
<text text-anchor="middle" x="1084.1778" y="-13.8" font-family="Times,serif" font-size="14.00" fill="#000000">main.NewExpensive</text>
</g>
<!-- main.findFactors -->
<g id="node14" class="node">
<title>main.findFactors</title>
<ellipse fill="none" stroke="#000000" cx="1131.1778" cy="-195.6" rx="76.9835" ry="18"/>
<text text-anchor="middle" x="1131.1778" y="-191.4" font-family="Times,serif" font-size="14.00" fill="#000000">main.findFactors</text>
</g>
<!-- main.findFactors&#45;&gt;math.Ceil -->
<g id="edge7" class="edge">
<title>main.findFactors-&gt;math.Ceil</title>
<path fill="none" stroke="#000000" d="M1091.4633,-180.1322C1053.4681,-165.3341 995.9732,-142.9413 954.5166,-126.7951"/>
<polygon fill="#000000" stroke="#000000" points="955.7261,-123.5101 945.1376,-123.1422 953.1856,-130.0329 955.7261,-123.5101"/>
<text text-anchor="middle" x="1050.4278" y="-147" font-family="Times,serif" font-size="14.00" fill="#000000">0.00</text>
</g>
<!-- main.isSquare -->
<g id="node20" class="node">
<title>main.isSquare</title>
<ellipse fill="none" stroke="#000000" cx="1084.1778" cy="-106.8" rx="66.0289" ry="18"/>
<text text-anchor="middle" x="1084.1778" y="-102.6" font-family="Times,serif" font-size="14.00" fill="#000000">main.isSquare</text>
</g>
<!-- main.findFactors&#45;&gt;main.isSquare -->
<g id="edge5" class="edge">
<title>main.findFactors-&gt;main.isSquare</title>
<path fill="none" stroke="#ff0000" d="M1101.8245,-178.5469C1095.3802,-173.3299 1089.3811,-166.983 1085.6778,-159.6 1081.9196,-152.1074 1080.654,-143.234 1080.58,-134.921"/>
<polygon fill="#ff0000" stroke="#ff0000" points="1084.0806,-134.9819 1081.0258,-124.837 1077.0875,-134.6727 1084.0806,-134.9819"/>
<text text-anchor="middle" x="1098.4278" y="-147" font-family="Times,serif" font-size="14.00" fill="#000000">0.27</text>
</g>
<!-- main.findFactors&#45;&gt;main.isSquare -->
<g id="edge9" class="edge">
<title>main.findFactors-&gt;main.isSquare</title>
<path fill="none" stroke="#ff0000" d="M1125.235,-177.502C1121.504,-167.0693 1116.254,-153.8693 1110.1778,-142.8 1108.3647,-139.4969 1106.2961,-136.1428 1104.1359,-132.8776"/>
<polygon fill="#ff0000" stroke="#ff0000" points="1106.9089,-130.7354 1098.3155,-124.5383 1101.1687,-134.7417 1106.9089,-130.7354"/>
<text text-anchor="middle" x="1130.4278" y="-147" font-family="Times,serif" font-size="14.00" fill="#000000">0.23</text>
</g>
<!-- math.Sqrt -->
<g id="node21" class="node">
<title>math.Sqrt</title>
<ellipse fill="none" stroke="#000000" cx="1285.1778" cy="-18" rx="92.248" ry="18"/>
<text text-anchor="middle" x="1285.1778" y="-13.8" font-family="Times,serif" font-size="14.00" fill="#000000">math.Sqrt,inl_cost=4</text>
</g>
<!-- main.findFactors&#45;&gt;math.Sqrt -->
<g id="edge6" class="edge">
<title>main.findFactors-&gt;math.Sqrt</title>
<path fill="none" stroke="#000000" d="M1141.1621,-177.6457C1157.8697,-148.8117 1193.8589,-91.6134 1236.1778,-54 1240.9414,-49.7661 1246.1835,-45.5269 1251.4135,-41.5204"/>
<polygon fill="#000000" stroke="#000000" points="1253.6284,-44.2347 1259.5515,-35.4502 1249.4431,-38.6237 1253.6284,-44.2347"/>
<text text-anchor="middle" x="1213.4278" y="-102.6" font-family="Times,serif" font-size="14.00" fill="#000000">0.00</text>
</g>
<!-- main.findFactors&#45;&gt;math.Sqrt -->
<g id="edge8" class="edge">
<title>main.findFactors-&gt;math.Sqrt</title>
<path fill="none" stroke="#000000" d="M1161.0864,-178.7364C1181.82,-165.9435 1209.0354,-146.835 1228.1778,-124.8 1248.8293,-101.0279 1264.8322,-68.4989 1274.5538,-45.6061"/>
<polygon fill="#000000" stroke="#000000" points="1277.8822,-46.7151 1278.4518,-36.1356 1271.4091,-44.0508 1277.8822,-46.7151"/>
<text text-anchor="middle" x="1265.4278" y="-102.6" font-family="Times,serif" font-size="14.00" fill="#000000">0.00</text>
</g>
<!-- os.Create -->
<g id="node15" class="node">
<title>os.Create</title>
<ellipse fill="none" stroke="#000000" cx="1610.1778" cy="-106.8" rx="95.1585" ry="18"/>
<text text-anchor="middle" x="1610.1778" y="-102.6" font-family="Times,serif" font-size="14.00" fill="#000000">os.Create,inl_cost=72</text>
</g>
<!-- runtime/pprof.StartCPUProfile -->
<g id="node16" class="node">
<title>runtime/pprof.StartCPUProfile</title>
<ellipse fill="none" stroke="#000000" cx="1854.1778" cy="-106.8" rx="130.2696" ry="18"/>
<text text-anchor="middle" x="1854.1778" y="-102.6" font-family="Times,serif" font-size="14.00" fill="#000000">runtime/pprof.StartCPUProfile</text>
</g>
<!-- main.main -->
<g id="node17" class="node">
<title>main.main</title>
<ellipse fill="none" stroke="#000000" cx="1179.1778" cy="-284.4" rx="52.1456" ry="18"/>
<text text-anchor="middle" x="1179.1778" y="-280.2" font-family="Times,serif" font-size="14.00" fill="#000000">main.main</text>
</g>
<!-- main.main&#45;&gt;flag.Uint64 -->
<g id="edge30" class="edge">
<title>main.main-&gt;flag.Uint64</title>
<path fill="none" stroke="#000000" d="M1128.1717,-280.3603C1051.5664,-274.1775 902.2811,-261.6802 775.6778,-248.4 647.2309,-234.9264 615.0838,-231.4949 487.1778,-213.6 478.2201,-212.3468 468.8743,-210.9699 459.5617,-209.5531"/>
<polygon fill="#000000" stroke="#000000" points="459.9054,-206.0649 449.4895,-208.0039 458.8412,-212.9835 459.9054,-206.0649"/>
<text text-anchor="middle" x="788.4278" y="-235.8" font-family="Times,serif" font-size="14.00" fill="#000000">0.00</text>
</g>
<!-- main.main&#45;&gt;flag.String -->
<g id="edge26" class="edge">
<title>main.main-&gt;flag.String</title>
<path fill="none" stroke="#000000" d="M1129.6895,-278.4615C1074.845,-271.7463 983.8136,-260.2029 905.6778,-248.4 827.8186,-236.6389 739.2779,-221.3384 676.9028,-210.238"/>
<polygon fill="#000000" stroke="#000000" points="677.1943,-206.7349 666.7351,-208.4245 675.9652,-213.6261 677.1943,-206.7349"/>
<text text-anchor="middle" x="918.4278" y="-235.8" font-family="Times,serif" font-size="14.00" fill="#000000">0.00</text>
</g>
<!-- main.main&#45;&gt;main.httpProf -->
<g id="edge23" class="edge">
<title>main.main-&gt;main.httpProf</title>
<path fill="none" stroke="#000000" d="M1134.5427,-275.0717C1071.6738,-261.8495 953.5013,-236.6918 853.1778,-213.6 848.1527,-212.4434 842.9413,-211.2214 837.7168,-209.9808"/>
<polygon fill="#000000" stroke="#000000" points="838.2395,-206.5071 827.6996,-207.5845 836.6109,-213.3151 838.2395,-206.5071"/>
<text text-anchor="middle" x="1017.4278" y="-235.8" font-family="Times,serif" font-size="14.00" fill="#000000">0.00</text>
</g>
<!-- main.main&#45;&gt;flag.Int -->
<g id="edge20" class="edge">
<title>main.main-&gt;flag.Int</title>
<path fill="none" stroke="#000000" d="M1144.2458,-270.9132C1105.925,-256.1181 1044.0566,-232.2315 1000.2827,-215.3309"/>
<polygon fill="#000000" stroke="#000000" points="1001.2688,-211.9599 990.6793,-211.6232 998.7475,-218.4901 1001.2688,-211.9599"/>
<text text-anchor="middle" x="1097.4278" y="-235.8" font-family="Times,serif" font-size="14.00" fill="#000000">0.00</text>
</g>
<!-- main.main&#45;&gt;main.findFactors -->
<g id="edge24" class="edge">
<title>main.main-&gt;main.findFactors</title>
<path fill="none" stroke="#ff0000" d="M1151.1297,-268.9526C1143.8239,-263.4727 1136.8408,-256.5914 1132.6778,-248.4 1128.8801,-240.9274 1127.6032,-232.0596 1127.5311,-223.7457"/>
<polygon fill="#ff0000" stroke="#ff0000" points="1131.0318,-223.8049 1127.985,-213.6576 1124.0389,-223.4902 1131.0318,-223.8049"/>
<text text-anchor="middle" x="1145.4278" y="-235.8" font-family="Times,serif" font-size="14.00" fill="#000000">0.12</text>
</g>
<!-- main.main&#45;&gt;main.findFactors -->
<g id="edge27" class="edge">
<title>main.main-&gt;main.findFactors</title>
<path fill="none" stroke="#000000" d="M1172.8329,-266.3195C1168.8846,-255.8927 1163.3846,-242.6927 1157.1778,-231.6 1155.3379,-228.3117 1153.2528,-224.9668 1151.0833,-221.7068"/>
<polygon fill="#000000" stroke="#000000" points="1153.8534,-219.5607 1145.2534,-213.3727 1148.1175,-223.5731 1153.8534,-219.5607"/>
<text text-anchor="middle" x="1177.4278" y="-235.8" font-family="Times,serif" font-size="14.00" fill="#000000">0.00</text>
</g>
<!-- fmt.Sprintf -->
<g id="node18" class="node">
<title>fmt.Sprintf</title>
<ellipse fill="none" stroke="#000000" cx="1279.1778" cy="-195.6" rx="53.8676" ry="18"/>
<text text-anchor="middle" x="1279.1778" y="-191.4" font-family="Times,serif" font-size="14.00" fill="#000000">fmt.Sprintf</text>
</g>
<!-- main.main&#45;&gt;fmt.Sprintf -->
<g id="edge28" class="edge">
<title>main.main-&gt;fmt.Sprintf</title>
<path fill="none" stroke="#000000" d="M1198.4588,-267.2785C1213.6764,-253.7653 1235.0922,-234.748 1252.0412,-219.6973"/>
<polygon fill="#000000" stroke="#000000" points="1254.8026,-221.926 1259.956,-212.669 1250.1546,-216.6918 1254.8026,-221.926"/>
<text text-anchor="middle" x="1250.4278" y="-235.8" font-family="Times,serif" font-size="14.00" fill="#000000">0.00</text>
</g>
<!-- flag.Parse -->
<g id="node22" class="node">
<title>flag.Parse</title>
<ellipse fill="none" stroke="#000000" cx="1448.1778" cy="-195.6" rx="97.4439" ry="18"/>
<text text-anchor="middle" x="1448.1778" y="-191.4" font-family="Times,serif" font-size="14.00" fill="#000000">flag.Parse,inl_cost=62</text>
</g>
<!-- main.main&#45;&gt;flag.Parse -->
<g id="edge21" class="edge">
<title>main.main-&gt;flag.Parse</title>
<path fill="none" stroke="#000000" d="M1216.8644,-271.9592C1262.0571,-257.0406 1338.2714,-231.8814 1390.7929,-214.5434"/>
<polygon fill="#000000" stroke="#000000" points="1391.9125,-217.8597 1400.3113,-211.4013 1389.7181,-211.2125 1391.9125,-217.8597"/>
<text text-anchor="middle" x="1350.4278" y="-235.8" font-family="Times,serif" font-size="14.00" fill="#000000">0.00</text>
</g>
<!-- fmt.Printf -->
<g id="node23" class="node">
<title>fmt.Printf</title>
<ellipse fill="none" stroke="#000000" cx="1660.1778" cy="-195.6" rx="96.901" ry="18"/>
<text text-anchor="middle" x="1660.1778" y="-191.4" font-family="Times,serif" font-size="14.00" fill="#000000">fmt.Printf,inl_cost=73</text>
</g>
<!-- main.main&#45;&gt;fmt.Printf -->
<g id="edge29" class="edge">
<title>main.main-&gt;fmt.Printf</title>
<path fill="none" stroke="#000000" d="M1225.2981,-275.8855C1307.4472,-260.7195 1479.9706,-228.869 1581.2841,-210.165"/>
<polygon fill="#000000" stroke="#000000" points="1581.9639,-213.5987 1591.1623,-208.3413 1580.6931,-206.715 1581.9639,-213.5987"/>
<text text-anchor="middle" x="1475.4278" y="-235.8" font-family="Times,serif" font-size="14.00" fill="#000000">0.00</text>
</g>
<!-- main.runtimeProf -->
<g id="node24" class="node">
<title>main.runtimeProf</title>
<ellipse fill="none" stroke="#000000" cx="1854.1778" cy="-195.6" rx="79.3521" ry="18"/>
<text text-anchor="middle" x="1854.1778" y="-191.4" font-family="Times,serif" font-size="14.00" fill="#000000">main.runtimeProf</text>
</g>
<!-- main.main&#45;&gt;main.runtimeProf -->
<g id="edge22" class="edge">
<title>main.main-&gt;main.runtimeProf</title>
<path fill="none" stroke="#000000" d="M1229.6424,-279.8165C1331.4777,-270.2363 1568.6935,-246.2443 1766.1778,-213.6 1772.7935,-212.5064 1779.6695,-211.2724 1786.5318,-209.9759"/>
<polygon fill="#000000" stroke="#000000" points="1787.3899,-213.3749 1796.544,-208.0408 1786.0615,-206.5021 1787.3899,-213.3749"/>
<text text-anchor="middle" x="1650.4278" y="-235.8" font-family="Times,serif" font-size="14.00" fill="#000000">0.00</text>
</g>
<!-- flag.Bool -->
<g id="node28" class="node">
<title>flag.Bool</title>
<ellipse fill="none" stroke="#000000" cx="2047.1778" cy="-195.6" rx="95.1816" ry="18"/>
<text text-anchor="middle" x="2047.1778" y="-191.4" font-family="Times,serif" font-size="14.00" fill="#000000">flag.Bool,inl_cost=63</text>
</g>
<!-- main.main&#45;&gt;flag.Bool -->
<g id="edge25" class="edge">
<title>main.main-&gt;flag.Bool</title>
<path fill="none" stroke="#000000" d="M1230.7919,-281.4632C1319.7826,-276.2032 1507.7937,-264.2285 1666.1778,-248.4 1789.2029,-236.1052 1819.8843,-231.783 1942.1778,-213.6 1950.4616,-212.3683 1959.0999,-211.0092 1967.7083,-209.6063"/>
<polygon fill="#000000" stroke="#000000" points="1968.4806,-213.0263 1977.777,-207.9443 1967.3404,-206.1198 1968.4806,-213.0263"/>
<text text-anchor="middle" x="1826.4278" y="-235.8" font-family="Times,serif" font-size="14.00" fill="#000000">0.00</text>
</g>
<!-- runtime/pprof.StopCPUProfile -->
<g id="node19" class="node">
<title>runtime/pprof.StopCPUProfile</title>
<ellipse fill="none" stroke="#000000" cx="2550.1778" cy="-195.6" rx="129.7132" ry="18"/>
<text text-anchor="middle" x="2550.1778" y="-191.4" font-family="Times,serif" font-size="14.00" fill="#000000">runtime/pprof.StopCPUProfile</text>
</g>
<!-- main.isSquare&#45;&gt;strconv.Itoa -->
<g id="edge2" class="edge">
<title>main.isSquare-&gt;strconv.Itoa</title>
<path fill="none" stroke="#ff0000" d="M1035.0217,-94.7148C1026.421,-92.6826 1017.5483,-90.6384 1009.1778,-88.8 915.9637,-68.3272 808.4209,-47.2301 736.3487,-33.4533"/>
<polygon fill="#ff0000" stroke="#ff0000" points="736.8984,-29.9951 726.4196,-31.5587 735.5863,-36.871 736.8984,-29.9951"/>
<text text-anchor="middle" x="934.4278" y="-58.2" font-family="Times,serif" font-size="14.00" fill="#000000">0.24</text>
</g>
<!-- main.isSquare&#45;&gt;os.Setenv -->
<g id="edge1" class="edge">
<title>main.isSquare-&gt;os.Setenv</title>
<path fill="none" stroke="#ff0000" d="M1048.7652,-91.5347C1014.8295,-76.9062 963.3689,-54.7231 925.8438,-38.5473"/>
<polygon fill="#ff0000" stroke="#ff0000" points="927.1915,-35.3169 916.6229,-34.5724 924.4205,-41.7451 927.1915,-35.3169"/>
<text text-anchor="middle" x="1012.4278" y="-58.2" font-family="Times,serif" font-size="14.00" fill="#000000">0.15</text>
</g>
<!-- main.isSquare&#45;&gt;main.NewExpensive -->
<g id="edge4" class="edge">
<title>main.isSquare-&gt;main.NewExpensive</title>
<path fill="none" stroke="#ff0000" d="M1084.1778,-88.4006C1084.1778,-76.2949 1084.1778,-60.2076 1084.1778,-46.4674"/>
<polygon fill="#ff0000" stroke="#ff0000" points="1087.6779,-46.072 1084.1778,-36.072 1080.6779,-46.0721 1087.6779,-46.072"/>
<text text-anchor="middle" x="1096.4278" y="-58.2" font-family="Times,serif" font-size="14.00" fill="#000000">0.07</text>
</g>
<!-- main.isSquare&#45;&gt;math.Sqrt -->
<g id="edge3" class="edge">
<title>main.isSquare-&gt;math.Sqrt</title>
<path fill="none" stroke="#ff0000" d="M1101.3186,-89.2741C1113.5369,-77.7124 1130.8902,-63.0786 1148.6778,-54 1166.6052,-44.8501 1187.078,-37.8659 1206.6181,-32.5995"/>
<polygon fill="#ff0000" stroke="#ff0000" points="1207.6134,-35.9575 1216.4253,-30.0752 1205.8685,-29.1785 1207.6134,-35.9575"/>
<text text-anchor="middle" x="1161.4278" y="-58.2" font-family="Times,serif" font-size="14.00" fill="#000000">0.21</text>
</g>
<!-- main.runtimeProf&#45;&gt;fmt.Println -->
<g id="edge10" class="edge">
<title>main.runtimeProf-&gt;fmt.Println</title>
<path fill="none" stroke="#000000" d="M1795.0295,-183.39C1785.3907,-181.4323 1775.5096,-179.4447 1766.1778,-177.6 1665.9838,-157.7935 1550.3737,-135.8797 1475.1965,-121.7549"/>
<polygon fill="#000000" stroke="#000000" points="1475.7944,-118.3061 1465.3202,-119.9004 1474.5025,-125.1858 1475.7944,-118.3061"/>
<text text-anchor="middle" x="1677.4278" y="-147" font-family="Times,serif" font-size="14.00" fill="#000000">0.00</text>
</g>
<!-- main.runtimeProf&#45;&gt;os.Create -->
<g id="edge11" class="edge">
<title>main.runtimeProf-&gt;os.Create</title>
<path fill="none" stroke="#000000" d="M1811.9548,-180.2336C1770.9098,-165.2959 1708.4118,-142.5507 1663.8563,-126.3355"/>
<polygon fill="#000000" stroke="#000000" points="1664.9479,-123.0082 1654.3539,-122.8772 1662.5539,-129.5861 1664.9479,-123.0082"/>
<text text-anchor="middle" x="1766.4278" y="-147" font-family="Times,serif" font-size="14.00" fill="#000000">0.00</text>
</g>
<!-- main.runtimeProf&#45;&gt;runtime/pprof.StartCPUProfile -->
<g id="edge13" class="edge">
<title>main.runtimeProf-&gt;runtime/pprof.StartCPUProfile</title>
<path fill="none" stroke="#000000" d="M1854.1778,-177.2006C1854.1778,-165.0949 1854.1778,-149.0076 1854.1778,-135.2674"/>
<polygon fill="#000000" stroke="#000000" points="1857.6779,-134.872 1854.1778,-124.872 1850.6779,-134.8721 1857.6779,-134.872"/>
<text text-anchor="middle" x="1866.4278" y="-147" font-family="Times,serif" font-size="14.00" fill="#000000">0.00</text>
</g>
<!-- log.Fatal -->
<g id="node25" class="node">
<title>log.Fatal</title>
<ellipse fill="none" stroke="#000000" cx="2047.1778" cy="-106.8" rx="45.2011" ry="18"/>
<text text-anchor="middle" x="2047.1778" y="-102.6" font-family="Times,serif" font-size="14.00" fill="#000000">log.Fatal</text>
</g>
<!-- main.runtimeProf&#45;&gt;log.Fatal -->
<g id="edge12" class="edge">
<title>main.runtimeProf-&gt;log.Fatal</title>
<path fill="none" stroke="#000000" d="M1889.577,-179.3127C1923.0988,-163.8892 1973.3312,-140.7771 2008.0329,-124.8107"/>
<polygon fill="#000000" stroke="#000000" points="2009.7603,-127.8687 2017.3819,-120.5092 2006.8344,-121.5095 2009.7603,-127.8687"/>
<text text-anchor="middle" x="1980.4278" y="-147" font-family="Times,serif" font-size="14.00" fill="#000000">0.00</text>
</g>
<!-- main.runtimeProf&#45;&gt;log.Fatal -->
<g id="edge14" class="edge">
<title>main.runtimeProf-&gt;log.Fatal</title>
<path fill="none" stroke="#000000" d="M1914.2428,-183.8055C1946.3195,-176.8358 1982.0422,-167.7973 1996.1778,-159.6 2008.2699,-152.5877 2019.3621,-141.8922 2028.0915,-131.9567"/>
<polygon fill="#000000" stroke="#000000" points="2030.8204,-134.1495 2034.5598,-124.2365 2025.4547,-129.654 2030.8204,-134.1495"/>
<text text-anchor="middle" x="2029.4278" y="-147" font-family="Times,serif" font-size="14.00" fill="#000000">0.00</text>
</g>
<!-- main.runtimeProf.func1 -->
<g id="node26" class="node">
<title>main.runtimeProf.func1</title>
<ellipse fill="none" stroke="#000000" cx="2641.1778" cy="-284.4" rx="103.6547" ry="18"/>
<text text-anchor="middle" x="2641.1778" y="-280.2" font-family="Times,serif" font-size="14.00" fill="#000000">main.runtimeProf.func1</text>
</g>
<!-- main.runtimeProf.func2 -->
<g id="node27" class="node">
<title>main.runtimeProf.func2</title>
<ellipse fill="none" stroke="#000000" cx="2415.1778" cy="-284.4" rx="103.6547" ry="18"/>
<text text-anchor="middle" x="2415.1778" y="-280.2" font-family="Times,serif" font-size="14.00" fill="#000000">main.runtimeProf.func2</text>
</g>
<!-- main.runtimeProf.func2&#45;&gt;os.(*File).Close -->
<g id="edge16" class="edge">
<title>main.runtimeProf.func2-&gt;os.(*File).Close</title>
<path fill="none" stroke="#000000" d="M2388.7037,-266.856C2368.0082,-253.1413 2339.0493,-233.9506 2316.3978,-218.9398"/>
<polygon fill="#000000" stroke="#000000" points="2318.3248,-216.018 2308.0556,-213.4115 2314.458,-221.8531 2318.3248,-216.018"/>
<text text-anchor="middle" x="2372.4278" y="-235.8" font-family="Times,serif" font-size="14.00" fill="#000000">0.00</text>
</g>
<!-- main.runtimeProf.func2&#45;&gt;runtime/pprof.StopCPUProfile -->
<g id="edge15" class="edge">
<title>main.runtimeProf.func2-&gt;runtime/pprof.StopCPUProfile</title>
<path fill="none" stroke="#000000" d="M2441.8495,-266.856C2462.6995,-253.1413 2491.8745,-233.9506 2514.695,-218.9398"/>
<polygon fill="#000000" stroke="#000000" points="2516.6683,-221.8312 2523.0995,-213.4115 2512.8214,-215.9829 2516.6683,-221.8312"/>
<text text-anchor="middle" x="2506.4278" y="-235.8" font-family="Times,serif" font-size="14.00" fill="#000000">0.00</text>
</g>
</g>
</svg>