<?xml version="1.0" encoding="UTF-8" standalone="no"?><!DOCTYPE svg PUBLIC "-//W3C//DTD SVG 1.1//EN" "http://www.w3.org/Graphics/SVG/1.1/DTD/svg11.dtd"><!-- Generated by graphviz version 2.40.1 (20161225.0304)
 --><!-- Title: G Pages: 1 --><svg xmlns="http://www.w3.org/2000/svg" xmlns:xlink="http://www.w3.org/1999/xlink" width="1934pt" height="310pt" viewBox="0.00 0.00 1934.27 310.40">
<g id="graph0" class="graph" transform="scale(1 1) rotate(0) translate(4 306.4)">
<title>G</title>
<polygon fill="#ffffff" stroke="transparent" points="-4,4 -4,-306.4 1930.2691,-306.4 1930.2691,4 -4,4"/>
<!-- os.Create -->
<g id="node1" class="node">
<title>os.Create</title>
<ellipse fill="none" stroke="#000000" cx="999.4126" cy="-106.8" rx="95.1585" ry="18"/>
<text text-anchor="middle" x="999.4126" y="-102.6" font-family="Times,serif" font-size="14.00" fill="#000000">os.Create,inl_cost=72</text>
</g>
<!-- main.main -->
<g id="node2" class="node">
<title>main.main</title>
<ellipse fill="none" stroke="#000000" cx="830.4126" cy="-284.4" rx="52.1456" ry="18"/>
<text text-anchor="middle" x="830.4126" y="-280.2" font-family="Times,serif" font-size="14.00" fill="#000000">main.main</text>
</g>
<!-- flag.String -->
<g id="node3" class="node">
<title>flag.String</title>
<ellipse fill="none" stroke="#000000" cx="333.4126" cy="-195.6" rx="100.3347" ry="18"/>
<text text-anchor="middle" x="333.4126" y="-191.4" font-family="Times,serif" font-size="14.00" fill="#000000">flag.String,inl_cost=63</text>
</g>
<!-- main.main&#45;&gt;flag.String -->
<g id="edge14" class="edge">
<title>main.main-&gt;flag.String</title>
<path fill="none" stroke="#000000" d="M783.6483,-276.3461C741.7833,-269.1125 678.7294,-258.1597 623.9126,-248.4 552.7102,-235.723 471.7546,-220.9818 413.4232,-210.3022"/>
<polygon fill="#000000" stroke="#000000" points="413.9999,-206.8497 403.533,-208.4907 412.7387,-213.7351 413.9999,-206.8497"/>
<text text-anchor="middle" x="636.6626" y="-235.8" font-family="Times,serif" font-size="14.00" fill="#000000">0.00</text>
</g>
<!-- main.findFactors -->
<g id="node4" class="node">
<title>main.findFactors</title>
<ellipse fill="none" stroke="#000000" cx="528.4126" cy="-195.6" rx="76.9835" ry="18"/>
<text text-anchor="middle" x="528.4126" y="-191.4" font-family="Times,serif" font-size="14.00" fill="#000000">main.findFactors</text>
</g>
<!-- main.main&#45;&gt;main.findFactors -->
<g id="edge17" class="edge">
<title>main.main-&gt;main.findFactors</title>
<path fill="none" stroke="#ff0000" d="M790.6208,-272.6996C738.3527,-257.3307 646.1934,-230.2322 586.2272,-212.5998"/>
<polygon fill="#ff0000" stroke="#ff0000" points="587.1051,-209.2098 576.5239,-209.7466 585.1304,-215.9255 587.1051,-209.2098"/>
<text text-anchor="middle" x="719.6626" y="-235.8" font-family="Times,serif" font-size="14.00" fill="#000000">0.62</text>
</g>
<!-- flag.Parse -->
<g id="node7" class="node">
<title>flag.Parse</title>
<ellipse fill="none" stroke="#000000" cx="720.4126" cy="-195.6" rx="97.4439" ry="18"/>
<text text-anchor="middle" x="720.4126" y="-191.4" font-family="Times,serif" font-size="14.00" fill="#000000">flag.Parse,inl_cost=62</text>
</g>
<!-- main.main&#45;&gt;flag.Parse -->
<g id="edge15" class="edge">
<title>main.main-&gt;flag.Parse</title>
<path fill="none" stroke="#000000" d="M809.7224,-267.6974C793.025,-254.218 769.3031,-235.068 750.5036,-219.8917"/>
<polygon fill="#000000" stroke="#000000" points="752.4993,-217.0046 742.5198,-213.4465 748.1023,-222.4513 752.4993,-217.0046"/>
<text text-anchor="middle" x="797.6626" y="-235.8" font-family="Times,serif" font-size="14.00" fill="#000000">0.00</text>
</g>
<!-- flag.Uint64 -->
<g id="node8" class="node">
<title>flag.Uint64</title>
<ellipse fill="none" stroke="#000000" cx="939.4126" cy="-195.6" rx="103.268" ry="18"/>
<text text-anchor="middle" x="939.4126" y="-191.4" font-family="Times,serif" font-size="14.00" fill="#000000">flag.Uint64,inl_cost=63</text>
</g>
<!-- main.main&#45;&gt;flag.Uint64 -->
<g id="edge19" class="edge">
<title>main.main-&gt;flag.Uint64</title>
<path fill="none" stroke="#000000" d="M850.9147,-267.6974C867.4603,-254.218 890.9666,-235.068 909.5951,-219.8917"/>
<polygon fill="#000000" stroke="#000000" points="911.9642,-222.4762 917.5064,-213.4465 907.5429,-217.0491 911.9642,-222.4762"/>
<text text-anchor="middle" x="907.6626" y="-235.8" font-family="Times,serif" font-size="14.00" fill="#000000">0.00</text>
</g>
<!-- fmt.Printf -->
<g id="node10" class="node">
<title>fmt.Printf</title>
<ellipse fill="none" stroke="#000000" cx="1157.4126" cy="-195.6" rx="96.901" ry="18"/>
<text text-anchor="middle" x="1157.4126" y="-191.4" font-family="Times,serif" font-size="14.00" fill="#000000">fmt.Printf,inl_cost=73</text>
</g>
<!-- main.main&#45;&gt;fmt.Printf -->
<g id="edge18" class="edge">
<title>main.main-&gt;fmt.Printf</title>
<path fill="none" stroke="#000000" d="M871.4963,-273.2433C927.1333,-258.1346 1027.0216,-231.0089 1092.7672,-213.1551"/>
<polygon fill="#000000" stroke="#000000" points="1093.8785,-216.4801 1102.6118,-210.4817 1092.044,-209.7248 1093.8785,-216.4801"/>
<text text-anchor="middle" x="1035.6626" y="-235.8" font-family="Times,serif" font-size="14.00" fill="#000000">0.00</text>
</g>
<!-- main.profile -->
<g id="node17" class="node">
<title>main.profile</title>
<ellipse fill="none" stroke="#000000" cx="1330.4126" cy="-195.6" rx="58.5046" ry="18"/>
<text text-anchor="middle" x="1330.4126" y="-191.4" font-family="Times,serif" font-size="14.00" fill="#000000">main.profile</text>
</g>
<!-- main.main&#45;&gt;main.profile -->
<g id="edge16" class="edge">
<title>main.main-&gt;main.profile</title>
<path fill="none" stroke="#000000" d="M879.4171,-278.0317C959.9892,-267.1938 1125.2944,-243.4115 1263.4126,-213.6 1268.0262,-212.6042 1272.7974,-211.4915 1277.5697,-210.3209"/>
<polygon fill="#000000" stroke="#000000" points="1278.4803,-213.7009 1287.317,-207.8561 1276.7641,-206.9146 1278.4803,-213.7009"/>
<text text-anchor="middle" x="1181.6626" y="-235.8" font-family="Times,serif" font-size="14.00" fill="#000000">0.00</text>
</g>
<!-- main.isSquare -->
<g id="node9" class="node">
<title>main.isSquare</title>
<ellipse fill="none" stroke="#000000" cx="403.4126" cy="-106.8" rx="66.0289" ry="18"/>
<text text-anchor="middle" x="403.4126" y="-102.6" font-family="Times,serif" font-size="14.00" fill="#000000">main.isSquare</text>
</g>
<!-- main.findFactors&#45;&gt;main.isSquare -->
<g id="edge6" class="edge">
<title>main.findFactors-&gt;main.isSquare</title>
<path fill="none" stroke="#ff0000" d="M504.3113,-178.4785C484.7706,-164.5967 457.0536,-144.9066 435.6127,-129.675"/>
<polygon fill="#ff0000" stroke="#ff0000" points="437.6192,-126.8071 427.4399,-123.869 433.5652,-132.5137 437.6192,-126.8071"/>
<text text-anchor="middle" x="489.6626" y="-147" font-family="Times,serif" font-size="14.00" fill="#000000">3.92</text>
</g>
<!-- math.Pow -->
<g id="node12" class="node">
<title>math.Pow</title>
<ellipse fill="none" stroke="#000000" cx="585.4126" cy="-106.8" rx="98.0506" ry="18"/>
<text text-anchor="middle" x="585.4126" y="-102.6" font-family="Times,serif" font-size="14.00" fill="#000000">math.Pow,inl_cost=62</text>
</g>
<!-- main.findFactors&#45;&gt;math.Pow -->
<g id="edge5" class="edge">
<title>main.findFactors-&gt;math.Pow</title>
<path fill="none" stroke="#000000" d="M539.9474,-177.63C548.1369,-164.8716 559.2649,-147.5353 568.4617,-133.2077"/>
<polygon fill="#000000" stroke="#000000" points="571.4385,-135.0494 573.8949,-124.7433 565.5476,-131.2681 571.4385,-135.0494"/>
<text text-anchor="middle" x="574.6626" y="-147" font-family="Times,serif" font-size="14.00" fill="#000000">0.21</text>
</g>
<!-- os.Setenv -->
<g id="node5" class="node">
<title>os.Setenv</title>
<ellipse fill="none" stroke="#000000" cx="96.4126" cy="-18" rx="96.3253" ry="18"/>
<text text-anchor="middle" x="96.4126" y="-13.8" font-family="Times,serif" font-size="14.00" fill="#000000">os.Setenv,inl_cost=90</text>
</g>
<!-- fmt.Println -->
<g id="node6" class="node">
<title>fmt.Println</title>
<ellipse fill="none" stroke="#000000" cx="1214.4126" cy="-106.8" rx="101.4963" ry="18"/>
<text text-anchor="middle" x="1214.4126" y="-102.6" font-family="Times,serif" font-size="14.00" fill="#000000">fmt.Println,inl_cost=72</text>
</g>
<!-- main.isSquare&#45;&gt;os.Setenv -->
<g id="edge3" class="edge">
<title>main.isSquare-&gt;os.Setenv</title>
<path fill="none" stroke="#ff0000" d="M358.1137,-93.6973C305.3731,-78.442 217.9588,-53.1574 158.8156,-36.0501"/>
<polygon fill="#ff0000" stroke="#ff0000" points="159.4259,-32.5832 148.8471,-33.1667 157.4808,-39.3076 159.4259,-32.5832"/>
<text text-anchor="middle" x="289.6626" y="-58.2" font-family="Times,serif" font-size="14.00" fill="#000000">1.03</text>
</g>
<!-- math.Sqrt -->
<g id="node11" class="node">
<title>math.Sqrt</title>
<ellipse fill="none" stroke="#000000" cx="303.4126" cy="-18" rx="92.248" ry="18"/>
<text text-anchor="middle" x="303.4126" y="-13.8" font-family="Times,serif" font-size="14.00" fill="#000000">math.Sqrt,inl_cost=4</text>
</g>
<!-- main.isSquare&#45;&gt;math.Sqrt -->
<g id="edge1" class="edge">
<title>main.isSquare-&gt;math.Sqrt</title>
<path fill="none" stroke="#ff0000" d="M383.6558,-89.256C368.6876,-75.9642 347.9272,-57.529 331.2731,-42.7401"/>
<polygon fill="#ff0000" stroke="#ff0000" points="333.272,-39.8344 323.4706,-35.8115 328.624,-45.0686 333.272,-39.8344"/>
<text text-anchor="middle" x="374.6626" y="-58.2" font-family="Times,serif" font-size="14.00" fill="#000000">1.86</text>
</g>
<!-- main.NewExpensive -->
<g id="node19" class="node">
<title>main.NewExpensive</title>
<ellipse fill="none" stroke="#000000" cx="504.4126" cy="-18" rx="91.4348" ry="18"/>
<text text-anchor="middle" x="504.4126" y="-13.8" font-family="Times,serif" font-size="14.00" fill="#000000">main.NewExpensive</text>
</g>
<!-- main.isSquare&#45;&gt;main.NewExpensive -->
<g id="edge2" class="edge">
<title>main.isSquare-&gt;main.NewExpensive</title>
<path fill="none" stroke="#000000" d="M423.3669,-89.256C438.4848,-75.9642 459.4528,-57.529 476.2735,-42.7401"/>
<polygon fill="#000000" stroke="#000000" points="478.9549,-45.043 484.154,-35.8115 474.3328,-39.7859 478.9549,-45.043"/>
<text text-anchor="middle" x="475.6626" y="-58.2" font-family="Times,serif" font-size="14.00" fill="#000000">0.41</text>
</g>
<!-- strconv.Itoa -->
<g id="node20" class="node">
<title>strconv.Itoa</title>
<ellipse fill="none" stroke="#000000" cx="723.4126" cy="-18" rx="109.6293" ry="18"/>
<text text-anchor="middle" x="723.4126" y="-13.8" font-family="Times,serif" font-size="14.00" fill="#000000">strconv.Itoa,inl_cost=117</text>
</g>
<!-- main.isSquare&#45;&gt;strconv.Itoa -->
<g id="edge4" class="edge">
<title>main.isSquare-&gt;strconv.Itoa</title>
<path fill="none" stroke="#000000" d="M449.9433,-93.8877C504.6528,-78.7058 595.829,-53.4044 657.7239,-36.2286"/>
<polygon fill="#000000" stroke="#000000" points="658.6962,-39.5911 667.3961,-33.5446 656.8244,-32.846 658.6962,-39.5911"/>
<text text-anchor="middle" x="604.6626" y="-58.2" font-family="Times,serif" font-size="14.00" fill="#000000">0.41</text>
</g>
<!-- log.Fatal -->
<g id="node13" class="node">
<title>log.Fatal</title>
<ellipse fill="none" stroke="#000000" cx="1378.4126" cy="-106.8" rx="45.2011" ry="18"/>
<text text-anchor="middle" x="1378.4126" y="-102.6" font-family="Times,serif" font-size="14.00" fill="#000000">log.Fatal</text>
</g>
<!-- runtime/pprof.StartCPUProfile -->
<g id="node14" class="node">
<title>runtime/pprof.StartCPUProfile</title>
<ellipse fill="none" stroke="#000000" cx="1571.4126" cy="-106.8" rx="130.2696" ry="18"/>
<text text-anchor="middle" x="1571.4126" y="-102.6" font-family="Times,serif" font-size="14.00" fill="#000000">runtime/pprof.StartCPUProfile</text>
</g>
<!-- main.profile.func1 -->
<g id="node15" class="node">
<title>main.profile.func1</title>
<ellipse fill="none" stroke="#000000" cx="1661.4126" cy="-284.4" rx="82.8071" ry="18"/>
<text text-anchor="middle" x="1661.4126" y="-280.2" font-family="Times,serif" font-size="14.00" fill="#000000">main.profile.func1</text>
</g>
<!-- os.(*File).Close -->
<g id="node16" class="node">
<title>os.(*File).Close</title>
<ellipse fill="none" stroke="#000000" cx="1527.4126" cy="-195.6" rx="120.6394" ry="18"/>
<text text-anchor="middle" x="1527.4126" y="-191.4" font-family="Times,serif" font-size="14.00" fill="#000000">os.(*File).Close,inl_cost=67</text>
</g>
<!-- main.profile.func1&#45;&gt;os.(*File).Close -->
<g id="edge12" class="edge">
<title>main.profile.func1-&gt;os.(*File).Close</title>
<path fill="none" stroke="#000000" d="M1635.576,-267.2785C1614.8054,-253.514 1585.4175,-234.0391 1562.5154,-218.8622"/>
<polygon fill="#000000" stroke="#000000" points="1564.3562,-215.8833 1554.087,-213.2768 1560.4894,-221.7184 1564.3562,-215.8833"/>
<text text-anchor="middle" x="1619.6626" y="-235.8" font-family="Times,serif" font-size="14.00" fill="#000000">0.00</text>
</g>
<!-- runtime/pprof.StopCPUProfile -->
<g id="node18" class="node">
<title>runtime/pprof.StopCPUProfile</title>
<ellipse fill="none" stroke="#000000" cx="1796.4126" cy="-195.6" rx="129.7132" ry="18"/>
<text text-anchor="middle" x="1796.4126" y="-191.4" font-family="Times,serif" font-size="14.00" fill="#000000">runtime/pprof.StopCPUProfile</text>
</g>
<!-- main.profile.func1&#45;&gt;runtime/pprof.StopCPUProfile -->
<g id="edge13" class="edge">
<title>main.profile.func1-&gt;runtime/pprof.StopCPUProfile</title>
<path fill="none" stroke="#000000" d="M1687.4419,-267.2785C1708.3676,-253.514 1737.9748,-234.0391 1761.0478,-218.8622"/>
<polygon fill="#000000" stroke="#000000" points="1763.1079,-221.6964 1769.5391,-213.2768 1759.2611,-215.8482 1763.1079,-221.6964"/>
<text text-anchor="middle" x="1753.6626" y="-235.8" font-family="Times,serif" font-size="14.00" fill="#000000">0.00</text>
</g>
<!-- main.profile&#45;&gt;os.Create -->
<g id="edge8" class="edge">
<title>main.profile-&gt;os.Create</title>
<path fill="none" stroke="#000000" d="M1286.0846,-183.688C1278.5203,-181.6562 1270.7412,-179.5671 1263.4126,-177.6 1195.4589,-159.3599 1117.6604,-138.4983 1064.2166,-124.1707"/>
<polygon fill="#000000" stroke="#000000" points="1065.094,-120.7824 1054.5287,-121.5735 1063.2813,-127.5436 1065.094,-120.7824"/>
<text text-anchor="middle" x="1203.6626" y="-147" font-family="Times,serif" font-size="14.00" fill="#000000">0.00</text>
</g>
<!-- main.profile&#45;&gt;fmt.Println -->
<g id="edge7" class="edge">
<title>main.profile-&gt;fmt.Println</title>
<path fill="none" stroke="#000000" d="M1308.5939,-178.8974C1290.7918,-165.2696 1265.4182,-145.8457 1245.4922,-130.592"/>
<polygon fill="#000000" stroke="#000000" points="1247.392,-127.6385 1237.324,-124.3391 1243.1369,-133.1968 1247.392,-127.6385"/>
<text text-anchor="middle" x="1295.6626" y="-147" font-family="Times,serif" font-size="14.00" fill="#000000">0.00</text>
</g>
<!-- main.profile&#45;&gt;log.Fatal -->
<g id="edge9" class="edge">
<title>main.profile-&gt;log.Fatal</title>
<path fill="none" stroke="#000000" d="M1327.2197,-177.5424C1326.209,-166.8774 1326.5114,-153.4278 1331.9126,-142.8 1334.698,-137.3191 1338.746,-132.4248 1343.3084,-128.1444"/>
<polygon fill="#000000" stroke="#000000" points="1345.8492,-130.5859 1351.3403,-121.525 1341.3973,-125.184 1345.8492,-130.5859"/>
<text text-anchor="middle" x="1344.6626" y="-147" font-family="Times,serif" font-size="14.00" fill="#000000">0.00</text>
</g>
<!-- main.profile&#45;&gt;log.Fatal -->
<g id="edge11" class="edge">
<title>main.profile-&gt;log.Fatal</title>
<path fill="none" stroke="#000000" d="M1344.4882,-177.8273C1348.6172,-172.18 1352.9492,-165.7897 1356.4126,-159.6 1360.8737,-151.6271 1364.9697,-142.5656 1368.3869,-134.2276"/>
<polygon fill="#000000" stroke="#000000" points="1371.6602,-135.4675 1372.0677,-124.8805 1365.147,-132.9026 1371.6602,-135.4675"/>
<text text-anchor="middle" x="1376.6626" y="-147" font-family="Times,serif" font-size="14.00" fill="#000000">0.00</text>
</g>
<!-- main.profile&#45;&gt;runtime/pprof.StartCPUProfile -->
<g id="edge10" class="edge">
<title>main.profile-&gt;runtime/pprof.StartCPUProfile</title>
<path fill="none" stroke="#000000" d="M1368.0688,-181.725C1407.7425,-167.1066 1470.638,-143.9319 1515.9788,-127.2254"/>
<polygon fill="#000000" stroke="#000000" points="1517.1997,-130.5056 1525.3729,-123.764 1514.7794,-123.9373 1517.1997,-130.5056"/>
<text text-anchor="middle" x="1485.6626" y="-147" font-family="Times,serif" font-size="14.00" fill="#000000">0.00</text>
</g>
</g>
</svg>