<?xml version="1.0" encoding="UTF-8" standalone="no"?><!DOCTYPE svg PUBLIC "-//W3C//DTD SVG 1.1//EN" "http://www.w3.org/Graphics/SVG/1.1/DTD/svg11.dtd"><!-- Generated by graphviz version 2.40.1 (20161225.0304)
 --><!-- Title: G Pages: 1 --><svg xmlns="http://www.w3.org/2000/svg" xmlns:xlink="http://www.w3.org/1999/xlink" width="2444pt" height="310pt" viewBox="0.00 0.00 2444.20 310.40">
<g id="graph0" class="graph" transform="scale(1 1) rotate(0) translate(4 306.4)">
<title>G</title>
<polygon fill="#ffffff" stroke="transparent" points="-4,4 -4,-306.4 2440.2035,-306.4 2440.2035,4 -4,4"/>
<!-- flag.Uint64 -->
<g id="node1" class="node">
<title>flag.Uint64</title>
<ellipse fill="none" stroke="#000000" cx="103.3839" cy="-195.6" rx="103.268" ry="18"/>
<text text-anchor="middle" x="103.3839" y="-191.4" font-family="Times,serif" font-size="14.00" fill="#000000">flag.Uint64,inl_cost=63</text>
</g>
<!-- main.runtimeProf.func1 -->
<g id="node2" class="node">
<title>main.runtimeProf.func1</title>
<ellipse fill="none" stroke="#000000" cx="1612.3839" cy="-284.4" rx="103.6547" ry="18"/>
<text text-anchor="middle" x="1612.3839" y="-280.2" font-family="Times,serif" font-size="14.00" fill="#000000">main.runtimeProf.func1</text>
</g>
<!-- fmt.Sprintf -->
<g id="node3" class="node">
<title>fmt.Sprintf</title>
<ellipse fill="none" stroke="#000000" cx="278.3839" cy="-195.6" rx="53.8676" ry="18"/>
<text text-anchor="middle" x="278.3839" y="-191.4" font-family="Times,serif" font-size="14.00" fill="#000000">fmt.Sprintf</text>
</g>
<!-- os.Create -->
<g id="node4" class="node">
<title>os.Create</title>
<ellipse fill="none" stroke="#000000" cx="210.3839" cy="-106.8" rx="95.1585" ry="18"/>
<text text-anchor="middle" x="210.3839" y="-102.6" font-family="Times,serif" font-size="14.00" fill="#000000">os.Create,inl_cost=72</text>
</g>
<!-- flag.Parse -->
<g id="node5" class="node">
<title>flag.Parse</title>
<ellipse fill="none" stroke="#000000" cx="447.3839" cy="-195.6" rx="97.4439" ry="18"/>
<text text-anchor="middle" x="447.3839" y="-191.4" font-family="Times,serif" font-size="14.00" fill="#000000">flag.Parse,inl_cost=62</text>
</g>
<!-- runtime/pprof.StopCPUProfile -->
<g id="node6" class="node">
<title>runtime/pprof.StopCPUProfile</title>
<ellipse fill="none" stroke="#000000" cx="2046.3839" cy="-195.6" rx="129.7132" ry="18"/>
<text text-anchor="middle" x="2046.3839" y="-191.4" font-family="Times,serif" font-size="14.00" fill="#000000">runtime/pprof.StopCPUProfile</text>
</g>
<!-- math.Sqrt -->
<g id="node7" class="node">
<title>math.Sqrt</title>
<ellipse fill="none" stroke="#000000" cx="948.3839" cy="-18" rx="92.248" ry="18"/>
<text text-anchor="middle" x="948.3839" y="-13.8" font-family="Times,serif" font-size="14.00" fill="#000000">math.Sqrt,inl_cost=4</text>
</g>
<!-- main.NewExpensive -->
<g id="node8" class="node">
<title>main.NewExpensive</title>
<ellipse fill="none" stroke="#000000" cx="1149.3839" cy="-18" rx="91.4348" ry="18"/>
<text text-anchor="middle" x="1149.3839" y="-13.8" font-family="Times,serif" font-size="14.00" fill="#000000">main.NewExpensive</text>
</g>
<!-- main.runtimeProf -->
<g id="node9" class="node">
<title>main.runtimeProf</title>
<ellipse fill="none" stroke="#000000" cx="642.3839" cy="-195.6" rx="79.3521" ry="18"/>
<text text-anchor="middle" x="642.3839" y="-191.4" font-family="Times,serif" font-size="14.00" fill="#000000">main.runtimeProf</text>
</g>
<!-- main.runtimeProf&#45;&gt;os.Create -->
<g id="edge11" class="edge">
<title>main.runtimeProf-&gt;os.Create</title>
<path fill="none" stroke="#000000" d="M585.0913,-183.0723C574.5794,-181.042 563.6778,-179.1128 553.3839,-177.6 467.4927,-164.9771 443.6627,-178.2868 358.8839,-159.6 324.3137,-151.9801 286.7581,-138.5768 258.0639,-127.1818"/>
<polygon fill="#000000" stroke="#000000" points="259.2732,-123.8957 248.6897,-123.4057 256.6576,-130.3887 259.2732,-123.8957"/>
<text text-anchor="middle" x="371.6339" y="-147" font-family="Times,serif" font-size="14.00" fill="#000000">0.00</text>
</g>
<!-- log.Fatal -->
<g id="node10" class="node">
<title>log.Fatal</title>
<ellipse fill="none" stroke="#000000" cx="368.3839" cy="-106.8" rx="45.2011" ry="18"/>
<text text-anchor="middle" x="368.3839" y="-102.6" font-family="Times,serif" font-size="14.00" fill="#000000">log.Fatal</text>
</g>
<!-- main.runtimeProf&#45;&gt;log.Fatal -->
<g id="edge12" class="edge">
<title>main.runtimeProf-&gt;log.Fatal</title>
<path fill="none" stroke="#000000" d="M584.5774,-183.213C574.2172,-181.1917 563.5003,-179.2294 553.3839,-177.6 520.3475,-172.2791 432.4227,-177.0716 403.8839,-159.6 393.9606,-153.5248 386.1931,-143.5098 380.4875,-133.8257"/>
<polygon fill="#000000" stroke="#000000" points="383.4513,-131.946 375.6459,-124.7817 377.28,-135.2498 383.4513,-131.946"/>
<text text-anchor="middle" x="416.6339" y="-147" font-family="Times,serif" font-size="14.00" fill="#000000">0.00</text>
</g>
<!-- main.runtimeProf&#45;&gt;log.Fatal -->
<g id="edge14" class="edge">
<title>main.runtimeProf-&gt;log.Fatal</title>
<path fill="none" stroke="#000000" d="M595.9854,-180.8225C551.4302,-166.5955 482.2481,-144.4094 422.3839,-124.8 419.2379,-123.7695 415.9906,-122.7004 412.7223,-121.6206"/>
<polygon fill="#000000" stroke="#000000" points="413.5283,-118.2005 402.935,-118.3763 411.3258,-124.845 413.5283,-118.2005"/>
<text text-anchor="middle" x="537.6339" y="-147" font-family="Times,serif" font-size="14.00" fill="#000000">0.00</text>
</g>
<!-- fmt.Println -->
<g id="node25" class="node">
<title>fmt.Println</title>
<ellipse fill="none" stroke="#000000" cx="532.3839" cy="-106.8" rx="101.4963" ry="18"/>
<text text-anchor="middle" x="532.3839" y="-102.6" font-family="Times,serif" font-size="14.00" fill="#000000">fmt.Println,inl_cost=72</text>
</g>
<!-- main.runtimeProf&#45;&gt;fmt.Println -->
<g id="edge10" class="edge">
<title>main.runtimeProf-&gt;fmt.Println</title>
<path fill="none" stroke="#000000" d="M620.9137,-178.2677C604.1389,-164.7258 580.6349,-145.7517 562.0604,-130.757"/>
<polygon fill="#000000" stroke="#000000" points="564.1555,-127.9502 554.176,-124.3921 559.7585,-133.3969 564.1555,-127.9502"/>
<text text-anchor="middle" x="609.6339" y="-147" font-family="Times,serif" font-size="14.00" fill="#000000">0.00</text>
</g>
<!-- runtime/pprof.StartCPUProfile -->
<g id="node28" class="node">
<title>runtime/pprof.StartCPUProfile</title>
<ellipse fill="none" stroke="#000000" cx="782.3839" cy="-106.8" rx="130.2696" ry="18"/>
<text text-anchor="middle" x="782.3839" y="-102.6" font-family="Times,serif" font-size="14.00" fill="#000000">runtime/pprof.StartCPUProfile</text>
</g>
<!-- main.runtimeProf&#45;&gt;runtime/pprof.StartCPUProfile -->
<g id="edge13" class="edge">
<title>main.runtimeProf-&gt;runtime/pprof.StartCPUProfile</title>
<path fill="none" stroke="#000000" d="M669.3773,-178.4785C691.1736,-164.6534 722.0525,-145.0674 746.0252,-129.8618"/>
<polygon fill="#000000" stroke="#000000" points="747.9453,-132.7887 754.5152,-124.4768 744.1959,-126.8775 747.9453,-132.7887"/>
<text text-anchor="middle" x="737.6339" y="-147" font-family="Times,serif" font-size="14.00" fill="#000000">0.00</text>
</g>
<!-- main.main -->
<g id="node11" class="node">
<title>main.main</title>
<ellipse fill="none" stroke="#000000" cx="961.3839" cy="-284.4" rx="52.1456" ry="18"/>
<text text-anchor="middle" x="961.3839" y="-280.2" font-family="Times,serif" font-size="14.00" fill="#000000">main.main</text>
</g>
<!-- main.main&#45;&gt;flag.Uint64 -->
<g id="edge20" class="edge">
<title>main.main-&gt;flag.Uint64</title>
<path fill="none" stroke="#000000" d="M909.5147,-282.7662C812.1086,-279.3043 595.2901,-269.7307 413.8839,-248.4 334.2772,-239.0394 244.0293,-223.0864 181.429,-211.16"/>
<polygon fill="#000000" stroke="#000000" points="181.7177,-207.6517 171.2377,-209.2074 180.4004,-214.5267 181.7177,-207.6517"/>
<text text-anchor="middle" x="426.6339" y="-235.8" font-family="Times,serif" font-size="14.00" fill="#000000">0.00</text>
</g>
<!-- main.main&#45;&gt;fmt.Sprintf -->
<g id="edge24" class="edge">
<title>main.main-&gt;fmt.Sprintf</title>
<path fill="none" stroke="#000000" d="M909.8817,-281.526C803.0176,-274.9053 549.7686,-255.7975 341.3839,-213.6 336.9366,-212.6994 332.3455,-211.6424 327.7636,-210.4997"/>
<polygon fill="#000000" stroke="#000000" points="328.3674,-207.0398 317.8066,-207.8884 326.5916,-213.8108 328.3674,-207.0398"/>
<text text-anchor="middle" x="557.6339" y="-235.8" font-family="Times,serif" font-size="14.00" fill="#000000">0.00</text>
</g>
<!-- main.main&#45;&gt;flag.Parse -->
<g id="edge21" class="edge">
<title>main.main-&gt;flag.Parse</title>
<path fill="none" stroke="#000000" d="M914.0571,-276.6824C870.1794,-269.4912 803.0899,-258.4042 744.8839,-248.4 671.0885,-235.7164 587.0942,-220.7615 527.2177,-210.0116"/>
<polygon fill="#000000" stroke="#000000" points="527.536,-206.5129 517.0747,-208.1894 526.2982,-213.4026 527.536,-206.5129"/>
<text text-anchor="middle" x="757.6339" y="-235.8" font-family="Times,serif" font-size="14.00" fill="#000000">0.00</text>
</g>
<!-- main.main&#45;&gt;main.runtimeProf -->
<g id="edge22" class="edge">
<title>main.main-&gt;main.runtimeProf</title>
<path fill="none" stroke="#000000" d="M920.6584,-273.0632C865.4137,-257.6848 766.3119,-230.0978 702.4974,-212.3338"/>
<polygon fill="#000000" stroke="#000000" points="703.1431,-208.8805 692.5707,-209.5705 701.2658,-215.6241 703.1431,-208.8805"/>
<text text-anchor="middle" x="843.6339" y="-235.8" font-family="Times,serif" font-size="14.00" fill="#000000">0.00</text>
</g>
<!-- flag.Int -->
<g id="node12" class="node">
<title>flag.Int</title>
<ellipse fill="none" stroke="#000000" cx="827.3839" cy="-195.6" rx="87.0741" ry="18"/>
<text text-anchor="middle" x="827.3839" y="-191.4" font-family="Times,serif" font-size="14.00" fill="#000000">flag.Int,inl_cost=63</text>
</g>
<!-- main.main&#45;&gt;flag.Int -->
<g id="edge27" class="edge">
<title>main.main-&gt;flag.Int</title>
<path fill="none" stroke="#000000" d="M937.1175,-268.319C916.2521,-254.4917 885.8966,-234.3755 862.3989,-218.8039"/>
<polygon fill="#000000" stroke="#000000" points="864.0323,-215.6876 853.7631,-213.0811 860.1654,-221.5227 864.0323,-215.6876"/>
<text text-anchor="middle" x="919.6339" y="-235.8" font-family="Times,serif" font-size="14.00" fill="#000000">0.00</text>
</g>
<!-- main.findFactors -->
<g id="node14" class="node">
<title>main.findFactors</title>
<ellipse fill="none" stroke="#000000" cx="1009.3839" cy="-195.6" rx="76.9835" ry="18"/>
<text text-anchor="middle" x="1009.3839" y="-191.4" font-family="Times,serif" font-size="14.00" fill="#000000">main.findFactors</text>
</g>
<!-- main.main&#45;&gt;main.findFactors -->
<g id="edge23" class="edge">
<title>main.main-&gt;main.findFactors</title>
<path fill="none" stroke="#000000" d="M958.1911,-266.3424C957.1804,-255.6774 957.4828,-242.2278 962.8839,-231.6 965.136,-227.1687 968.2134,-223.1207 971.7207,-219.4707"/>
<polygon fill="#000000" stroke="#000000" points="974.3189,-221.8404 979.397,-212.5418 969.6286,-216.6441 974.3189,-221.8404"/>
<text text-anchor="middle" x="975.6339" y="-235.8" font-family="Times,serif" font-size="14.00" fill="#000000">0.00</text>
</g>
<!-- main.main&#45;&gt;main.findFactors -->
<g id="edge29" class="edge">
<title>main.main-&gt;main.findFactors</title>
<path fill="none" stroke="#000000" d="M975.1906,-266.9945C979.3998,-261.258 983.8452,-254.7243 987.3839,-248.4 991.8451,-240.4271 995.9411,-231.3656 999.3582,-223.0276"/>
<polygon fill="#000000" stroke="#000000" points="1002.6315,-224.2675 1003.039,-213.6805 996.1183,-221.7026 1002.6315,-224.2675"/>
<text text-anchor="middle" x="1007.6339" y="-235.8" font-family="Times,serif" font-size="14.00" fill="#000000">0.12</text>
</g>
<!-- fmt.Printf -->
<g id="node15" class="node">
<title>fmt.Printf</title>
<ellipse fill="none" stroke="#000000" cx="1201.3839" cy="-195.6" rx="96.901" ry="18"/>
<text text-anchor="middle" x="1201.3839" y="-191.4" font-family="Times,serif" font-size="14.00" fill="#000000">fmt.Printf,inl_cost=73</text>
</g>
<!-- main.main&#45;&gt;fmt.Printf -->
<g id="edge30" class="edge">
<title>main.main-&gt;fmt.Printf</title>
<path fill="none" stroke="#000000" d="M997.0552,-271.2016C1037.041,-256.4069 1102.2863,-232.2661 1148.2734,-215.2509"/>
<polygon fill="#000000" stroke="#000000" points="1149.6142,-218.4868 1157.7783,-211.7341 1147.1851,-211.9217 1149.6142,-218.4868"/>
<text text-anchor="middle" x="1115.6339" y="-235.8" font-family="Times,serif" font-size="14.00" fill="#000000">0.00</text>
</g>
<!-- flag.String -->
<g id="node16" class="node">
<title>flag.String</title>
<ellipse fill="none" stroke="#000000" cx="1416.3839" cy="-195.6" rx="100.3347" ry="18"/>
<text text-anchor="middle" x="1416.3839" y="-191.4" font-family="Times,serif" font-size="14.00" fill="#000000">flag.String,inl_cost=63</text>
</g>
<!-- main.main&#45;&gt;flag.String -->
<g id="edge25" class="edge">
<title>main.main-&gt;flag.String</title>
<path fill="none" stroke="#000000" d="M1007.0943,-275.4789C1084.6874,-260.3355 1243.0177,-229.435 1338.4043,-210.8189"/>
<polygon fill="#000000" stroke="#000000" points="1339.144,-214.2406 1348.2884,-208.8899 1337.8031,-207.3702 1339.144,-214.2406"/>
<text text-anchor="middle" x="1242.6339" y="-235.8" font-family="Times,serif" font-size="14.00" fill="#000000">0.00</text>
</g>
<!-- flag.Bool -->
<g id="node20" class="node">
<title>flag.Bool</title>
<ellipse fill="none" stroke="#000000" cx="1630.3839" cy="-195.6" rx="95.1816" ry="18"/>
<text text-anchor="middle" x="1630.3839" y="-191.4" font-family="Times,serif" font-size="14.00" fill="#000000">flag.Bool,inl_cost=63</text>
</g>
<!-- main.main&#45;&gt;flag.Bool -->
<g id="edge26" class="edge">
<title>main.main-&gt;flag.Bool</title>
<path fill="none" stroke="#000000" d="M1011.2926,-278.9773C1109.794,-268.0887 1336.0757,-242.1516 1525.3839,-213.6 1533.5994,-212.3609 1542.1647,-211.0025 1550.7042,-209.6047"/>
<polygon fill="#000000" stroke="#000000" points="1551.4005,-213.0371 1560.6944,-207.9505 1550.257,-206.1312 1551.4005,-213.0371"/>
<text text-anchor="middle" x="1399.6339" y="-235.8" font-family="Times,serif" font-size="14.00" fill="#000000">0.00</text>
</g>
<!-- main.httpProf -->
<g id="node26" class="node">
<title>main.httpProf</title>
<ellipse fill="none" stroke="#000000" cx="1834.3839" cy="-195.6" rx="64.3249" ry="18"/>
<text text-anchor="middle" x="1834.3839" y="-191.4" font-family="Times,serif" font-size="14.00" fill="#000000">main.httpProf</text>
</g>
<!-- main.main&#45;&gt;main.httpProf -->
<g id="edge28" class="edge">
<title>main.main-&gt;main.httpProf</title>
<path fill="none" stroke="#000000" d="M1013.1655,-281.525C1137.8221,-274.1978 1464.2888,-252.593 1734.3839,-213.6 1746.3189,-211.877 1759.0103,-209.7907 1771.2032,-207.658"/>
<polygon fill="#000000" stroke="#000000" points="1772.0677,-211.0592 1781.3004,-205.8625 1770.8421,-204.1673 1772.0677,-211.0592"/>
<text text-anchor="middle" x="1599.6339" y="-235.8" font-family="Times,serif" font-size="14.00" fill="#000000">0.00</text>
</g>
<!-- os.Setenv -->
<g id="node13" class="node">
<title>os.Setenv</title>
<ellipse fill="none" stroke="#000000" cx="1355.3839" cy="-18" rx="96.3253" ry="18"/>
<text text-anchor="middle" x="1355.3839" y="-13.8" font-family="Times,serif" font-size="14.00" fill="#000000">os.Setenv,inl_cost=90</text>
</g>
<!-- main.findFactors&#45;&gt;math.Sqrt -->
<g id="edge6" class="edge">
<title>main.findFactors-&gt;math.Sqrt</title>
<path fill="none" stroke="#000000" d="M994.5096,-177.9066C983.8989,-164.279 970.2533,-144.4956 962.8839,-124.8 953.3606,-99.3474 949.9759,-68.4004 948.8299,-46.3852"/>
<polygon fill="#000000" stroke="#000000" points="952.3258,-46.211 948.4301,-36.3585 945.3314,-46.49 952.3258,-46.211"/>
<text text-anchor="middle" x="975.6339" y="-102.6" font-family="Times,serif" font-size="14.00" fill="#000000">0.00</text>
</g>
<!-- main.findFactors&#45;&gt;math.Sqrt -->
<g id="edge8" class="edge">
<title>main.findFactors-&gt;math.Sqrt</title>
<path fill="none" stroke="#000000" d="M1007.324,-177.3799C1004.496,-155.7463 998.4542,-118.8171 987.3839,-88.8 981.7574,-73.5436 973.2341,-57.5929 965.5892,-44.7021"/>
<polygon fill="#000000" stroke="#000000" points="968.4242,-42.6284 960.2317,-35.9102 962.4465,-46.2709 968.4242,-42.6284"/>
<text text-anchor="middle" x="1010.6339" y="-102.6" font-family="Times,serif" font-size="14.00" fill="#000000">0.00</text>
</g>
<!-- math.Ceil -->
<g id="node21" class="node">
<title>math.Ceil</title>
<ellipse fill="none" stroke="#000000" cx="1148.3839" cy="-106.8" rx="96.9029" ry="18"/>
<text text-anchor="middle" x="1148.3839" y="-102.6" font-family="Times,serif" font-size="14.00" fill="#000000">math.Ceil,inl_cost=61</text>
</g>
<!-- main.findFactors&#45;&gt;math.Ceil -->
<g id="edge7" class="edge">
<title>main.findFactors-&gt;math.Ceil</title>
<path fill="none" stroke="#000000" d="M1035.856,-178.6884C1057.6035,-164.795 1088.6181,-144.9814 1112.5813,-129.6724"/>
<polygon fill="#000000" stroke="#000000" points="1114.5178,-132.5886 1121.0607,-124.2554 1110.7492,-126.6896 1114.5178,-132.5886"/>
<text text-anchor="middle" x="1103.6339" y="-147" font-family="Times,serif" font-size="14.00" fill="#000000">0.00</text>
</g>
<!-- main.isSquare -->
<g id="node24" class="node">
<title>main.isSquare</title>
<ellipse fill="none" stroke="#000000" cx="1329.3839" cy="-106.8" rx="66.0289" ry="18"/>
<text text-anchor="middle" x="1329.3839" y="-102.6" font-family="Times,serif" font-size="14.00" fill="#000000">main.isSquare</text>
</g>
<!-- main.findFactors&#45;&gt;main.isSquare -->
<g id="edge5" class="edge">
<title>main.findFactors-&gt;main.isSquare</title>
<path fill="none" stroke="#ff0000" d="M1059.0328,-181.8224C1116.9861,-165.7404 1212.5988,-139.2079 1273.2149,-122.3869"/>
<polygon fill="#ff0000" stroke="#ff0000" points="1274.3005,-125.718 1283.0005,-119.6714 1272.4287,-118.9729 1274.3005,-125.718"/>
<text text-anchor="middle" x="1210.6339" y="-147" font-family="Times,serif" font-size="14.00" fill="#000000">0.27</text>
</g>
<!-- main.findFactors&#45;&gt;main.isSquare -->
<g id="edge9" class="edge">
<title>main.findFactors-&gt;main.isSquare</title>
<path fill="none" stroke="#ff0000" d="M1065.7135,-183.223C1075.5797,-181.2232 1085.7644,-179.2655 1095.3839,-177.6 1153.2917,-167.5741 1170.3292,-177.2548 1226.3839,-159.6 1250.0447,-152.1479 1274.8375,-139.6048 1294.1685,-128.6137"/>
<polygon fill="#ff0000" stroke="#ff0000" points="1296.0252,-131.5829 1302.9157,-123.5349 1292.5103,-125.5293 1296.0252,-131.5829"/>
<text text-anchor="middle" x="1277.6339" y="-147" font-family="Times,serif" font-size="14.00" fill="#000000">0.23</text>
</g>
<!-- strconv.Itoa -->
<g id="node17" class="node">
<title>strconv.Itoa</title>
<ellipse fill="none" stroke="#000000" cx="1579.3839" cy="-18" rx="109.6293" ry="18"/>
<text text-anchor="middle" x="1579.3839" y="-13.8" font-family="Times,serif" font-size="14.00" fill="#000000">strconv.Itoa,inl_cost=117</text>
</g>
<!-- main.httpProf.func1 -->
<g id="node18" class="node">
<title>main.httpProf.func1</title>
<ellipse fill="none" stroke="#000000" cx="1861.3839" cy="-106.8" rx="88.6275" ry="18"/>
<text text-anchor="middle" x="1861.3839" y="-102.6" font-family="Times,serif" font-size="14.00" fill="#000000">main.httpProf.func1</text>
</g>
<!-- net/http.ListenAndServe -->
<g id="node19" class="node">
<title>net/http.ListenAndServe</title>
<ellipse fill="none" stroke="#000000" cx="1861.3839" cy="-18" rx="153.6079" ry="18"/>
<text text-anchor="middle" x="1861.3839" y="-13.8" font-family="Times,serif" font-size="14.00" fill="#000000">net/http.ListenAndServe,inl_cost=70</text>
</g>
<!-- main.httpProf.func1&#45;&gt;net/http.ListenAndServe -->
<g id="edge19" class="edge">
<title>main.httpProf.func1-&gt;net/http.ListenAndServe</title>
<path fill="none" stroke="#000000" d="M1861.3839,-88.4006C1861.3839,-76.2949 1861.3839,-60.2076 1861.3839,-46.4674"/>
<polygon fill="#000000" stroke="#000000" points="1864.884,-46.072 1861.3839,-36.072 1857.884,-46.0721 1864.884,-46.072"/>
<text text-anchor="middle" x="1873.6339" y="-58.2" font-family="Times,serif" font-size="14.00" fill="#000000">0.00</text>
</g>
<!-- log.Println -->
<g id="node27" class="node">
<title>log.Println</title>
<ellipse fill="none" stroke="#000000" cx="2133.3839" cy="-18" rx="100.356" ry="18"/>
<text text-anchor="middle" x="2133.3839" y="-13.8" font-family="Times,serif" font-size="14.00" fill="#000000">log.Println,inl_cost=77</text>
</g>
<!-- main.httpProf.func1&#45;&gt;log.Println -->
<g id="edge18" class="edge">
<title>main.httpProf.func1-&gt;log.Println</title>
<path fill="none" stroke="#000000" d="M1908.4522,-91.4336C1954.7801,-76.3089 2025.6255,-53.18 2075.4017,-36.9295"/>
<polygon fill="#000000" stroke="#000000" points="2076.6425,-40.2063 2085.0625,-33.7755 2074.47,-33.5519 2076.6425,-40.2063"/>
<text text-anchor="middle" x="2034.6339" y="-58.2" font-family="Times,serif" font-size="14.00" fill="#000000">0.00</text>
</g>
<!-- main.runtimeProf.func2 -->
<g id="node22" class="node">
<title>main.runtimeProf.func2</title>
<ellipse fill="none" stroke="#000000" cx="2180.3839" cy="-284.4" rx="103.6547" ry="18"/>
<text text-anchor="middle" x="2180.3839" y="-280.2" font-family="Times,serif" font-size="14.00" fill="#000000">main.runtimeProf.func2</text>
</g>
<!-- main.runtimeProf.func2&#45;&gt;runtime/pprof.StopCPUProfile -->
<g id="edge16" class="edge">
<title>main.runtimeProf.func2-&gt;runtime/pprof.StopCPUProfile</title>
<path fill="none" stroke="#000000" d="M2153.9098,-266.856C2133.2143,-253.1413 2104.2554,-233.9506 2081.6039,-218.9398"/>
<polygon fill="#000000" stroke="#000000" points="2083.5309,-216.018 2073.2617,-213.4115 2079.6641,-221.8531 2083.5309,-216.018"/>
<text text-anchor="middle" x="2138.6339" y="-235.8" font-family="Times,serif" font-size="14.00" fill="#000000">0.00</text>
</g>
<!-- os.(*File).Close -->
<g id="node23" class="node">
<title>os.(*File).Close</title>
<ellipse fill="none" stroke="#000000" cx="2315.3839" cy="-195.6" rx="120.6394" ry="18"/>
<text text-anchor="middle" x="2315.3839" y="-191.4" font-family="Times,serif" font-size="14.00" fill="#000000">os.(*File).Close,inl_cost=67</text>
</g>
<!-- main.runtimeProf.func2&#45;&gt;os.(*File).Close -->
<g id="edge15" class="edge">
<title>main.runtimeProf.func2-&gt;os.(*File).Close</title>
<path fill="none" stroke="#000000" d="M2207.0556,-266.856C2227.9056,-253.1413 2257.0806,-233.9506 2279.9011,-218.9398"/>
<polygon fill="#000000" stroke="#000000" points="2281.8744,-221.8312 2288.3056,-213.4115 2278.0275,-215.9829 2281.8744,-221.8312"/>
<text text-anchor="middle" x="2271.6339" y="-235.8" font-family="Times,serif" font-size="14.00" fill="#000000">0.00</text>
</g>
<!-- main.isSquare&#45;&gt;math.Sqrt -->
<g id="edge1" class="edge">
<title>main.isSquare-&gt;math.Sqrt</title>
<path fill="none" stroke="#ff0000" d="M1279.7758,-94.8336C1271.3069,-92.8081 1262.595,-90.7352 1254.3839,-88.8 1173.4404,-69.7231 1080.3379,-48.2485 1018.2912,-34.0036"/>
<polygon fill="#ff0000" stroke="#ff0000" points="1018.7545,-30.519 1008.2249,-31.6934 1017.1886,-37.3416 1018.7545,-30.519"/>
<text text-anchor="middle" x="1183.6339" y="-58.2" font-family="Times,serif" font-size="14.00" fill="#000000">0.21</text>
</g>
<!-- main.isSquare&#45;&gt;main.NewExpensive -->
<g id="edge2" class="edge">
<title>main.isSquare-&gt;main.NewExpensive</title>
<path fill="none" stroke="#000000" d="M1297.2035,-90.9243C1268.0279,-76.531 1224.7941,-55.2024 1192.6108,-39.3253"/>
<polygon fill="#000000" stroke="#000000" points="1193.9439,-36.0802 1183.4274,-34.7948 1190.8469,-42.3579 1193.9439,-36.0802"/>
<text text-anchor="middle" x="1268.6339" y="-58.2" font-family="Times,serif" font-size="14.00" fill="#000000">0.07</text>
</g>
<!-- main.isSquare&#45;&gt;os.Setenv -->
<g id="edge3" class="edge">
<title>main.isSquare-&gt;os.Setenv</title>
<path fill="none" stroke="#000000" d="M1334.6454,-88.83C1338.2514,-76.5142 1343.1063,-59.9328 1347.2122,-45.9095"/>
<polygon fill="#000000" stroke="#000000" points="1350.59,-46.8287 1350.041,-36.2481 1343.872,-44.8616 1350.59,-46.8287"/>
<text text-anchor="middle" x="1357.6339" y="-58.2" font-family="Times,serif" font-size="14.00" fill="#000000">0.15</text>
</g>
<!-- main.isSquare&#45;&gt;strconv.Itoa -->
<g id="edge4" class="edge">
<title>main.isSquare-&gt;strconv.Itoa</title>
<path fill="none" stroke="#ff0000" d="M1369.8286,-92.4341C1411.5012,-77.632 1476.7771,-54.4459 1523.3978,-37.8863"/>
<polygon fill="#ff0000" stroke="#ff0000" points="1524.7961,-41.1039 1533.0478,-34.4586 1522.453,-34.5077 1524.7961,-41.1039"/>
<text text-anchor="middle" x="1489.6339" y="-58.2" font-family="Times,serif" font-size="14.00" fill="#000000">0.24</text>
</g>
<!-- main.httpProf&#45;&gt;main.httpProf.func1 -->
<g id="edge17" class="edge">
<title>main.httpProf-&gt;main.httpProf.func1</title>
<path fill="none" stroke="#000000" d="M1839.8478,-177.63C1843.5925,-165.3142 1848.6341,-148.7328 1852.8979,-134.7095"/>
<polygon fill="#000000" stroke="#000000" points="1856.2751,-135.6338 1855.8355,-125.0481 1849.5778,-133.5974 1856.2751,-135.6338"/>
<text text-anchor="middle" x="1862.6339" y="-147" font-family="Times,serif" font-size="14.00" fill="#000000">0.00</text>
</g>
</g>
</svg>